<svg xmlns="http://www.w3.org/2000/svg" width="512" height="512"><path d="m280.855-.238 2.229-.03C298.774-.433 313.816-.46 329 4l2.003.551c33.657 9.376 63.869 33.58 81.185 63.762C414 71.675 414 71.675 414 74l2.64.777C430.33 79.76 442.6 91.672 450 104q.794 1.876 1.523 3.777C453 111.54 454.428 114.823 457 118c4.207 1.203 7.21 1.271 11.574 1.078 3.337-.076 4.765.003 7.426 1.922 2.028 3.042 2.256 3.69 2.306 7.117l.049 2.498.016 2.69c.01.916.018 1.832.027 2.776q.022 2.907.028 5.815c.011 2.961.06 5.92.111 8.881q.015 2.826.022 5.653l.059 2.677c-.033 4.44-.183 6.319-2.945 9.96-4.198 3.035-7.81 2.33-12.797 2.078L460 171l-.279 2.641c-1.594 14.312-3.762 28.537-5.897 42.776q-.86 5.74-1.714 11.48-1.672 11.208-3.35 22.413l-2.724 18.215a201142 201142 0 0 1-8.579 57.34 97408 97408 0 0 0-6.756 45.202q-3.47 23.246-6.95 46.49-1.951 13.035-3.896 26.071-1.653 11.084-3.317 22.167a7755 7755 0 0 0-1.69 11.303 6382 6382 0 0 1-1.837 12.254l-.532 3.605c-2.259 14.887-2.259 14.887-5.229 17.7-2.689 1.605-4.266 1.72-7.382 1.726l-3.16.028-3.469-.017-3.687.019c-3.379.014-6.758.014-10.137.008-3.643-.002-7.287.012-10.93.025-7.14.02-14.278.025-21.416.023a11552 11552 0 0 0-22.414.017l-2.518.003c-15.725.019-31.449.018-47.173.01-14.391-.005-28.782.016-43.173.05q-22.155.05-44.311.043c-8.295-.002-16.59.003-24.885.028q-10.593.033-21.184.006c-3.604-.01-7.207-.01-10.81.01-3.905.022-7.809.006-11.713-.015l-3.462.038c-7.61-.086-7.61-.086-11.59-2.882-1.851-2.8-2.622-4.53-3.093-7.824l-.471-3.07-.457-3.402-.55-3.701a999 999 0 0 1-1.186-8.235c-.65-4.628-1.328-9.25-2.01-13.874a7216 7216 0 0 1-2.34-15.985c-2.368-16.315-4.812-32.618-7.273-48.918l-.613-4.056c-1.096-7.267-1.096-7.267-2.194-14.533a51426 51426 0 0 1-7.148-47.53l-3.328-22.175q-2.727-18.166-5.459-36.333a109090 109090 0 0 1-5.67-37.744q-1.575-10.512-3.158-21.024-1.472-9.786-2.938-19.573-.537-3.587-1.078-7.175-.735-4.878-1.463-9.758l-.438-2.881-.39-2.634-.342-2.27C52 175 52 175 52 171l-2.668.176-3.52.137-3.48.175c-4.464-.654-5.613-1.912-8.332-5.488-.717-3.183-.678-6.283-.629-9.535l-.007-2.775q0-2.895.04-5.792c.033-2.954.02-5.906 0-8.86q.01-2.819.03-5.636l-.015-2.673c.117-6.116.117-6.116 2.491-9.254 3.62-2.555 5.797-2.585 10.215-2.537l3.32.027L52 119l.25-3.375c2.039-15.648 13.753-28.943 25.438-38.75 13.229-10.13 28.828-17.37 44.875-21.687l2.176-.591c10.091-2.538 20.174-3.886 30.558-3.37l2.104.09c2.835.125 5.665.254 8.494.478 8.227.769 8.227.769 15.792-1.916 3.633-3.217 6.4-7.023 9.313-10.879C213.002 15.276 248.7.116 280.855-.238M203 53l-2 3 1.69.516C220.182 61.92 234.687 68.498 249 80l2.75 2.117c2.632 2.202 3.458 3.557 4.25 6.883-.186 3.102-.341 5.173-2.3 7.633-2.67 2.148-4.769 2.147-8.122 2.039-4.421-1.152-7.274-4.182-10.637-7.16-24.408-20.843-57.82-24.501-88.633-22.322-24.672 2.392-51.461 12.426-67.808 31.748C74.853 105.813 70 112.697 70 119h367c-10.703-17.838-22.363-27.476-42.406-32.617-3.533-.522-7.032-.528-10.594-.508l-2.117-.012c-3.765.007-7.22.286-10.883 1.137-4.438.475-6.274.525-9.937-2.125C359 82 359 82 358.375 79c.875-4.202 2.139-5.49 5.625-8 7.84-2.774 16.77-2.583 25-3-3.228-5.733-7.53-10.215-12-15l-1.91-2.11C369.444 44.899 362.856 40.469 356 36l-2.531-1.691C306.78 4.507 241.409 14.892 203 53M52 137v16h58v-16zm76 0v101h85V137zm109 0c1.246 3.74 2.317 6.888 4.015 10.337l1.184 2.416 1.266 2.548 1.315 2.657q1.373 2.766 2.751 5.53c1.408 2.828 2.8 5.663 4.194 8.498q1.337 2.69 2.677 5.377l1.26 2.579 1.193 2.368 1.038 2.092c1.1 1.929 1.1 1.929 4.107 2.598 2.7-.975 5.246-2.025 7.855-3.207l2.416-1.067c2.643-1.17 5.28-2.354 7.916-3.538q2.766-1.23 5.533-2.458A4597 4597 0 0 0 303 166l2.77-1.244q11.695-5.25 23.38-10.524A2133 2133 0 0 1 366 138v-1zm140 15v1h83v-16c-31.135-1.872-55.7-1.04-83 15m-146 16-.01 1.8q-.121 21.684-.278 43.366-.076 10.485-.134 20.972-.055 10.114-.136 20.23a2863 2863 0 0 0-.045 7.726 2571 2571 0 0 1-.078 10.803l-.007 3.244c-.01.981-.022 1.963-.034 2.974l-.016 2.581c-.288 2.537-.913 4.146-2.262 6.304-4.565 2.819-9.85 2.281-15.035 2.259l-3.052.01c-3.325.01-6.65.003-9.976-.003l-6.937.005q-7.268.005-14.536-.01a4951 4951 0 0 0-18.633.007q-7.163.009-14.324 0-3.435-.003-6.87.005c-3.201.005-6.401-.003-9.602-.014l-2.868.012c-5.601-.036-10.006-.11-14.167-4.271-.98-2.918-1.134-5.631-1.158-8.695l-.03-2.847-.017-3.102-.03-3.282q-.047-5.373-.081-10.746l-.063-7.449q-.074-8.802-.138-17.605-.084-11.006-.176-22.012Q110.146 190.63 110 171H70c4.846 34.282 9.926 68.526 15.056 102.766q1.034 6.896 2.066 13.79 2.872 19.183 5.747 38.364l.368 2.45c.12.809.242 1.619.367 2.453l1.108 7.384q2.99 19.947 5.971 39.895 3.08 20.592 6.168 41.183 1.728 11.518 3.448 23.038 1.458 9.757 2.924 19.51.748 4.974 1.489 9.948.802 5.376 1.614 10.751l.474 3.206.438 2.883.375 2.508c.21 1.877.21 1.877 1.387 2.871 1.464.098 2.932.126 4.4.126l2.896.008 3.22-.007 3.39.005c3.782.004 7.563 0 11.344-.003l8.094.006q9.879.005 19.759 0 8.025-.003 16.05-.001h2.304l4.631.001q21.74.004 43.479-.006 18.674-.006 37.347.001a74287 74287 0 0 0 50.226.003q8.02 0 16.041.003 9.768.004 19.536-.003 4.987-.004 9.976 0 5.396.002 10.791-.006l3.22.007 2.897-.008h2.52c1.892.08 1.892.08 2.879-1.126.325-1.617.592-3.245.836-4.876l.488-3.218.53-3.58.567-3.77a6049 6049 0 0 0 1.555-10.407q.836-5.604 1.679-11.207 1.649-10.993 3.288-21.987 1.913-12.81 3.833-25.62 3.426-22.875 6.843-45.751a125979 125979 0 0 1 7.866-52.585l.41-2.735.408-2.73a272020 272020 0 0 0 8.238-55.054 87874 87874 0 0 0 5.675-37.951c3.048-20.243 3.048-20.243 5.784-40.529a2193 2193 0 0 0-40.068-.984c-6.21-.098-12.414-.23-18.621-.45-33.029-1.137-57.795 1.902-86.87 18.055-6.456 3.54-13.228 6.363-20.015 9.198-3.058 1.28-6.1 2.596-9.145 3.908l-2.967 1.268A88 88 0 0 0 260 204c-7.304.232-7.304.232-11-1-.97-2.122-.97-2.122-2-5a461 461 0 0 0-3.477-7.05l-1-1.997q-1.572-3.135-3.148-6.266l-2.14-4.267Q234.62 173.208 232 168zm-103 88v17h85v-17z"/><path d="M329 393c2.183 1.467 2.183 1.467 4 4 .607 3.132.584 6.22.566 9.402l.02 2.772q.01 2.9-.01 5.797c-.013 2.953.02 5.903.059 8.855q0 2.82-.006 5.639l.04 2.668c-.068 4.475-.22 6.297-3.077 9.924-3.978 2.982-5.725 2.638-10.592 1.943-2.969-2.207-3.829-3.486-5-7-.121-2.818-.188-5.61-.203-8.43l-.017-2.507q-.014-2.625-.02-5.25a980 980 0 0 0-.072-8.012q-.01-2.553-.016-5.106l-.038-2.412c.019-4.602.435-7.515 3.366-11.283 3.555-2.793 6.787-2.053 11-1M227 393c2.644 1.876 2.952 2.857 4 6 .11 2.903.164 5.78.168 8.684l.01 2.581q.007 2.702.007 5.404c.002 2.754.02 5.508.04 8.263q.005 2.624.005 5.252l.022 2.494c-.03 7.34-.03 7.34-2.252 10.322-3.168 2.112-5.132 2.332-8.867 2.559-3.526-.924-4.9-2.718-7.133-5.559-.724-3.181-.678-6.284-.629-9.535l-.007-2.775q0-2.895.04-5.792c.033-2.954.02-5.906 0-8.86q.01-2.819.03-5.636l-.015-2.673c.117-6.116.117-6.116 2.491-9.254 4.098-2.892 7.308-2.592 12.09-1.475M193 393c2.644 1.876 2.952 2.857 4 6 .121 2.818.188 5.61.203 8.43l.017 2.507q.014 2.625.02 5.25c.01 2.671.041 5.341.072 8.012q.01 2.553.016 5.106l.038 2.412c-.024 5.77-1.188 9.105-5.366 13.283-6.935.796-6.935.796-10.596-1.939-3.318-4.225-3.112-7.368-3.033-12.596l-.007-2.775q0-2.895.04-5.792c.033-2.954.02-5.906 0-8.86q.01-2.819.03-5.636l-.015-2.673c.117-6.116.117-6.116 2.491-9.254 4.098-2.892 7.308-2.592 12.09-1.475M295 393c2.183 1.467 2.183 1.467 4 4 .607 3.132.584 6.22.566 9.402l.02 2.772q.01 2.9-.01 5.797c-.013 2.953.02 5.903.059 8.855q0 2.82-.006 5.639l.04 2.668c-.068 4.475-.22 6.297-3.077 9.924-3.978 2.982-5.725 2.638-10.592 1.943-2.969-2.207-3.829-3.486-5-7-.121-2.818-.188-5.61-.203-8.43l-.017-2.507q-.014-2.625-.02-5.25a980 980 0 0 0-.072-8.012q-.01-2.553-.016-5.106l-.038-2.412c.019-4.602.435-7.515 3.366-11.283 3.555-2.793 6.787-2.053 11-1M259 392c2.7 1.8 4.542 3.084 6 6 .111 2.943.164 5.861.168 8.805l.01 2.653q.007 2.781.007 5.563c.002 2.836.02 5.67.04 8.506q.005 2.702.005 5.403l.022 2.57-.01 2.406.005 2.108c-.298 2.396-.965 3.943-2.247 5.986-3.668 2.445-6.735 2.722-11 2-2.431-1.87-3.64-3.281-5-6a233 233 0 0 1-.238-8.77l-.025-2.645q-.02-2.775-.032-5.551a889 889 0 0 0-.105-8.473q-.015-2.696-.026-5.393l-.053-2.554c.015-4.071.155-6.102 2.38-9.624 3.35-3.176 5.523-3.439 10.099-2.99M308.832 306.441c3.552.916 4.921 2.698 7.168 5.559.724 3.181.678 6.284.629 9.535l.007 2.775q0 2.895-.04 5.792c-.033 2.954-.02 5.906 0 8.86q-.01 2.819-.03 5.636l.015 2.673c-.116 6.084-.116 6.084-2.402 9.258-3.098 2.092-5.462 2.406-9.179 2.471-2.767-1.168-4.381-2.125-6.118-4.58-1.311-3.597-1.187-7.167-1.183-10.947l-.013-2.503a906 906 0 0 1-.002-5.232c.003-2.663-.02-5.324-.045-7.986q-.004-2.546-.002-5.092l-.028-2.402c.067-8.115 2.568-13.298 11.223-13.817M262 223c2.743 2.467 3.212 4.595 3.42 8.138q.049 2.523.049 5.046l.023 2.704q.015 2.828.009 5.656c-.001 2.88.04 5.758.085 8.638q.008 2.751.008 5.502l.05 2.601c-.051 4.406-.21 6.165-3.029 9.735-2.793 2.115-4.121 2.98-7.615 2.98-2.983-1.111-5.234-1.962-7.157-4.567-1.273-3.673-1.148-7.336-1.144-11.18l-.013-2.57a955 955 0 0 1-.002-5.373c.003-2.734-.02-5.468-.045-8.203q-.004-2.613-.002-5.228l-.028-2.469c.037-4.626.4-7.648 3.391-11.41 4.327-2.764 7.39-1.878 12 0M209 307c2.969 2.207 3.829 3.486 5 7 .121 2.818.188 5.61.203 8.43l.017 2.507q.014 2.625.02 5.25c.01 2.671.041 5.341.072 8.012q.01 2.553.016 5.106l.038 2.412c-.019 4.602-.435 7.515-3.366 11.283-2.674 2.101-4.043 1.998-7.5 1.875-4.012-1.003-5.111-1.544-7.5-4.875-.607-3.132-.584-6.22-.566-9.402l-.02-2.772q-.01-2.9.01-5.797c.013-2.953-.02-5.903-.059-8.855q0-2.82.006-5.639l-.04-2.668c.068-4.475.22-6.297 3.077-9.924 3.978-2.982 5.725-2.638 10.592-1.943M159 393c3.215 3.112 3.964 6.123 4.145 10.566q.02 2.212.023 4.426l.01 2.373q.007 2.484.007 4.968c.002 2.526.02 5.051.04 7.577q.005 2.416.005 4.832l.022 2.28c-.022 5.065-.411 9-3.94 12.79-3.355 1.724-5.592 1.71-9.312 1.188-2.784-2.008-4.685-3.6-5.46-7.048-.186-2.51-.207-4.971-.169-7.487l-.007-2.775q0-2.895.04-5.792c.033-2.954.02-5.906 0-8.86q.01-2.819.03-5.636l-.015-2.673c.117-6.116.117-6.116 2.491-9.254 4.06-2.865 7.354-2.746 12.09-1.475M342.832 306.441c3.552.916 4.921 2.698 7.168 5.559.724 3.181.678 6.284.629 9.535l.007 2.775q0 2.895-.04 5.792c-.033 2.954-.02 5.906 0 8.86q-.01 2.819-.03 5.636l.015 2.673c-.116 6.084-.116 6.084-2.402 9.258-3.098 2.092-5.462 2.406-9.179 2.471-3.102-1.241-4.538-2.136-6.118-5.092-1.147-3.783-1.187-7.398-1.183-11.314l-.013-2.432a852 852 0 0 1-.002-5.073c.003-2.58-.02-5.16-.045-7.741a2469 2469 0 0 1-.002-4.942l-.028-2.327c.071-8.29 2.73-13.128 11.223-13.638M274.867 306.441c3.515.921 4.901 2.734 7.133 5.559.721 3.097.678 6.112.629 9.281l.007 2.7q0 2.82-.04 5.639c-.033 2.87-.02 5.74 0 8.61q-.01 2.745-.03 5.489l.015 2.592c-.079 4.019-.284 6.197-2.402 9.707C277.153 358.77 275.05 359 271 359c-2.76-1.165-4.375-2.127-6.12-4.564-1.33-3.68-1.165-7.353-1.146-11.217l-.005-2.578q-.002-2.692.01-5.386c.011-2.745 0-5.49-.012-8.235q0-2.62.007-5.239l-.012-2.484c.06-7.312.06-7.312 2.278-10.297 3.168-2.112 5.132-2.332 8.867-2.559M243 307c2.431 1.87 3.64 3.281 5 6 .136 2.931.213 5.837.238 8.77l.025 2.645q.02 2.775.032 5.551c.017 2.825.061 5.649.105 8.473q.015 2.696.026 5.393l.053 2.554c-.015 4.01-.18 6.117-2.29 9.624-3.033 2.758-5.132 2.99-9.189 2.99-3.574-1.588-4.81-2.716-7-6-.197-3-.28-5.903-.266-8.902l-.005-2.65q-.002-2.772.01-5.544c.01-2.827 0-5.653-.012-8.48q0-2.695.007-5.389l-.012-2.56.02-2.397c0-.692.002-1.385.004-2.099.307-2.388.977-3.94 2.254-5.979 3.668-2.445 6.735-2.722 11-2M175 307c2.969 2.207 3.829 3.486 5 7 .121 2.734.188 5.441.203 8.176l.017 2.432q.014 2.55.02 5.097c.01 2.587.04 5.174.072 7.762q.01 2.48.016 4.959l.038 2.33c-.02 4.814-.756 8.048-3.366 12.244-2.644 2.172-4.03 1.999-7.5 1.875-4.012-1.003-5.111-1.544-7.5-4.875-.607-3.132-.584-6.22-.566-9.402l-.02-2.772q-.01-2.9.01-5.797c.013-2.953-.02-5.903-.059-8.855q0-2.82.006-5.639l-.04-2.668c.068-4.475.22-6.297 3.077-9.924 3.978-2.982 5.725-2.638 10.592-1.943M296 223c2.743 2.467 3.212 4.595 3.42 8.138q.049 2.523.049 5.046l.023 2.704q.015 2.828.009 5.656c-.001 2.88.04 5.758.085 8.638q.008 2.751.008 5.502l.05 2.601c-.052 4.43-.201 6.162-3.064 9.735-3.883 2.98-3.883 2.98-6.58 2.98-6.283-2.058-6.283-2.058-8.192-4.567-1.222-3.679-1.113-7.344-1.109-11.18l-.013-2.57a955 955 0 0 1-.002-5.373c.003-2.734-.02-5.468-.045-8.203q-.004-2.613-.002-5.228l-.028-2.469c.037-4.626.4-7.648 3.391-11.41 4.327-2.764 7.39-1.878 12 0M363 393c2.183 1.467 2.183 1.467 4 4 .607 3.132.584 6.22.566 9.402l.02 2.772q.01 2.9-.01 5.797c-.013 2.953.02 5.903.059 8.855q0 2.82-.006 5.639l.04 2.668c-.067 4.416-.245 6.307-2.99 9.928C362 444 362 444 358.5 444.563c-4.044-.65-5.704-1.603-8.5-4.563-1.457-3.846-1.18-7.997-1.203-12.055l-.017-2.36q-.014-2.47-.02-4.938c-.01-2.506-.041-5.012-.072-7.518q-.01-2.404-.016-4.809l-.038-2.254c.02-4.772.857-8.008 3.366-12.066 3.482-2.86 6.822-2.045 11-1M330 223c2.749 2.468 3.21 4.59 3.404 8.138q.039 2.523.03 5.046l.015 2.704q.01 2.828-.003 5.656c-.008 2.88.02 5.758.052 8.638q.003 2.751-.002 5.502l.034 2.601c-.047 4.084-.206 6.196-2.416 9.735-2.539 2.378-3.635 2.98-7.114 2.98-6.407-1.955-6.407-1.955-8.188-5.094-1.054-3.772-1.117-7.393-1.113-11.277l-.013-2.424a847 847 0 0 1-.002-5.06c.003-2.57-.02-5.14-.045-7.71q-.004-2.465-.002-4.931l-.028-2.311c.04-4.78.77-8.044 3.391-12.193 4.264-2.843 7.422-1.865 12 0M379 307c2.784 2.008 4.685 3.6 5.46 7.048.186 2.51.207 4.971.169 7.487l.007 2.775q0 2.895-.04 5.792c-.033 2.954-.02 5.906 0 8.86q-.01 2.819-.03 5.636l.015 2.673c-.116 6.084-.116 6.084-2.402 9.258-3.098 2.092-5.462 2.406-9.179 2.471-2.812-1.062-2.812-1.062-5-3-2.004-4.681-2.294-9.046-2.266-14.066l-.005-2.293q-.002-2.386.01-4.773c.011-2.427 0-4.853-.012-7.28q0-2.328.007-4.654l-.012-2.185c.046-4.969.508-8.848 3.966-12.562 3.355-1.723 5.592-1.71 9.312-1.187M136.5 306.438c4.044.65 5.704 1.602 8.5 4.562 1.418 3.779 1.18 7.818 1.203 11.8l.017 2.287q.014 2.393.02 4.784c.01 2.423.041 4.845.072 7.268q.01 2.331.016 4.662l.038 2.172c-.023 5.137-1.053 8.541-3.366 13.027-2.618 2.244-4.012 2-7.5 1.875-4.012-1.003-5.111-1.544-7.5-4.875-.607-3.132-.584-6.22-.566-9.402l-.02-2.772q-.01-2.9.01-5.797c.013-2.953-.02-5.903-.059-8.855q0-2.82.006-5.639l-.04-2.668c.067-4.416.245-6.307 2.99-9.928C133 307 133 307 136.5 306.437M364 223c2.019 1.583 2.887 2.426 3.388 4.966l.016 2.258.038 2.57-.008 2.765.015 2.85q.01 2.985-.003 5.97c-.008 3.044.02 6.086.052 9.13q.003 2.9-.002 5.8l.034 2.759c-.07 6.307-.07 6.307-2.409 9.483-2.507 1.713-4.084 2.3-7.121 2.449-3.42-.977-5.816-2.16-8-5-1.384-3.906-1.18-7.998-1.203-12.09l-.017-2.368q-.014-2.475-.02-4.95c-.01-2.517-.041-5.034-.072-7.551q-.01-2.409-.016-4.818l-.038-2.27c.02-4.516.6-7.355 3.366-10.953 4.29-3.694 6.908-3.075 12-1M399.813 224.375c2.884 3.947 2.348 8.806 2.355 13.496l.01 2.301q.007 2.404.007 4.809c.002 2.444.02 4.889.04 7.333q.005 2.342.005 4.682l.022 2.204c-.022 4.884-.606 8.605-3.565 12.55-2.265 1.678-3.877 2.05-6.687 2.25-3.474-.992-5.717-2.204-8-5-.388-1.966-.388-1.966-.404-4.224l-.038-2.57.008-2.765-.015-2.85q-.01-2.985.003-5.97c.008-3.044-.02-6.086-.052-9.13q-.003-2.9.002-5.8l-.034-2.759c.07-6.318.07-6.318 2.444-9.483 4.871-3.383 9.128-2.693 13.899.926"/></svg>