<svg xmlns="http://www.w3.org/2000/svg" width="512" height="512"><path d="m265.3 2.133 1.821.945 1.978.977c2.12 1.05 4.23 2.123 6.338 3.195q2.232 1.111 4.465 2.219 4.48 2.222 8.95 4.463c5.516 2.758 11.08 5.417 16.648 8.068a6269 6269 0 0 1 31.145 15.041c8.942 4.34 17.89 8.665 26.855 12.959a6578 6578 0 0 1 31.145 15.041c8.942 4.34 17.89 8.665 26.855 12.959a4641 4641 0 0 1 22.604 10.895q5.308 2.575 10.614 5.157a1652 1652 0 0 0 19.802 9.495l3.492 1.648q3.207 1.512 6.425 3l2.864 1.352 2.474 1.151c2.819 1.65 4.274 2.61 6.225 5.302.62 3.686.539 7.354.508 11.084l.019 3.467c.013 3.176.008 6.35-.004 9.527-.01 3.424.005 6.85.016 10.274.018 6.709.014 13.418.002 20.127a6662 6662 0 0 0-.004 18.705l.004 4.726c.011 14.776-.002 29.552-.023 44.328q-.025 19.026.003 38.051a19304 19304 0 0 1 .014 48.876l-.002 2.34q-.003 8.17.012 16.34.017 9.952-.013 19.907c-.01 3.386-.015 6.773-.001 10.16.01 3.668-.003 7.336-.023 11.004l.027 3.258c-.077 7.194-.077 7.194-2.43 10.436-2.192 1.447-4.328 2.726-6.692 3.873l-2.747 1.347-2.967 1.424-3.113 1.518a3100 3100 0 0 1-9.899 4.79l-6.443 3.135a5311 5311 0 0 1-34.207 16.46 3554 3554 0 0 0-22.443 10.823A5865 5865 0 0 1 374.5 457a6121 6121 0 0 0-29 14 6521 6521 0 0 1-31.938 15.406 3707 3707 0 0 0-20.282 9.797 10531 10531 0 0 0-10.852 5.28 1464 1464 0 0 1-7.86 3.798 414 414 0 0 0-6.706 3.302l-2.839 1.39-2.385 1.2c-6.857 2.15-12.001.736-18.197-2.47l-2.113-1.044c-2.262-1.122-4.514-2.265-6.766-3.409q-2.373-1.184-4.749-2.361-4.74-2.352-9.468-4.722c-5.624-2.813-11.293-5.527-16.97-8.23-9.641-4.612-19.26-9.27-28.875-13.937a6121 6121 0 0 0-29-14 6578 6578 0 0 1-31.145-15.041c-8.942-4.34-17.89-8.665-26.855-12.959a4641 4641 0 0 1-20.5-9.875l-2.104-1.02a10533 10533 0 0 1-10.61-5.155 1691 1691 0 0 0-19.876-9.532l-3.52-1.662q-3.246-1.53-6.503-3.04l-2.883-1.36-2.506-1.168C18 399 18 399 16 396c-.253-2.163-.253-2.163-.257-4.73l-.02-2.967.01-3.267-.014-3.464q-.014-4.767-.01-9.534c0-3.425-.01-6.85-.02-10.276q-.024-10.068-.023-20.138-.002-8.182-.012-16.364a37494 37494 0 0 1-.025-48.895v-2.53c.001-13.531-.018-27.063-.046-40.594q-.043-20.83-.04-41.657c0-7.8-.006-15.599-.027-23.398a4161 4161 0 0 1-.009-19.918c.007-3.389.007-6.778-.01-10.166-.016-3.671-.007-7.34.009-11.011l-.032-3.26c.068-7.2.068-7.2 2.425-10.444 2.133-1.408 4.203-2.663 6.505-3.778l2.625-1.287 2.834-1.357c.983-.479 1.966-.958 2.98-1.45 3.152-1.534 6.31-3.056 9.47-4.578q3.077-1.493 6.154-2.99a5647 5647 0 0 1 33.445-16.079 3615 3615 0 0 0 22.494-10.848A5865 5865 0 0 1 135.5 56a6121 6121 0 0 0 29-14 6553 6553 0 0 1 31.942-15.409q9.002-4.315 17.98-8.677l2.213-1.075q5.382-2.613 10.761-5.234 3.93-1.912 7.872-3.803a403 403 0 0 0 7.324-3.612l3.392-1.667 2.945-1.479c5.972-2.03 10.742-1.646 16.37 1.09m-15.463 16.684-2.461 1.205-2.646 1.326-2.767 1.362a2493 2493 0 0 0-8.776 4.352q-5.726 2.834-11.457 5.66c-.921.457-1.843.912-2.792 1.382A884 884 0 0 1 196 45c2.217 2.44 4.348 3.856 7.297 5.312l2.616 1.302L208.75 53l2.983 1.474c7.6 3.743 15.237 7.41 22.888 11.05 8.605 4.095 17.181 8.25 25.754 12.413A6014 6014 0 0 0 289.5 92a6574 6574 0 0 1 31.145 15.041 6193 6193 0 0 0 29.802 14.37 3843 3843 0 0 1 20.103 9.707q5.337 2.591 10.67 5.189 3.931 1.913 7.875 3.8a335 335 0 0 1 8.021 4q2 1 4.001 1.998l1.83.973c3.068 1.507 4.725 1.991 8.105 1.28L414 147l2.947-1.322 3.104-1.514 3.522-1.71 3.74-1.829q3.892-1.896 7.785-3.79l1.986-.967c4.437-2.159 8.888-4.285 13.35-6.391l3.485-1.651q3.284-1.554 6.574-3.093l2.96-1.405 2.599-1.222c2.105-.956 2.105-.956 2.948-3.106-11.816-5.964-23.668-11.837-35.62-17.523-8.605-4.096-17.182-8.25-25.755-12.415A6014 6014 0 0 0 378.5 75a6574 6574 0 0 1-31.145-15.041 6223 6223 0 0 0-29.806-14.372 4703 4703 0 0 1-22.181-10.716q-7.396-3.592-14.797-7.173a3480 3480 0 0 1-8.628-4.188 1576 1576 0 0 0-7.256-3.51l-1.97-.97c-4.835-2.305-8.079-2.594-12.88-.213m-77.828 38.019-2.487 1.213-2.686 1.326-2.75 1.345a5050 5050 0 0 0-8.711 4.28l-5.898 2.89A9896 9896 0 0 0 135 75c2.64 2.78 5.136 4.21 8.617 5.863l3.483 1.666q1.888.893 3.775 1.783l3.924 1.874q4.077 1.947 8.157 3.887c6.195 2.948 12.368 5.94 18.544 8.927l7.25 3.5 3.625 1.75 1.812.875 94.25 45.5 29.642 14.308 20.265 9.777C341 176 341 176 342.92 177.235c4.507 1.657 8.864-.01 13.056-1.893a353 353 0 0 0 4.294-2.123l2.31-1.132c2.415-1.187 4.824-2.387 7.232-3.587q2.456-1.21 4.913-2.418Q381.874 162.563 389 159v-2a45409 45409 0 0 0-18.817-9.222q-3.184-1.56-6.367-3.122a4049 4049 0 0 0-39.55-19.14 2978 2978 0 0 1-19.672-9.496A5865 5865 0 0 0 273.5 101a6135 6135 0 0 1-29-14 7161 7161 0 0 0-35.441-17.094 2827 2827 0 0 1-13.086-6.312l-3.502-1.695q-3.342-1.618-6.68-3.244l-3.006-1.452-2.66-1.292c-3.417-1.465-4.905-.65-8.116.925m-69.165 32.71-2.966 1.473c-3.135 1.56-6.256 3.145-9.378 4.731q-3.056 1.531-6.113 3.059-4.576 2.283-9.145 4.579C64.569 108.748 53.794 113.89 43 119c2.126 2.32 4.097 3.725 6.923 5.094l2.386 1.167 2.582 1.239 2.69 1.31q4.332 2.101 8.669 4.19l5.972 2.897a4693 4693 0 0 0 31.465 15.134c8.25 3.926 16.47 7.916 24.688 11.906A6197 6197 0 0 0 157.5 176l5.918 2.844a3525 3525 0 0 0 13.036 6.225q4.559 2.171 9.11 4.356 2.23 1.065 4.463 2.123c2.085.987 4.164 1.984 6.243 2.983l1.884.883c3.574 1.734 6.32 3.496 8.846 6.586.612 3.672.487 5.288-1.625 8.375-3.167 2.167-4.55 2.032-8.375 1.625-3.182-1.165-6.164-2.675-9.184-4.207l-2.677-1.322c-2.864-1.417-5.72-2.85-8.577-4.284q-2.964-1.47-5.93-2.938a5901 5901 0 0 1-11.564-5.737 1017 1017 0 0 0-17.193-8.325c-9.106-4.328-18.18-8.72-27.25-13.125a6076 6076 0 0 0-32.056-15.464 2693 2693 0 0 1-18.167-8.79l-4.5-2.193q-3.315-1.615-6.628-3.238-3.074-1.507-6.153-3.006l-3.58-1.752C39.772 135.896 35.88 134.455 32 133v255l25 12c4.854 2.35 9.707 4.698 14.557 7.056A6014 6014 0 0 0 102.5 422a6578 6578 0 0 1 31.145 15.041c8.942 4.34 17.89 8.665 26.855 12.959a6156 6156 0 0 1 29 14c13.815 6.705 27.64 13.389 41.5 20l2.479 1.185q3.226 1.538 6.458 3.065l3.465 1.64c2.434 1.24 2.434 1.24 4.598 1.11V237l-16-8c-6-4-6-4-7-5-.462-6.23-.462-6.23 1.125-8.875 2.84-1.704 4.501-2.017 7.875-2.125 4.638 1.753 8.943 4.223 13.3 6.572l2.731 1.4 2.455 1.321c5.916 1.664 12.575-3.16 17.823-5.758l2.681-1.315q4.226-2.075 8.447-4.158 4.218-2.075 8.437-4.146 2.62-1.287 5.236-2.578c14.575-7.165 14.575-7.165 19.89-6.338 2.375 1.625 2.375 1.625 4 4 .5 3 .5 3 0 6-3.376 4.37-8.14 6.278-13.008 8.59l-2.668 1.292c-2.813 1.36-5.63 2.708-8.449 4.055l-5.617 2.71a3177 3177 0 0 1-7.977 3.84c-5.793 2.778-11.532 5.639-17.281 8.513v254c7.634-2.52 7.634-2.52 14.758-5.75l3.106-1.575 3.261-1.675q3.5-1.774 7.004-3.543l3.52-1.779c4.776-2.391 9.588-4.7 14.413-6.99 9.46-4.496 18.891-9.05 28.313-13.626A6008 6008 0 0 1 367.5 442a6121 6121 0 0 0 29-14 6489 6489 0 0 1 31.934-15.404q9.076-4.351 18.128-8.752l2.242-1.09q5.474-2.658 10.944-5.324l4.033-1.961 3.565-1.737c4.184-1.983 8.422-3.851 12.654-5.732V133c-9.337 4.085-18.555 8.13-27.668 12.645l-3.057 1.502a6303 6303 0 0 0-9.463 4.665q-4.789 2.362-9.58 4.72-2.956 1.454-5.91 2.914l-2.694 1.327-2.35 1.16c-2.393 1.12-4.817 2.109-7.278 3.067l-.011 3.542a8804 8804 0 0 1-.173 33.019c-.04 5.659-.072 11.317-.087 16.976-.015 5.46-.05 10.919-.097 16.378a930 930 0 0 0-.024 6.254c-.002 2.916-.03 5.832-.062 8.748l.015 2.62c-.102 5.86-.102 5.86-2.452 8.947-2.254 1.62-4.433 2.866-6.949 4.04l-2.93 1.385-3.168 1.466q-3.368 1.583-6.734 3.168l-3.592 1.685c-3.895 1.838-7.762 3.733-11.627 5.635l-3.937 1.93q-2.88 1.409-5.75 2.833a984 984 0 0 1-5.371 2.636l-3.104 1.53c-3.046 1.249-5.67 1.919-8.947 2.208-4.565-2.13-4.565-2.13-6-5a243 243 0 0 1-.205-8.672l-.03-2.72q-.046-4.464-.081-8.928l-.063-6.18q-.082-8.143-.153-16.285-.077-8.305-.161-16.61-.162-16.302-.307-32.605-4.57-2.414-9.142-4.824l-2.6-1.373c-5.902-3.11-11.84-6.101-17.883-8.928q-2.915-1.38-5.828-2.762l-3.143-1.49c-6.61-3.152-13.192-6.36-19.779-9.56A5962 5962 0 0 0 252.5 150a6128 6128 0 0 1-29-14 6550 6550 0 0 0-29.25-14.125q-12.229-5.86-24.441-11.753l-5.402-2.602a1917 1917 0 0 1-18.059-8.804 4075 4075 0 0 0-9.025-4.444 975 975 0 0 1-4.35-2.16 954 954 0 0 0-6.09-3.007l-3.52-1.745c-8.435-3.41-12.787-1.796-20.52 2.187m283.918 87.884-2.175 1.061q-3.452 1.688-6.9 3.384a5568 5568 0 0 1-6.866 3.362q-2.139 1.046-4.274 2.097A153 153 0 0 1 356 192v78a21655 21655 0 0 0 40-19v-77c-3.384 0-6.252 1.955-9.238 3.43"/><path d="M60 306c3.804 1.538 7.455 3.356 11.125 5.188l6.676 3.269 3.537 1.745c3.767 1.854 7.547 3.678 11.33 5.497l5.77 2.775a2692 2692 0 0 1 12.268 5.927q3.345 1.623 6.71 3.205l3.252 1.558 2.895 1.366c2.601 1.57 3.897 2.869 5.437 5.47.411 3.29.324 5.294-1.062 8.313-2.773 2.415-5.356 2.894-8.938 2.687-3.645-1.195-6.972-2.93-10.375-4.687q-3.085-1.537-6.172-3.07l-3.217-1.623c-5.254-2.63-10.56-5.15-15.861-7.683l-6.23-3q-6.142-2.946-12.32-5.812l-2.946-1.375a770 770 0 0 0-5.508-2.541l-2.46-1.15-2.153-.99C50 320 50 320 48 317c-.335-3.017-.56-5.098 0-8 3.6-4.472 6.804-4.435 12-3M59 341c2.863.928 5.506 2.205 8.2 3.543l2.295 1.107q2.388 1.16 4.767 2.339a635 635 0 0 0 7.287 3.529q2.325 1.135 4.65 2.275l2.191 1.049c4.195 2.104 7.084 4.043 9.61 8.158 0 3.78-.167 6.007-2.625 8.938-3.754 1.679-7.399 1.713-11.33.419-2.131-.925-4.204-1.926-6.28-2.97l-2.302-1.122q-2.395-1.173-4.78-2.363a801 801 0 0 0-7.32-3.595 3165 3165 0 0 1-4.66-2.295l-2.206-1.08c-6.237-3.13-6.237-3.13-8.497-5.932-.755-6.792-.755-6.792 1.563-10.5 3.387-2.085 5.48-1.823 9.437-1.5"/></svg>