<svg xmlns="http://www.w3.org/2000/svg" width="512" height="512"><path d="m233.688 80.734 5.377-.005q5.608-.005 11.215.01c4.76.012 9.521.005 14.282-.007q5.544-.009 11.088 0 2.631.003 5.262-.005c17.24-.036 34.36.946 47.584 13.574C334.04 100.564 344 113.093 344 122l1.746-.02c6.085-.067 12.17-.112 18.255-.145q3.39-.022 6.781-.061c25.931-.293 49.099 2.257 68.84 20.824 15.912 16.07 22.012 35.181 21.909 57.303l-.013 2.546q.008 2.7.02 5.402c.019 4.845.012 9.69 0 14.535-.01 5.098-.001 10.196.005 15.293q.01 12.835-.022 25.671c-.021 9.859-.014 19.717.008 29.575q.026 12.753.01 25.505c-.006 5.06-.007 10.122.006 15.183q.017 7.142-.02 14.283-.007 2.603.006 5.205c.103 22.217-6.096 40.903-21.77 57.233-21.509 20.665-47.959 20.976-76.033 20.927l-7.884.01c-6.363.01-12.725.007-19.087.002q-7.764-.007-15.528-.003h-2.243l-4.512.003q-21.092.006-42.185-.012-18.053-.012-36.107.002a34968 34968 0 0 1-46.545.007l-2.232-.001q-7.746-.003-15.49.006-10.444.008-20.89-.01a2754 2754 0 0 0-7.638.002c-26.06.041-48.713-1.51-69.387-19.265l-1.797-1.508c-12.157-11.097-20.554-28.886-21.395-45.222-.108-4.679-.102-9.357-.099-14.036q-.008-2.7-.02-5.399c-.017-4.87-.022-9.74-.024-14.61q-.001-4.576-.01-9.148-.028-15.987-.026-31.973c.002-9.902-.02-19.804-.051-29.707a7928 7928 0 0 1-.036-25.58c0-5.082-.005-10.163-.026-15.245q-.029-7.177-.005-14.356.003-2.618-.015-5.235c-.09-13.843 1.594-26.667 8.066-39.168l1.02-1.997C63.337 151.847 68.27 146.4 74 141l2.398-2.27c15.458-13.428 35.109-16.93 54.98-16.828l3.19.005c3.332.005 6.663.018 9.994.03q3.407.009 6.815.014 8.311.017 16.623.049l.892-2.774c5.339-15.541 14.602-27.246 29.483-34.538 11.28-4.464 23.393-3.986 35.313-3.954m-38.097 32.889c-3.762 5.62-6.407 11.846-9.228 17.973l-1.496 3.142-1.309 2.845c-1.893 2.936-3.435 3.876-6.558 5.417-2.868.372-2.868.372-6.053.369l-3.633.02-3.908-.018q-2.028.01-4.055.026c-5.719.04-11.437.041-17.156.039-3.507 0-7.014.02-10.521.05-1.959.01-3.918-.002-5.877-.015-15.354.126-28.571 5.064-39.918 15.494-9.611 10.41-13.987 23.34-14.02 37.32l-.008 2.155c-.01 2.372-.01 4.743-.012 7.115l-.015 5.117q-.019 6.939-.024 13.879l-.012 8.683q-.02 13.6-.027 27.202-.007 15.667-.05 31.335a9653 9653 0 0 0-.034 24.263q0 7.236-.025 14.471-.023 6.814-.01 13.627.002 2.489-.013 4.978c-.094 16.591 2.521 32.55 14.406 45.085 9.288 8.531 21.123 14.912 33.948 14.94l2.983.013h3.254l3.474.01q4.77.014 9.537.017 5.145.007 10.29.022c8.284.02 16.566.03 24.85.039l11.713.015a51808 51808 0 0 0 49.062.044l2.537.002c13.551.008 27.103.033 40.654.066q20.887.049 41.776.054c7.813.002 15.627.01 23.44.036q9.984.034 19.969.02 5.088-.007 10.176.017c3.689.018 7.377.01 11.067-.002l3.2.033c14.042-.12 26.99-5.319 37.383-14.783 9.999-10.519 14.759-23.644 14.792-38.022l.01-2.156q.01-3.558.011-7.115l.015-5.117q.019-6.939.024-13.879l.012-8.683q.02-13.6.027-27.202.007-15.667.05-31.335.034-12.132.034-24.263 0-7.236.025-14.471.023-6.814.01-13.627-.002-2.489.013-4.978c.1-17.614-3.099-33.4-15.691-46.566-12.326-10.69-25.863-13.769-41.887-13.73q-2.007-.014-4.013-.033c-4.91-.043-9.821-.054-14.732-.066-3.502-.01-7.005-.025-10.507-.056a740 740 0 0 0-7.843-.024l-3.592-.03-3.143-.006c-3.524-.45-5.924-1.563-8.963-3.379-1.656-2.4-1.656-2.4-2.93-5.227l-1.472-3.128-1.473-3.27c-4.882-10.778-9.43-19.665-20.643-24.517-3.892-1.346-7.52-1.425-11.607-1.391-.863-.01-1.726-.018-2.615-.027-2.825-.022-5.65-.016-8.475-.006q-2.97-.009-5.943-.02-6.211-.014-12.424.01a1601 1601 0 0 1-15.86-.042c-4.087-.022-8.175-.02-12.263-.012q-2.923 0-5.845-.02c-13.196-.086-23.986.204-32.86 11.273"/><path d="m317 183 2.828 2.121c22.383 17.537 33.889 41.127 38.86 68.691 2.74 27.116-4.56 54.795-21.688 76.188-16.999 20.468-39.83 34.78-66.457 38.684-27.971 2.498-56.008-3.263-78.355-21.059A264 264 0 0 1 187 343c-.84-.76-1.68-1.519-2.547-2.3-19.616-18.612-30.103-43.636-31.676-70.505-.661-29.044 9.796-55.54 29.688-76.629C217.556 157.761 276.843 152.656 317 183m-88 6-3.195 1.063c-19.847 7.461-35.916 23.656-44.621 42.808C173.187 251.6 171.339 274.826 179 294c9.635 22.713 24.662 38.723 47.355 48.563C234.31 345.7 242.468 347.51 251 348l2.402.16c23.034.797 43.552-8.257 60.296-23.745 14.739-14.31 23.2-34.171 23.775-54.572.18-21.898-5.396-41.454-20.473-57.843l-2.234-2.512c-14.007-14.944-33.083-23.79-53.547-24.738-11.363-.35-21.433.662-32.219 4.25"/></svg>