<svg xmlns="http://www.w3.org/2000/svg" width="512" height="512"><path d="m255.688-.312 2.931.005C272.952-.262 286.898.247 301 3l2.718.488c47.545 8.603 90.55 31.084 126.071 63.524a111 111 0 0 0 5.399 4.55c2.925 2.536 5.346 5.22 7.847 8.165 2.152 2.49 4.4 4.873 6.652 7.273 30.164 33.22 49.609 75.678 58.625 119.375l.447 2.154c2.986 15.642 3.616 31.278 3.553 47.159l-.005 2.931c-.045 14.333-.554 28.279-3.307 42.381l-.488 2.718c-8.603 47.545-31.084 90.55-63.524 126.071a111 111 0 0 0-4.55 5.399c-2.536 2.925-5.22 5.346-8.165 7.847-2.49 2.152-4.873 4.4-7.273 6.652-33.22 30.164-75.678 49.609-119.375 58.625l-2.154.447c-15.642 2.986-31.278 3.616-47.158 3.553l-2.932-.005c-14.333-.045-28.279-.554-42.381-3.307l-2.718-.488c-47.545-8.603-90.55-31.084-126.071-63.524a111 111 0 0 0-5.398-4.55c-2.926-2.536-5.347-5.22-7.848-8.165-2.152-2.49-4.4-4.873-6.653-7.273-30.163-33.22-49.608-75.678-58.624-119.375l-.447-2.154C.255 287.83-.375 272.193-.312 256.313l.005-2.932C-.262 239.048.247 225.102 3 211l.488-2.718c8.603-47.545 31.084-90.55 63.524-126.071a111 111 0 0 0 4.55-5.398c2.536-2.926 5.22-5.347 8.165-7.848 2.49-2.152 4.873-4.4 7.273-6.653 33.22-30.163 75.678-49.608 119.375-58.624l2.154-.447C224.17.255 239.807-.375 255.688-.312M130 81l-3.125 2.258c-47.132 35.002-76.306 87.019-84.988 144.73-1.16 9.101-1.285 18.16-1.262 27.325l.003 2.654C40.774 302.643 54.403 345.924 81 382l2.258 3.125c35.002 47.132 87.019 76.306 144.73 84.988 9.101 1.16 18.16 1.285 27.325 1.262l2.654-.003C302.643 471.226 345.924 457.597 382 431l3.125-2.258c47.132-35.002 76.306-87.019 84.988-144.73 1.16-9.101 1.285-18.16 1.262-27.324l-.003-2.655C471.226 209.357 457.597 166.076 431 130l-2.258-3.125c-35.002-47.132-87.019-76.306-144.73-84.988-9.101-1.16-18.16-1.285-27.324-1.262l-2.655.003C209.357 40.774 166.076 54.403 130 81"/><path d="M369.531 173.45c3.977 4.198 6.234 9.805 6.469 15.55-.958 13.26-12.884 22.174-21.725 30.984l-3.846 3.856c-3.46 3.47-6.926 6.932-10.394 10.394q-5.454 5.448-10.902 10.904a23954 23954 0 0 1-18.3 18.29q-10.575 10.561-21.133 21.137a21769 21769 0 0 1-18.177 18.181q-5.424 5.42-10.842 10.846a5646 5646 0 0 1-10.192 10.182q-1.869 1.865-3.732 3.734a1592 1592 0 0 1-5.11 5.098l-1.476 1.491c-6.064 5.995-11.676 9.272-20.171 9.903-8.775-.744-14.672-6.372-20.584-12.31l-1.905-1.889a2224 2224 0 0 1-6.175-6.164l-4.318-4.305q-4.515-4.505-9.022-9.02a4328 4328 0 0 0-11.554-11.52q-4.459-4.438-8.904-8.892a1781 1781 0 0 0-4.26-4.244 1396 1396 0 0 1-5.952-5.958l-1.77-1.747c-5.411-5.48-9.281-10.978-9.556-18.951.511-7.438 3.525-12.058 9-17 4.488-3.264 8.644-3.377 14.023-3.496 9.89 1.648 16.008 9.003 22.696 15.824q1.663 1.675 3.328 3.346c2.903 2.917 5.793 5.847 8.68 8.779 2.956 2.997 5.924 5.982 8.89 8.969A6911 6911 0 0 1 220 293c6.443-5.303 12.279-11.165 18.148-17.083l3.339-3.352q3.578-3.593 7.151-7.19 5.658-5.69 11.324-11.371a33504 33504 0 0 0 32.188-32.326q8.895-8.946 17.806-17.876 5.63-5.642 11.242-11.302 3.498-3.52 7.009-7.028a923 923 0 0 0 3.232-3.255c10.755-10.881 23.685-20.286 38.092-8.768"/></svg>