<svg xmlns="http://www.w3.org/2000/svg" width="512" height="512"><path d="m84.38 9.869 3.771-.012q2.053 0 4.105.003l4.391-.01q6.022-.01 12.043-.01 6.5-.005 12.998-.016 14.207-.02 28.415-.024l17.754-.012q24.596-.019 49.19-.026h6.365l6.392-.002h3.202q25.67-.009 51.338-.046 26.378-.035 52.754-.037 14.8.001 29.6-.025 12.606-.023 25.213-.012c4.283.004 8.566.003 12.85-.011q5.895-.019 11.792 0a558 558 0 0 0 4.238-.01C444.209 9.484 464.14 16.447 481 33c.701.677 1.402 1.354 2.125 2.05 13.548 14.051 19.035 33.201 19.015 52.347l.01 2.807q.01 4.641.011 9.282l.015 6.67q.019 9.05.024 18.1l.012 11.322q.019 15.701.026 31.402v4.06l.003 6.119q.008 16.357.045 32.714.035 16.83.037 33.66 0 9.435.025 18.87.023 8.885.01 17.769-.002 3.246.013 6.493c.112 25.85-4.666 47.285-23.371 66.335-.677.701-1.354 1.402-2.05 2.125-13.294 12.818-32.033 19.134-50.294 18.926l-2.139-.02q-2.304-.02-4.61-.05c-3.38-.041-6.762-.07-10.143-.101l-5.462-.051c-11.72-.112-23.44-.142-35.16-.176-11.392-.033-22.783-.092-34.174-.232q-13.598-.17-27.196-.155c-4.787.004-9.57-.019-14.356-.112-26.553-.922-26.553-.922-49.158 11.628a220 220 0 0 0-4.17 4.182c-3.535 3.447-7.56 6.198-11.588 9.036-6.732 4.916-13.38 9.934-20 15a1321 1321 0 0 1-22.336 16.71c-5.94 4.363-11.812 8.81-17.664 13.29a1321 1321 0 0 1-22.336 16.71c-5.94 4.363-11.812 8.81-17.664 13.29a1474 1474 0 0 1-27.413 20.454 221 221 0 0 0-4.26 3.238l-2.112 1.64-1.868 1.476c-3.34 2.155-5.877 2.256-9.847 2.192-3.54-1.202-5.43-2.375-7.938-5.125-2.197-5.947-.4-11.597 2.146-17.133q1.456-2.941 2.954-5.861l1.626-3.256c1.463-2.922 2.939-5.837 4.42-8.75 1.548-3.054 3.081-6.115 4.616-9.176a5770 5770 0 0 1 8.744-17.34c3.33-6.579 6.642-13.167 9.954-19.755A18520 18520 0 0 1 130 375l-1.873-.018c-6.507-.064-13.013-.149-19.52-.244q-3.63-.05-7.259-.084C73.925 374.387 51.376 371.007 31 351l-2.125-2.05C15.327 334.898 9.84 315.748 9.86 296.602l-.01-2.807q-.01-4.641-.011-9.282l-.015-6.67q-.019-9.05-.024-18.1l-.012-11.322q-.019-15.701-.026-31.402v-4.06l-.003-6.119q-.008-16.357-.045-32.714-.035-16.83-.037-33.66 0-9.435-.025-18.87a4161 4161 0 0 1-.01-17.769q.002-3.246-.013-6.493C9.517 71.485 14.295 50.05 33 31l2.05-2.125C48.055 16.337 66.488 9.889 84.38 9.869M50 46l-1.898 1.652C37.099 57.862 32.837 71.388 32 86c-.19 6.822-.147 13.648-.145 20.472l-.01 6.197q-.014 8.38-.012 16.761-.002 5.247-.006 10.492-.014 18.33-.012 36.66-.001 17.04-.026 34.08-.019 14.67-.018 29.34.002 8.742-.013 17.487-.014 8.229-.003 16.459.003 3.003-.007 6.008C31.692 299.87 32.005 318.343 46 334l1.652 1.898C57.546 346.56 70.796 351.06 85 352c4.561.118 9.12.137 13.683.138 3.826.004 7.653.036 11.48.061 4.843.03 9.686.053 14.53.051q5.91.002 11.821.062 2.243.015 4.484.005c2.088-.01 4.172.011 6.26.04l3.589.01c4.297.862 5.702 1.995 8.153 5.633 1.36 6.99-.545 12.518-3.78 18.63l-1.216 2.42c-1.318 2.607-2.663 5.2-4.008 7.794q-1.386 2.728-2.765 5.458a2650 2650 0 0 1-7.295 14.28 5296 5296 0 0 0-11.691 22.939c-1.361 2.673-2.733 5.34-4.107 8.007l-2.488 4.876-1.173 2.254c-.886 1.751-1.691 3.544-2.477 5.342l1 2 1.35-1.063c9.336-7.333 18.748-14.535 28.329-21.543 5.995-4.394 11.92-8.875 17.821-13.394a1320 1320 0 0 1 22.336-16.71c5.94-4.363 11.811-8.81 17.664-13.29 8.84-6.762 17.7-13.51 26.772-19.958a102 102 0 0 0 5.866-4.751c9.73-8.182 17.007-9.873 29.499-9.6a945 945 0 0 0 5.14-.025c4.609-.02 9.214.025 13.822.083 4.85.048 9.698.032 14.547.023 9.177-.009 18.353.037 27.53.103 13.444.096 26.888.112 40.332.126l5.982.006 2.953.003q8.625.01 17.252.07 5.385.031 10.77.051 2.475.013 4.95.037c18.662.178 35.572-1.196 50.085-14.168l1.898-1.652c11.541-10.71 15.575-25.328 16.195-40.642.037-2.286.045-4.57.04-6.856l.008-2.617q.007-4.295.004-8.591l.01-6.197q.013-8.388.012-16.774.001-5.25.006-10.498.013-18.34.012-36.68.001-17.051.026-34.102.019-14.676.018-29.351-.002-8.75.013-17.498.014-8.235.003-16.471-.003-3.008.007-6.014C480.308 84.14 479.998 65.661 466 50l-1.652-1.898C454.438 37.423 441.214 32.977 427 32c-4.698-.138-9.392-.14-14.092-.134l-4.228-.007q-5.775-.008-11.55-.004-6.24-.002-12.482-.01-12.216-.012-24.43-.012-9.934 0-19.868-.006-28.192-.014-56.386-.012h-6.138q-24.633-.002-49.265-.023-25.32-.023-50.641-.02-14.205.001-28.408-.014-12.095-.015-24.188-.005-6.164.007-12.327-.005-5.655-.011-11.311.002c-1.991.003-3.983-.005-5.974-.013C78.358 31.803 63.268 34.14 50 46"/><path d="M164.824 162.68c8.499 5.157 12.982 11.573 16.488 20.757 1.76 9.12 1.072 17.887-3.753 25.981C172.309 216.69 165.704 221.66 157 224c-11.397 1.016-20.156.11-29.25-7.25-6.166-5.736-10.222-12.568-11.086-21.047-.125-11.053 1.787-18.816 9.477-26.95 10.327-9.741 25.629-12.348 38.683-6.073M140 187c-1.194 3.933-1.448 5.963.188 9.75 2.945 3.657 4.478 5.08 9.25 5.688 4.113-.506 5.667-1.543 8.562-4.438 1.6-3.202 1.5-6.526 1-10-1.794-2.81-3.019-4.51-6-6-6.085-.702-8.907.42-13 5M378.047 162.676C386.536 168.43 392.185 175.03 395 185c1.212 10.534-.274 19.854-6.832 28.383-5.532 5.913-12.393 10.286-20.61 10.855-11.455.312-20.149-1.084-28.804-9.25-6.35-7.198-9.256-15.84-8.996-25.379.811-8.74 4.06-15.38 10.242-21.609 10.312-8.375 25.779-11.997 38.047-5.324M354 186c-1.6 3.202-1.5 6.526-1 10 1.794 2.81 3.019 4.51 6 6 4.458.514 6.501.305 10.375-2.062 3.127-3.5 3.708-5.275 3.625-9.938-1.576-3.649-3.467-6.136-7-8-5.487-.698-8.091.091-12 4M271.89 162.742c8.344 4.975 13.538 11.864 16.11 21.258.789 8.85.96 17.298-4 25l-1.32 2.14C278 218.046 272 221.8 264 224c-8.85.789-17.298.96-25-4l-2.14-1.32C229.953 214 226.202 208 224 200c-.999-11.1-.35-20.734 6.75-29.812 10.298-11.027 27.546-13.97 41.14-7.446M248 185c-2.328 3.215-2.397 6.108-2 10 1.277 2.81 2.311 4.501 4.813 6.313 4.048 1.272 7.067 1.196 10.937-.563 2.419-1.881 3.338-2.848 4.25-5.75.493-4.632-.13-7.31-3-11-4.984-3.61-10.35-2.617-15 1"/></svg>