<svg xmlns="http://www.w3.org/2000/svg" width="512" height="512"><path d="M328.884 85.16c2.704 1.073 4.185 2.525 6.248 4.578l2.47 2.434 2.68 2.69 2.845 2.819c2.572 2.55 5.136 5.111 7.697 7.674q3.207 3.204 6.42 6.404a8293 8293 0 0 1 15.128 15.112 5259 5259 0 0 0 15.641 15.588q6.721 6.675 13.417 13.378 3.999 4.006 8.02 7.992c2.985 2.96 5.95 5.939 8.915 8.92l2.712 2.672c.8.812 1.6 1.624 2.426 2.46l2.132 2.13C427 182 427 182 426.764 183.922c-.87 2.367-1.846 3.536-3.623 5.315l-1.856 1.88-2.058 2.037-2.171 2.185c-2.413 2.425-4.836 4.838-7.259 7.252q-2.592 2.599-5.183 5.2a7202 7202 0 0 1-12.657 12.658q-5.153 5.143-10.299 10.294l-1.48 1.481-2.975 2.978a29824 29824 0 0 1-27.946 27.93 19836 19836 0 0 0-23.935 23.937 28844 28844 0 0 1-30.776 30.786l-1.477 1.476q-5.135 5.132-10.263 10.271a6796 6796 0 0 1-13.86 13.846q-2.54 2.534-5.072 5.076c-19.55 19.62-33.37 25.55-60.882 27.914-3.59.31-7.175.643-10.762.98-10.351.945-20.682 1.781-31.082 1.848l-2.28.025c-7.49-.058-12.42-2.2-17.911-7.123-7.244-7.572-8.147-14.073-8.064-24.306.17-6.148.676-12.248 1.244-18.37l.367-4.024q.387-4.178.785-8.354c.335-3.533.647-7.067.953-10.602.244-2.763.505-5.523.77-8.283.181-1.924.344-3.85.507-5.776 2.14-21.36 15.416-32.542 29.794-46.864l4.285-4.28q4.587-4.582 9.178-9.16 7.266-7.247 14.525-14.502a95625 95625 0 0 1 30.824-30.772 92804 92804 0 0 0 33.304-33.25q7.21-7.203 14.427-14.4 4.494-4.483 8.982-8.968 2.075-2.073 4.152-4.141c9.123-9.042 9.123-9.042 17.713-18.585 3.744-4.42 7.923-8.47 11.985-12.594l1.423-1.48a454 454 0 0 1 4.15-4.242c.815-.834 1.63-1.668 2.468-2.528C327 85 327 85 328.884 85.161"/><path d="m101.958 68.86 3.543-.018 3.845-.003 4.081-.015q5.526-.019 11.052-.024 3.455-.005 6.91-.012 10.819-.02 21.637-.027 12.474-.007 24.948-.05 9.655-.034 19.31-.034 5.76 0 11.523-.025 5.417-.023 10.834-.01c1.953.002 3.905-.012 5.858-.026 6.74.032 11.929.126 17.146 4.884 4.23 5.432 5.151 9.76 4.355 16.5-1.816 5.323-5.138 8.31-10 11-3.08 1.027-5.191 1.13-8.419 1.138-1.125.005-2.25.01-3.41.017l-3.745.003-5.992.023q-3.224.011-6.447.018c-4.485.01-8.97.031-13.455.053-12.755.062-25.51.116-38.264.15q-10.565.027-21.13.087c-3.723.021-7.447.037-11.17.04-4.163.002-8.325.027-12.488.054l-3.702-.009c-14.196.138-25.11 4.286-35.45 14.008-8.282 8.602-13.44 20.13-13.46 32.17l-.011 2.826.003 3.079-.01 3.291q-.01 5.47-.011 10.939l-.015 7.835q-.02 10.653-.024 21.305l-.012 13.313q-.019 18.442-.026 36.886V253l-.002 4.793v2.401q-.009 19.246-.046 38.493-.035 19.777-.037 39.555.001 11.098-.025 22.195a5630 5630 0 0 0-.01 20.888q.002 3.826-.013 7.653c-.013 3.492-.007 6.984.004 10.476l-.025 3.032c.095 13.744 4.236 26.205 13.705 36.389 15.418 14.051 33.034 13.707 52.682 13.627q3.951.005 7.902.016c6.388.014 12.775.007 19.163-.009 7.45-.017 14.9-.013 22.35-.01 13.299.006 26.597-.008 39.896-.032q19.324-.036 38.65-.021a22936 22936 0 0 0 46.67-.006l2.236-.002q7.777-.006 15.555.001 10.478.007 20.955-.027 3.838-.008 7.678 0c3.5.005 7.001-.007 10.502-.024l3.048.018c12.982-.115 25.97-4.19 35.4-13.406 10.298-11.807 13.307-23.839 13.255-39.174l.017-6.01q.006-3.21.002-6.419c-.002-4.472.012-8.944.03-13.417q.068-19.068.077-38.138.006-10.548.055-21.095.03-6.66.012-13.32c-.004-3.418.02-6.836.038-10.253l-.025-3.7c.068-6.953.725-11.594 4.539-17.474 5.273-4.197 9.295-5.447 16-5 5.866 1.82 8.55 4.129 12 9 1.035 3.106 1.133 5.266 1.147 8.523l.022 3.483.008 3.825.02 4.026c.021 4.415.031 8.83.041 13.245l.013 4.574q.029 10.764.041 21.527.015 12.372.077 24.743.044 9.59.048 19.18c.002 3.81.011 7.618.036 11.426.237 37.436.237 37.436-8.265 52.948l-1.039 1.986c-2.844 5.292-6.217 9.973-10.149 14.514l-1.805 2.402C409.267 475.7 389.483 483.725 370 486c-3.66.144-7.316.144-10.978.14l-3.322.01q-5.505.01-11.01.011l-7.9.015q-10.73.02-21.46.024-6.711.005-13.421.012-18.608.019-37.214.026h-4.813l-7.254.003q-19.391.008-38.783.045-19.945.035-39.891.037-11.184-.001-22.368.025-9.53.023-19.059.012-4.851-.007-9.703.011c-28.698.105-52.43-3.746-74.074-24.059C28.2 440.728 25.538 415 25.612 386.561q-.007-3.97-.016-7.94c-.013-6.406-.01-12.813-.002-19.22q.01-7.818.005-15.637l-.002-2.259q0-2.273-.003-4.544c-.008-14.163.001-28.326.018-42.489q.018-18.18-.003-36.36a23642 23642 0 0 1-.01-46.876l.001-2.248q.003-7.8-.009-15.597-.013-9.52.01-19.04.013-4.845.001-9.69c-.064-27.29 3.26-50.864 22.511-71.802 14.199-13.993 33.619-23.94 53.845-24M452.923 42.297a307 307 0 0 1 6.651 6.57 376 376 0 0 0 5.067 5.002c13.117 13.013 21.115 27.827 21.859 46.631-.7 18.792-9.026 32.971-21.5 46.5l-1.804 1.958a453 453 0 0 1-5.634 5.917l-1.79 1.896c-1.706 1.721-1.706 1.721-4.772 4.229-3.722-.211-5.572-2.192-8.132-4.738l-2.47-2.434-2.68-2.69-2.845-2.819c-2.572-2.55-5.136-5.111-7.697-7.674q-3.207-3.204-6.42-6.404a8293 8293 0 0 1-15.128-15.112 5259 5259 0 0 0-15.641-15.588q-6.721-6.675-13.417-13.378-3.999-4.006-8.02-7.992c-2.985-2.96-5.95-5.939-8.915-8.92l-2.712-2.672c-.8-.812-1.6-1.624-2.426-2.46l-2.132-2.13C351 64 351 64 351.182 61.866c1.087-2.48 2.556-3.993 4.466-5.913l2.281-2.3 2.446-2.403 2.487-2.456c25.237-24.596 61.929-32.385 90.06-6.497"/></svg>