<svg xmlns="http://www.w3.org/2000/svg" width="512" height="512"><path d="M197.101-.147 200.3-.17l3.508-.008 3.697-.02c4.05-.02 8.098-.031 12.147-.041l4.192-.013q9.858-.029 19.716-.041 11.345-.015 22.69-.077 8.788-.044 17.576-.048c3.492-.002 6.985-.011 10.477-.036 3.908-.028 7.816-.024 11.724-.017l3.454-.039c13.526.087 24.13 4.592 33.964 13.798 10.744 11.17 13.954 23.654 13.68 38.773l-.027 2.913A897 897 0 0 1 357 62l2.494-.027q11.715-.12 23.43-.18c4.015-.021 8.029-.05 12.043-.095 3.883-.044 7.767-.067 11.651-.078q2.208-.01 4.414-.043c15.173-.216 28.497 2.81 39.995 13.267 10.004 10.682 13.692 22.718 13.282 37.05-.594 10.551-4.632 19.066-11.309 27.106l-1.586 1.96c-5.4 6.034-12.812 9.506-20.414 12.04l-.002 1.937a90841 90841 0 0 1-.206 127.494l-.005 2.751c-.031 14.678-.048 29.356-.06 44.034a23514 23514 0 0 1-.082 45.224q-.038 13.938-.036 27.877-.001 9.574-.041 19.149a1700 1700 0 0 0-.014 11.027c.055 24.467-1.534 45.54-19.656 63.843-11.678 10.734-25.48 15.984-41.18 15.931l-3.06.014c-3.37.013-6.74.011-10.11.01q-3.632.008-7.265.02-8.832.023-17.665.023-7.187.002-14.373.012-20.408.026-40.817.025h-4.442c-11.876-.001-23.751.018-35.627.046q-18.323.043-36.647.04c-6.85 0-13.698.005-20.548.027q-9.67.029-19.34.005-3.536-.003-7.074.015c-20.897.1-36.636-2.35-52.43-17.152-12.127-12.29-18.71-27.857-18.836-45.194l.035-3.496-.01-3.836c-.01-3.469.007-6.937.027-10.406.017-3.757.011-7.514.008-11.271q-.002-9.743.033-19.484c.033-9.39.043-18.78.048-28.17q.015-22.859.073-45.716.056-22.191.082-44.383l.003-2.768.016-13.747c.041-37.96.112-75.92.201-113.881l-1.875-.606-2.458-.805-2.437-.793C68.898 148.536 63.399 143.993 59 139l-1.457-1.633c-8.883-10.75-10.786-22.678-9.782-36.187 1.371-12.496 8.415-22.485 17.848-30.426 11.36-8.334 22.657-9.047 36.266-8.95l4.607.01c4.018.007 8.035.026 12.053.049 4.11.02 8.219.03 12.328.04q12.069.032 24.137.097l-.026-2.093c-.034-3.158-.055-6.316-.076-9.473l-.04-3.293c-.066-13.233 3.605-22.934 12.58-32.829L170 12l1.445-1.457c6.63-6.326 16.478-10.647 25.656-10.69M185 32c-7.523 9.644-5 16.281-5 30h152c1.202-17.531 1.202-17.531-6.312-30.75-8.471-7.092-16.33-7.4-27.054-7.395l-3.088-.01q-5.032-.013-10.066-.013l-7.027-.01q-7.36-.009-14.72-.007c-6.27 0-12.541-.014-18.812-.031q-7.257-.015-14.514-.013a2436 2436 0 0 1-6.933-.013c-3.24-.01-6.48-.007-9.72 0-.944-.007-1.888-.012-2.86-.018C200.848 23.787 192.4 24.788 185 32M76.188 96.29C72.55 101.53 72.248 106.765 73 113c1.796 6.098 5.62 10.661 11 14 4.1 1.579 7.513 2.251 11.898 2.257l3.524.02 3.843-.01 4.105.014c3.754.012 7.508.012 11.263.01 4.051 0 8.102.01 12.153.02q11.903.023 23.806.023 9.675.001 19.351.012 27.437.026 54.873.025h5.979c15.998-.001 31.997.018 47.995.046q24.645.043 49.288.04c9.223 0 18.446.006 27.669.027q11.778.029 23.557.009c4.005-.006 8.01-.007 12.015.01q5.505.024 11.01-.004c1.949-.004 3.898.01 5.848.027 7.821-.062 14.713-.775 20.695-6.235 4.968-5.287 6.642-10.802 6.437-17.99-.885-6.595-4.441-10.93-9.43-15.074-4.146-2.707-7.776-3.477-12.688-3.484l-3.54-.02-3.878.01-4.13-.014c-3.78-.012-7.562-.012-11.343-.01-4.079 0-8.157-.01-12.236-.02q-11.985-.023-23.971-.023-9.742-.001-19.485-.012-27.618-.026-55.238-.025h-6.02c-16.109.001-32.218-.018-48.326-.046q-24.81-.043-49.618-.04c-9.286 0-18.572-.006-27.858-.027q-11.859-.028-23.718-.009c-4.034.007-8.067.007-12.1-.01q-5.542-.023-11.083.004c-1.965.004-3.93-.01-5.896-.027-9.736.076-16.405 1.882-22.563 9.815M106 154l-.125 146.25-.055 46.18c-.007 13.66-.007 13.66-.01 27.32q-.004 9.126-.021 18.253-.02 10.533-.016 21.066c.001 3.59 0 7.18-.011 10.77a2610 2610 0 0 0-.003 11.557l-.017 3.36c.057 15.038 2.246 27.915 12.887 39.045 9.519 8.829 20.167 10.356 32.757 10.333l2.803.007q4.635.007 9.269.004l6.659.01q9.035.013 18.068.012 5.648.001 11.296.006 18.698.013 37.394.012h4.07q16.327.002 32.655.023 16.79.023 33.58.02 9.415-.001 18.831.014 8.86.014 17.72.003 3.243-.003 6.488.007c23.415.42 23.415.42 43.531-10.377 9.297-10.066 11.557-20.997 11.49-34.182l.006-3.755q.002-5.142-.014-10.282c-.009-3.701-.006-7.402-.004-11.102q.001-9.612-.017-19.223c-.016-9.265-.021-18.529-.024-27.793a46584 46584 0 0 0-.036-45.094q-.028-21.9-.041-43.8l-.002-2.756-.012-21.337c-.019-34.85-.059-69.7-.096-104.551z"/><path d="M333 186c3.24 2.565 4.696 4.087 6 8 .1 3.063.143 6.103.14 9.166l.01 2.878q.01 4.795.011 9.59l.015 6.859q.019 9.33.024 18.663.004 5.827.012 11.653.019 16.132.026 32.265v4.176l.003 6.297q.007 16.857.045 33.713.035 17.306.037 34.613a7501 7501 0 0 0 .025 19.434q.023 9.138.01 18.278-.002 3.355.013 6.712c.013 3.052.007 6.104-.004 9.156l.025 2.688c-.047 5.863-.877 10.344-5.204 14.671-3.867 2.1-6.953 2.44-11.25 1.563-3.48-1.629-5.484-3.43-7.938-6.375-.9-2.732-1.126-5.219-1.131-8.083l-.012-2.451.003-2.676-.01-2.856q-.01-4.749-.011-9.498l-.015-6.8q-.019-9.244-.024-18.49l-.012-11.546q-.019-15.987-.026-31.974v-2.066l-.002-6.226v-2.082a19238 19238 0 0 0-.046-33.403q-.035-17.15-.037-34.3 0-9.63-.025-19.257-.023-9.054-.01-18.108.002-3.325-.013-6.649c-.013-3.024-.007-6.047.004-9.07l-.025-2.663c.04-5.018.625-8.446 3.392-12.802 4.902-4.442 9.807-4.608 16-3M191 186c4.237 3.155 5.69 5.97 7 11 .279 3.112.274 6.207.26 9.33.005.931.008 1.863.012 2.822.01 3.116.007 6.232.003 9.348q.007 3.353.015 6.707c.014 6.07.014 12.14.012 18.21q0 7.602.008 15.202c.012 12.637.011 25.275.005 37.912-.006 10.968.006 21.937.025 32.905q.03 16.905.024 33.81c-.002 6.324 0 12.648.014 18.973q.019 8.92-.002 17.84-.004 3.273.009 6.546c.01 2.98.002 5.958-.01 8.938l.022 2.614c-.058 6.449-1.047 11.43-5.71 16.218-3.126 1.89-5.027 2.552-8.687 2.625-5.207-1.616-8.153-3.343-11-8-.578-3.178-.536-6.305-.501-9.527l-.017-2.923c-.014-3.234.001-6.468.016-9.702q-.005-3.477-.016-6.953c-.014-6.298-.003-12.595.014-18.893.013-6.585.007-13.17.003-19.756q-.002-16.59.034-33.179.036-17.067.021-34.134-.019-20.57.006-41.138.007-7.857 0-15.713-.005-9.248.028-18.497.008-3.397 0-6.796c-.005-3.087.007-6.174.024-9.262l-.018-2.728c.048-4.75.292-7.96 3.406-11.799 4.885-3.49 9.379-3.69 15-2M262 186c2.706 2.198 4.448 3.896 6 7 .107 3.06.152 6.099.154 9.16l.013 2.912c.014 3.242.02 6.483.026 9.724l.025 6.947c.026 7.622.041 15.244.055 22.866l.017 7.862a33828 33828 0 0 1 .062 43.31c.013 11.39.046 22.78.088 34.17q.063 17.538.071 35.074c.004 6.565.016 13.13.048 19.696q.044 9.262.025 18.526 0 3.402.025 6.804a745 745 0 0 1-.001 9.281l.042 2.726c-.054 4.288-.315 7.076-3.063 10.476-3.405 3.246-5.913 4.342-10.587 4.466-5.213-1.477-8.098-3.424-11-8-.85-2.73-1.126-5.185-1.129-8.036l-.01-2.42.005-2.64-.007-2.82q-.007-4.686-.004-9.373l-.01-6.711q-.013-9.124-.012-18.248-.002-7.612-.008-15.224-.012-16.93-.01-33.86v-4.107q-.002-16.483-.023-32.966-.023-16.928-.02-33.854.001-9.503-.014-19.004-.014-8.936-.003-17.872.003-3.281-.007-6.562c-.008-2.984-.003-5.968.005-8.953l-.016-2.627c.035-6.108.556-10.754 4.7-15.536 4.574-3.904 8.967-3.65 14.563-2.187"/></svg>