<svg xmlns="http://www.w3.org/2000/svg" width="512" height="512"><path d="m193.591-.29 3.985-.04 4.287-.006 4.428-.02q4.635-.017 9.272-.015c3.944 0 7.888-.027 11.832-.061 3.048-.022 6.096-.026 9.144-.025q2.18-.005 4.36-.027C248.859-.561 255.146-.43 262 4l2.688 1.687c5.38 5.382 8.143 11.788 8.426 19.36l-.016 3.348-.01 3.642-.025 3.775-.014 3.834Q273.03 44.323 273 49l2.874.907c3.097 1.083 4.553 1.978 6.814 4.28l1.699 1.668c4.773 6.346 5.116 12.383 5.3 20.082l.104 2.94q.123 3.56.209 7.123l3.75.262C341.1 89.943 381.816 108.194 416 141l2.5 2.375c13.357 12.986 23.675 28.316 32.5 44.625l1.809 3.328c19.366 37.093 21.393 76.343 18.546 117.277l-.516 7.58a16159 16159 0 0 1-1.092 15.904q-.825 11.955-1.64 23.909-1.176 17.21-2.378 34.416a4198 4198 0 0 0-1.358 20.23 5239 5239 0 0 1-.77 11.614q-.171 2.61-.332 5.22c-1.656 26.836-8.927 48.628-29.206 67.272-14.713 12.386-32.186 17.737-51.194 17.638l-3.805.016c-3.445.014-6.891.01-10.337.003-3.731-.005-7.463.008-11.194.018-7.295.017-14.59.018-21.884.013q-8.898-.006-17.796.002l-2.565.003-5.16.004c-16.103.014-32.206.009-48.309-.003-14.711-.01-29.423.003-44.134.027q-22.7.037-45.397.027-12.728-.007-25.456.017-10.832.022-21.664-.002c-3.68-.009-7.36-.011-11.039.004-4 .017-7.999.002-11.998-.016l-3.478.03c-16.777-.152-31.064-6.969-42.923-18.61-11.255-12.044-17.056-27.664-16.758-44.058.73-17.632 7.714-32.697 20.645-44.84C69.062 397.003 79.32 393.508 91 390q-.463-6.313-.937-12.625l-.264-3.605-.264-3.497-.238-3.205c-.296-3.056-.756-6.046-1.297-9.068l-3 1c-11.853.951-21.106-.4-30.375-8.125-6.504-6.266-10.108-13.408-10.828-22.418-.207-11.667 2.81-19.687 10.797-28.145 6.746-6.364 13.841-8.543 23.031-8.562 2.126.063 4.251.14 6.375.25l-.437-3.582c-6.235-55.901-1.927-124.879 34.187-170.711 15.404-18.533 15.404-18.533 23.672-22.242 3.963-1.83 6.607-3.239 9.578-6.465 1.437-5.187 1.14-10.479.945-15.809-.197-7.84 2.177-14.052 7.504-19.75C162.525 50.583 164.77 49 169 49l-.08-2.595a801 801 0 0 1-.195-9.673 307 307 0 0 0-.102-4.16c-.315-10.246.645-17.98 7.44-26.01L178 5l1.938-1.625c4.48-2.986 8.31-3.63 13.653-3.666M185 20c-2.848 8.544-1 17.994-1 27h74c1.444-19.9 1.444-19.9-3-29-3.55-2.925-6.36-3.383-10.888-3.42l-3.52-.048h-3.776l-3.903-.024q-4.084-.019-8.168-.009c-3.478.006-6.955-.025-10.433-.065-3.332-.032-6.664-.028-9.996-.028l-3.769-.05c-6.917.056-10.969.203-15.547 5.644m-17 48v18h106c1.267-15.211 1.267-15.211-2-21-3.978-2.652-7.453-2.303-12.074-2.306l-2.814-.026a1619 1619 0 0 0-9.23-.04l-6.407-.026q-6.722-.025-13.442-.028c-5.743-.005-11.485-.043-17.227-.088-4.413-.03-8.826-.037-13.239-.038a808 808 0 0 1-6.351-.038 668 668 0 0 0-8.883-.01l-2.652-.044-2.455.03-2.12-.007c-2.978.695-2.978.695-7.106 5.621m-41.619 63.646c-28.622 43.702-31.583 98.227-28.506 148.916l.119 2.035c.48 12.912.48 12.912 6.701 23.75 5.1 6.46 6.74 14.3 6.086 22.348-.702 4.85-1.72 8.504-4.406 12.617-3.548 6.009-2.848 11.943-2.375 18.688l.202 3.095c.717 14.038.717 14.038 2.798 27.905 7.82 2.73 7.82 2.73 16 3 4.852-2.658 7.853-7.605 11-12l2.146-1.707c2.66-3.29 2.13-6.112 1.756-10.11l-.39-5.43-.25-3.173c-.299-4.085-.535-8.17-.762-12.26a1705 1705 0 0 0-1.41-22.43c-.302-4.379-.585-8.758-.827-13.14-.238-4.3-.523-8.594-.84-12.889a233 233 0 0 1-.285-4.869c-.24-4.86-.559-9.367-2.138-13.992-3.082-2.764-6.097-3.805-10-5-2.437-2.063-2.437-2.063-4-4l-1.625-1.938c-4.507-6.76-4.047-14.254-3.375-22.062 1.913-6.834 6.504-11.608 12.5-15.25 3.032-1.516 5.223-2.189 8.5-2.75l.288-1.781c5.322-32.39 5.322-32.39 14.712-44.219l1.363-1.852c8.102-10.36 21.13-16.758 33.965-18.863 18.036-1.925 33.339 1.944 47.73 13.082 9.535 8.534 13.881 19.61 18.112 31.35 18.226 50.161 54.655 87.607 101.74 111.814 17.844 9.18 29.247 18.238 36.215 37.594 4.597 15.105 1.76 32.535.563 48.062l-.179 2.441c-1.198 16.134-3.882 31.092-16.325 42.595-12.914 10.51-26.939 12.38-42.996 12.527q-2.37.042-4.737.09c-3.817.073-7.633.123-11.451.16l-.55 3.265-.762 4.317-.358 2.143c-1.564 8.716-5.82 15.77-10.33 23.275q17.877.106 35.755.155c5.536.016 11.07.037 16.606.071 5.35.033 10.698.05 16.048.059q3.05.008 6.099.032c19.933.153 36.002-2.745 51.492-16.317l1.863-1.613c15.667-14.555 19.037-34.43 20.396-54.753l.296-4.093c.266-3.661.519-7.324.768-10.987q.32-4.642.65-9.283.775-11 1.526-22.003.767-11.196 1.57-22.39.694-9.726 1.363-19.454.394-5.757.808-11.514c1.171-16.308 1.953-32.55 1.964-48.903l.005-2.227c.008-11.18-.65-21.884-3.209-32.78l-.504-2.289C446.562 207.631 431.484 180.342 410 157l-1.522-1.66C386.529 131.717 358.008 115.416 327 107l-2.18-.605c-22.561-6.11-46.364-5.732-69.562-5.801l-5.985-.026q-8.288-.036-16.575-.046-10.623-.014-21.247-.102a2260 2260 0 0 0-16.61-.066q-4.925-.001-9.848-.05a845 845 0 0 0-10.942-.017l-3.218-.056c-18.413.204-34.695 17.06-44.452 31.415M160 193c-7.534 10.278-13.518 27.023-12 40 1.95 1.406 3.96 2.73 6 4 5.863 6 8.107 11.585 8.5 19.875-.206 7.105-2.387 12.776-7.25 18.008-2.906 2.592-5.76 4.405-9.25 6.117.683 16.396 1.858 32.754 3.102 49.115.284 3.75.558 7.5.83 11.25q.32 4.37.656 8.737.158 2.078.305 4.154c.137 1.919.287 3.836.437 5.754l.246 3.296c.265 2.91.265 2.91 2.424 5.694l2.09-.805 2.848-1.07 2.777-1.055c18.927-6.166 39.804-4.477 57.66 4.18 6.153 3.276 11.45 7.097 16.625 11.75l1.887 1.605C247.314 392.185 252.4 404.377 257 416l3.75-.125c14.5.113 27.665 4.688 38.281 14.809 4.654 5.475 7.78 11.92 10.969 18.316q6.775.112 13.55.165 2.298.022 4.596.061c14.146.236 24.155-1.114 34.764-11.007 9.072-9.4 9.854-21.115 10.673-33.515.166-2.502.354-5.002.546-7.503 1.399-18.857 2.384-35.173-9.816-50.889-5.89-6.399-14.453-9.961-22.117-13.801C325.509 324.132 310.03 314.384 296 302l-1.52-1.337c-28.215-24.979-49.173-56.515-61.112-92.374C229.616 197.266 222.84 189.23 213 183c-18.422-8.997-39.02-5.19-53 10m-32 56c-1.976 2.492-2.023 4.18-2.437 7.375.58 4.81 2.05 6.239 5.437 9.625 3.206 1.603 6.521 1.487 10 1 3.4-2.07 5.918-4.105 7-8 0-5.228-.118-7.036-3.687-10.938-6.709-4.176-10.143-3.452-16.313.938m-64.875 64.875c-3.68 5.41-4.589 9.553-3.664 15.95 1.367 5.518 4.973 9.057 9.539 12.175 4.176 2.257 8.338 2.68 13 2 6.206-1.912 9.934-5.329 13-11 1.736-5.209 2.104-10.376-.059-15.516C91.672 312.133 88.09 308.735 82 307c-7.338-1.356-13.932 1.367-18.875 6.875M141 396l-2.285 2.086c-2.049 1.858-2.049 1.858-1.715 4.914 1.563 1.667 1.563 1.667 3.625 3.25 9.788 8.308 9.788 8.308 10.883 12.863.176 3.22-.11 5.36-2.07 7.95-3.775 1.451-5.58 1.245-9.438-.063-1.877-2.08-3.436-4.298-5.059-6.582-6.804-8.475-18.218-13.608-28.8-15.219-13.34-.846-25.237 2.533-35.801 10.91-9.592 9.031-15.219 19.876-15.743 33.045-.22 13.993 3.92 24.646 13.4 35.033 9.006 8.727 19.898 12.92 32.295 12.96l2.194.011q3.63.015 7.263.019l5.214.02c5.704.02 11.408.031 17.111.041l5.9.013q13.859.029 27.717.041 15.978.015 31.957.077 12.363.044 24.727.048c4.918.002 9.837.011 14.756.036q6.945.035 13.89.018 2.541 0 5.081.02c12.591.096 22.365-1.158 31.851-10.14 6.655-7.645 9.417-15.675 9.254-25.671-.756-9.79-5.024-16.845-12.125-23.47-7.585-6.146-15.196-7.81-24.867-7.562-6.514.713-11.765 3.104-16.902 7.102-2.68 2.052-3.463 2.27-7.063 2.75-3.25-.5-3.25-.5-5.187-1.563-1.783-3.25-1.68-5.3-1.063-8.937 3.222-3.89 7.6-6.6 12-9-1.794-13.513-10.453-23.591-20.512-32.133-25.722-19.136-58.218-14.7-80.488 7.133"/><path d="M365.25 152.773c5.253 3.684 10.04 7.884 14.75 12.227l2.832 2.582c24.505 23.383 44.004 60.862 45.27 95.172-.307 8.283-3.4 15.836-8.739 22.195-6.453 5.972-14.622 9.055-23.363 9.051-7.746-.856-14.317-3.64-21.25-7.063l-3.056-1.49C353.78 276.566 338.434 264.725 324 251l-2.07-1.875c-19.397-18.18-33.069-43.977-40.992-69.063l-.907-2.794c-3.215-10.766-3.29-21.154 1.969-31.268 4.36-6.619 10.313-11.175 17.887-13.605 22.325-4.168 47.264 8.333 65.363 20.378m-68.5-.398c-3.95 5.925-3.925 9.78-2.75 16.625.856 3.414 1.926 6.732 3.063 10.062l.94 2.772C305.81 204.177 318.976 222.744 335 240l1.633 1.797c13.564 14.313 38.113 33.122 57.992 36.672 5.36.07 8.825-.538 12.969-4.067 3.456-3.447 4.611-6.118 4.906-10.965-.916-30.881-18.975-61.655-39.5-83.437l-1.887-2.082c-14.682-15.605-40.35-29.772-61.988-31.168-5.28.088-8.727 1.774-12.375 5.625M319 350c7.339 5.341 12.088 10.786 14.75 19.438L334 372l.191 1.918c.434 7.9-1.946 15.535-6.691 21.894-6.337 6.543-14.125 9.548-23.125 9.875-9.463-.425-16.503-3.765-22.906-10.742-5.041-6.677-6.9-14.15-6.285-22.418 1.315-8.773 5.972-15.84 12.914-21.308 8.983-5.756 21.498-6.343 30.902-1.219m-23 15c-3.96 4.388-5.305 6.989-5.219 12.973.514 4.759 3.752 7.993 7.219 11.027 5.062 1.687 8.734 1.515 13.688-.5 4.019-2.592 6.184-5.863 7.312-10.5.072-4.227-.85-7.494-3.426-10.867-5.88-5.65-12.555-6.918-19.574-2.133"/></svg>