<svg xmlns="http://www.w3.org/2000/svg" width="512" height="512"><path d="m248.997-.508 3.722-.034 4.074.024q2.149-.008 4.297-.02c3.889-.02 7.777-.012 11.665 0 4.07.01 8.138.001 12.207-.005q10.248-.01 20.498.022c7.9.021 15.8.014 23.7-.008q10.174-.026 20.348-.01c4.05.006 8.102.007 12.153-.006q5.713-.017 11.425.02 2.097.008 4.194-.006c1.908-.01 3.816.006 5.723.023l3.236.005C389.694.127 390.85 1.275 393 4c1.452 3.994 1.172 5.611-.559 9.523-2.791 5.356-6.16 10.33-9.503 15.352-4.614 6.998-9.168 14.012-13.5 21.187-5.724 9.469-11.671 18.79-17.63 28.11a8609 8609 0 0 0-8.933 14.015l-1.76 2.766a7449 7449 0 0 0-15.647 24.72 22670 22670 0 0 1-8.955 14.18q-3.867 6.12-7.724 12.249l-1.605 2.548-3 4.77a502 502 0 0 1-7.358 11.353l-1.612 2.412L294 169l3.8.018q17.724.086 35.447.218c6.075.044 12.15.084 18.224.11q8.793.04 17.584.117 3.355.025 6.712.035c3.131.01 6.262.037 9.394.07l2.807-.005c4.83.071 8.11.296 12.032 3.437 2.195 2.694 1.994 4.192 1.875 7.727-.675 4.864-2.95 7.477-6.25 10.96l-3.293 3.657-1.689 1.843c-2.514 2.774-4.923 5.634-7.33 8.5l-1.38 1.63a691 691 0 0 0-8.37 10.12c-4.412 5.419-8.956 10.716-13.512 16.012-6.245 7.261-12.447 14.557-18.488 21.988-4.412 5.419-8.956 10.716-13.512 16.012-6.245 7.261-12.447 14.557-18.488 21.988-4.412 5.419-8.956 10.716-13.512 16.012-6.245 7.261-12.447 14.557-18.488 21.988-4.412 5.419-8.956 10.716-13.512 16.012-6.245 7.261-12.447 14.557-18.488 21.988-4.412 5.419-8.956 10.716-13.512 16.012-6.245 7.261-12.447 14.557-18.488 21.988-4.412 5.419-8.956 10.716-13.512 16.012-6.245 7.261-12.447 14.557-18.488 21.988-4.412 5.419-8.956 10.716-13.512 16.012-6.245 7.261-12.447 14.557-18.488 21.988-4.96 6.092-10.073 12.048-15.208 17.992q-1.807 2.098-3.605 4.204l-1.875 2.18-1.57 1.832c-2.341 2.432-4.424 2.59-7.68 2.73-3.521-.051-4.34-.146-7.187-2.438-2.178-4.449-2.15-7.82-.597-12.435 1.281-3.115 2.645-6.183 4.034-9.252q1.667-3.786 3.328-7.574l.909-2.062c3.564-8.106 6.969-16.279 10.377-24.452q1.725-4.134 3.452-8.266l4.712-11.28q5.109-12.224 10.228-24.443l5.623-13.43 1.126-2.69 6.72-16.064a15748 15748 0 0 1 26.931-64.067A6887 6887 0 0 0 206 274l-3.27.013q-15.25.062-30.501.09-7.84.015-15.681.048-7.568.032-15.134.039-2.887.005-5.773.021c-2.696.015-5.391.017-8.087.016l-2.41.022c-5.645-.021-9.332-.58-13.519-4.437-1.752-3.032-1.799-4.332-1.207-7.706 1.235-4.467 3.45-8.52 5.535-12.64l1.578-3.177q2.164-4.347 4.348-8.686c1.569-3.124 3.126-6.255 4.685-9.384a8651 8651 0 0 1 9.186-18.364q3.74-7.458 7.468-14.922l1.073-2.147 2.157-4.317a35432 35432 0 0 1 19.095-38.152 28867 28867 0 0 0 18.523-37.025 44215 44215 0 0 1 22.314-44.626l1.07-2.137q3.73-7.453 7.453-14.91 4.536-9.085 9.092-18.161 2.326-4.63 4.638-9.267 2.507-5.024 5.033-10.038l1.472-2.969 1.374-2.713c.386-.773.773-1.545 1.172-2.34 3.092-5.005 5.435-6.63 11.313-6.639M253 18c-7.78 14.724-7.78 14.724-15.34 29.554l-1.375 2.745q-2.215 4.426-4.426 8.854l-3.226 6.447a36258 36258 0 0 0-8.657 17.314l-5.413 10.825-.912 1.825-1.836 3.671a132564 132564 0 0 0-17.11 34.225q-7.34 14.685-14.684 29.369a129422 129422 0 0 0-19.827 39.649l-6.313 12.624q-4.236 8.467-8.466 16.937-1.556 3.115-3.116 6.23-2.116 4.23-4.228 8.462l-1.265 2.523c-1.93 3.234-1.93 3.234-2.806 6.746l3.39.011q15.803.056 31.606.173c5.417.04 10.833.072 16.25.087 5.226.015 10.452.05 15.678.097q2.993.023 5.985.024c2.793.002 5.583.03 8.375.062l2.507-.015c3.568.065 5.79.27 8.756 2.333 2.128 3.263 1.63 5.112 1.025 8.824-.93 3.913-2.365 7.499-3.974 11.177l-1.058 2.498c-1.148 2.706-2.313 5.405-3.477 8.104q-1.226 2.877-2.448 5.756-2.539 5.976-5.091 11.946c-3.517 8.238-6.966 16.504-10.416 24.77q-2.8 6.703-5.608 13.403l-2.25 5.375-4.5 10.75-1.125 2.687-2.252 5.38q-2.796 6.676-5.588 13.354c-3.514 8.4-7.033 16.799-10.57 25.19q-2.507 5.948-5.008 11.899-1.196 2.836-2.394 5.672-1.661 3.93-3.313 7.865l-.989 2.327A100 100 0 0 0 153 449c7.39-7.152 14.022-14.962 20.484-22.95 2.945-3.57 5.973-7.062 9.016-10.55a563 563 0 0 0 13.191-15.691c3.228-3.927 6.551-7.77 9.87-11.62a467 467 0 0 0 8.877-10.627c4.142-5.104 8.443-10.058 12.763-15.013 3.924-4.511 7.733-9.102 11.498-13.748 3.679-4.478 7.471-8.857 11.25-13.25 6.226-7.24 12.412-14.51 18.426-21.926 4.167-5.122 8.487-10.1 12.825-15.075 3.922-4.51 7.73-9.097 11.491-13.741 3.228-3.927 6.551-7.77 9.87-11.62a467 467 0 0 0 8.877-10.627c4.142-5.104 8.443-10.058 12.763-15.013 3.924-4.511 7.733-9.102 11.498-13.748 3.679-4.478 7.471-8.857 11.25-13.25 4.72-5.487 9.4-11.006 14.051-16.551l1.303-1.553q1.854-2.22 3.697-4.447l2.125-2.563c1.838-2.39 3.346-4.842 4.875-7.437l-3.807-.018q-17.747-.086-35.492-.218a6151 6151 0 0 0-18.247-.11q-8.802-.04-17.604-.117-3.361-.025-6.722-.035c-3.135-.01-6.268-.037-9.402-.07l-2.819.005c-6.266-.092-6.266-.092-9.448-1.804-2.342-2.622-2.523-4.095-2.459-7.633 2.97-7.445 7.51-14.115 11.938-20.75l4.023-6.105 2.046-3.103c3.062-4.674 6.063-9.386 9.056-14.105l1.74-2.741 3.472-5.475q4.294-6.77 8.6-13.534l1.735-2.726c5.126-8.055 10.275-16.097 15.424-24.137q6.561-10.246 13.091-20.512l1.713-2.692q4.438-6.977 8.865-13.96l3.672-5.785 1.767-2.785a554 554 0 0 1 11.6-17.543c1.433-1.93 1.433-1.93 1.258-4.047z"/></svg>