<svg xmlns="http://www.w3.org/2000/svg" width="512" height="512"><path d="M193.125 69.375q2.261.6 4.523 1.195c17.917 4.757 35.769 9.763 53.628 14.73l2.137.595c.714.2 1.429.398 2.165.603a17041 17041 0 0 0 59.732 16.476q10.198 2.797 20.393 5.601l2.904.799 11.565 3.18c11.127 3.06 22.256 6.111 33.39 9.143a9769 9769 0 0 1 20.285 5.548 3020 3020 0 0 0 11.683 3.185q5.385 1.456 10.763 2.943c1.895.52 3.794 1.029 5.693 1.536 13.774 3.834 24.879 8.785 32.327 21.341 7.665 15.024 3.735 29.842-.598 45.238q-.674 2.442-1.346 4.884a3901 3901 0 0 1-3.664 13.188c-1.296 4.648-2.58 9.3-3.864 13.95q-3.248 11.748-6.511 23.49a14288 14288 0 0 0-9.81 35.531l-3.966 14.41c-3.811 13.849-7.625 27.697-11.474 41.536a2234 2234 0 0 0-4.277 15.646c-.968 3.577-1.948 7.151-2.93 10.725q-.69 2.528-1.364 5.061C410.93 393.354 406.833 404.632 395 413q-2.63 1.275-5.312 2.438c-3.81 1.746-5.316 2.968-6.875 6.875l-.836 2.351c-1.747 4.178-4.814 7.167-7.977 10.336l-1.656 1.691c-6.861 6.457-15.918 9.426-25.257 9.44l-2.936.012-3.201-.003-3.42.01q-5.683.01-11.367.011l-8.14.015q-11.068.02-22.135.024-6.914.005-13.827.012-19.152.019-38.302.026h-2.476l-7.458.002h-2.494q-19.995.009-39.99.046-20.541.035-41.081.037-11.528-.001-23.056.025-9.817.023-19.636.012-5.005-.006-10.01.011c-3.625.013-7.249.007-10.873-.004l-3.168.025c-11.765-.08-21.113-3.352-29.716-11.466-6.311-6.684-10.91-14.533-10.935-23.933l-.014-2.4v-2.618l-.01-2.796q-.015-4.648-.019-9.296l-.02-6.658c-.021-7.295-.031-14.59-.041-21.885l-.013-7.537a34047 34047 0 0 1-.046-41.527c-.008-10.905-.033-21.81-.066-32.714q-.049-16.81-.054-33.62c-.002-6.287-.011-12.574-.036-18.862q-.035-8.878-.018-17.756 0-3.251-.02-6.502c-.094-15.745.803-28.013 12.374-39.728 9.886-9.15 20.625-11.455 33.844-11.29l2.647.01c2.75.01 5.5.035 8.251.061q2.823.016 5.645.027 6.864.035 13.73.098l.328-1.773c1.296-6.761 2.968-13.372 4.79-20.008l.904-3.316q.942-3.45 1.89-6.898c.96-3.493 1.909-6.99 2.858-10.485q.922-3.37 1.847-6.739l.847-3.129c3.952-14.275 9.036-25.425 22.161-33.468 12.854-6.406 25.152-4.436 38.5-.809M156 92c-3.707 6.574-5.702 13.262-7.672 20.523l-.992 3.584q-1.029 3.727-2.046 7.458c-1.043 3.82-2.097 7.638-3.153 11.455a13181 13181 0 0 0-2.953 10.725l-.87 3.198c-.255.93-.51 1.861-.771 2.82-.622 2.177-.622 2.177-.543 4.237l3.324.007q40.076.089 80.152.229 19.38.07 38.76.11 16.897.034 33.793.103 8.942.037 17.885.049 8.427.01 16.852.056 3.084.014 6.168.011c15.289-.009 29.81.238 41.843 11.029 8.613 9.291 11.533 20.883 11.501 33.233l.018 2.548c.017 2.79.02 5.582.023 8.373l.03 6.034c.028 5.441.043 10.883.056 16.324.015 5.694.042 11.387.068 17.08q.068 16.16.116 32.32c.039 12.269.088 24.537.138 36.805q.154 37.845.273 75.689c8.541-8.39 10.556-18.925 13.578-30.195l1.333-4.898q1.431-5.259 2.85-10.52 2.26-8.367 4.538-16.729l1.567-5.757.792-2.913 2.415-8.886c5.64-20.764 11.362-41.505 17.092-62.244a55847 55847 0 0 0 7.973-28.9c1.876-6.82 3.758-13.639 5.727-20.434q.878-3.035 1.746-6.073 1.034-3.612 2.108-7.214c2.323-8.151 4.19-16.583.594-24.612-4.553-7.827-11.441-12.416-20.068-14.75l-1.984-.546c-2.175-.597-4.355-1.178-6.534-1.759q-2.347-.638-4.693-1.28-5.045-1.377-10.096-2.734c-5.392-1.45-10.78-2.916-16.168-4.384q-9.862-2.685-19.727-5.36a8861 8861 0 0 1-34.332-9.382l-2.478-.683-12.325-3.395q-11.09-3.055-22.183-6.103l-9.942-2.734a358674 358674 0 0 0-64.339-17.689l-18.305-5.032-4.004-1.1a1158 1158 0 0 1-10.96-3.067l-2.451-.694a933 933 0 0 1-4.667-1.336C173.504 81.33 164.012 82.207 156 92m-90.395 88.012c-6.703 8.301-6.153 16.661-6.06 26.777q.002 2.558 0 5.117c-.002 4.613.021 9.226.05 13.839.024 4.827.027 9.654.032 14.482.012 9.133.045 18.267.085 27.4.045 10.402.067 20.803.087 31.205.041 21.39.112 42.779.201 64.168q1.656-1.407 3.308-2.816l1.86-1.584c2.768-2.418 5.365-4.99 7.957-7.592l1.668-1.666q1.732-1.73 3.459-3.464a2198 2198 0 0 1 5.232-5.226l3.391-3.394 1.547-1.541a168 168 0 0 0 7.996-8.64c3.503-4.04 7.214-7.821 11.02-11.577l2.072-2.06q4.332-4.307 8.675-8.604 3.191-3.166 6.377-6.336l1.946-1.92c3.821-3.801 7.433-7.726 10.956-11.806 2.985-3.448 6.159-6.703 9.349-9.961l1.962-2.077c6.93-7.051 14.486-11.207 24.412-11.986 6.788.445 12.41 2.12 17.813 6.25h2l.812 1.788c1.2 2.234 2.454 3.775 4.2 5.603l1.786 1.888 1.89 1.971q1.919 2.028 3.835 4.059l1.843 1.948c2.401 2.561 4.707 5.197 6.997 7.856 2.016 2.324 4.075 4.604 6.137 6.887 2.67 2.959 5.323 5.93 7.938 8.938 2.81 3.228 5.678 6.4 8.562 9.562a643 643 0 0 1 10.223 11.473A652 652 0 0 0 253.5 336c2.67 2.959 5.323 5.93 7.938 8.938 3.645 4.186 7.39 8.278 11.132 12.378a462 462 0 0 1 7.86 8.93c1.785 1.994 3.672 3.867 5.57 5.754l1.31-1.721 1.838-2.416 2.034-2.671q2.202-2.891 4.408-5.78c3.168-4.15 6.336-8.3 9.453-12.49C310.98 338.972 316.256 332.13 326 329c8.22-1.005 16.564-1.078 23.844 3.277 4.168 3.33 7.11 7.379 10.156 11.723q2.032 2.85 4.068 5.7a482 482 0 0 1 2.696 3.83A215 215 0 0 0 370 358h1q.142-32.01.207-64.022c.02-9.91.049-19.819.095-29.728q.06-12.96.074-25.919c.006-4.572.018-9.144.047-13.716q.039-6.464.03-12.928 0-2.364.024-4.728c.09-9.667-.198-18.43-6.336-26.361l-1.891-1.536-1.86-1.59c-7.107-4.378-13.427-4.906-21.58-4.853l-3.355-.014c-3.699-.012-7.398-.003-11.097.007q-3.985-.007-7.97-.016c-6.46-.013-12.92-.01-19.38-.002q-7.879.01-15.758.005l-2.268-.002-4.562-.003c-14.25-.008-28.498.002-42.748.018q-18.324.018-36.649-.003a23928 23928 0 0 0-47.14-.01l-2.258.001a8543 8543 0 0 1-15.73-.009q-9.591-.013-19.182.01-4.89.013-9.78.001c-3.538-.008-7.077.002-10.616.017l-3.1-.02c-8.781.072-15.796 1.708-22.612 7.413m96.649 102.406-2.691 2.77-2.684 2.73c-2.081 2.188-4.06 4.445-6.026 6.738-3.938 4.51-8.128 8.728-12.384 12.938l-2.409 2.397c-3.365 3.35-6.737 6.693-10.108 10.037a8059 8059 0 0 0-7.42 7.378l-2.277 2.252c-3.371 3.355-6.648 6.736-9.753 10.34-3.814 4.426-7.916 8.524-12.068 12.63l-2.416 2.405a6585 6585 0 0 1-7.58 7.53q-5.006 4.966-10.004 9.94l-2.293 2.268A473 473 0 0 0 66 381l-1.831 1.885c-3.244 3.523-4.928 5.784-4.896 10.767l.004 3.104.098 3.182-.02 3.17c.107 7.718 1.594 13.052 6.399 19.099 11.18 9.924 25.675 8.207 39.7 8.134h6.832c6.159.002 12.317-.016 18.475-.037 6.445-.019 12.89-.02 19.335-.024q16.213-.013 32.428-.054 16.693-.041 33.386-.061l2.083-.003 10.342-.011c28.555-.031 57.11-.084 85.665-.151-1.84-3.124-3.604-5.863-6.11-8.488l-1.776-1.878-1.864-1.947q-1.905-2.013-3.809-4.03c-.601-.638-1.203-1.274-1.823-1.93-2.395-2.557-4.696-5.187-6.981-7.84-2.016-2.324-4.075-4.604-6.137-6.887a596 596 0 0 1-7.875-8.875c-3.454-3.968-7.015-7.833-10.578-11.703a471 471 0 0 1-9.172-10.297c-2.42-2.743-4.897-5.434-7.375-8.125-3.6-3.91-7.144-7.859-10.625-11.875-2.42-2.743-4.897-5.434-7.375-8.125-3.039-3.3-6.062-6.61-9-10-3.363-3.878-6.833-7.655-10.308-11.433-4.434-4.823-8.817-9.69-13.192-14.567l-6.73-7.477a2778 2778 0 0 1-4.696-5.234c-.787-.88-1.575-1.758-2.387-2.664l-2.144-2.398c-4.005-4.648-4.005-4.648-9.418-7.164-5.34-.093-8.406 1.863-12.371 5.355M327 348c-5.147 5.451-9.613 11.371-14 17.438a3847 3847 0 0 1-3.5 4.808l-1.719 2.375a130 130 0 0 1-3.812 4.84L302 379.848l-1.812 2.129c-1.379 1.923-1.379 1.923-1.085 4.043 1.09 2.404 2.411 3.912 4.249 5.808l2.082 2.176 2.191 2.246q2.116 2.193 4.227 4.39l2.111 2.197c2.534 2.691 4.958 5.466 7.376 8.261 3.1 3.55 6.338 6.97 9.561 10.408 2.251 2.418 4.263 4.739 6.1 7.494 2.609.366 4.889.524 7.5.5l2.185-.02c7.305-.248 12.922-2.087 18.182-7.347 6.654-8.183 7.378-18.381 7.012-28.586-.91-8.817-6.42-14.66-11.962-21.19-4.071-5.007-7.55-10.465-11.158-15.81-5.201-7.543-5.201-7.543-13.259-11.485-4.155-.074-5.314.31-8.5 2.938"/><path d="M295 215c7.733 6.746 11.786 14.226 12.938 24.375.474 10.184-2.218 18.883-8.938 26.625-8.582 8.169-15.992 10.501-27.709 10.422-5.836-.196-10.346-1.183-15.291-4.422l-2.102-1.285C246.796 265.94 242.193 259.263 240 251c-1.025-9.005-1.09-18.23 4-26l1.285-2.102c5.267-7.834 12.62-12.367 21.766-14.484 10.39-1.459 19.29.677 27.949 6.586m-34.937 17.125c-3.723 5.189-3.703 9.59-3.063 15.875 2.421 4.932 5.704 8.533 10.781 10.793 4.78 1.565 8.44 1.204 13.106-.61 4.463-2.499 7.002-6.3 9.55-10.62 1.272-5.791-.02-11.097-3.148-16.024-3.2-3.821-7.416-5.575-12.226-6.539-6.186-.491-11.075 2.534-15 7.125"/></svg>