<svg width="24" height="24" viewBox="0 0 24 24" fill="none" xmlns="http://www.w3.org/2000/svg">
<path d="M16.035 3.015C16.5735 2.4764 17.2966 2.16276 18.0578 2.13769C18.819 2.11262 19.5613 2.37799 20.134 2.88L20.278 3.015L20.985 3.722C21.5233 4.26042 21.8368 4.98338 21.8618 5.74434C21.8869 6.50529 21.6217 7.24732 21.12 7.82L20.985 7.964L9.773 19.177C9.61448 19.3355 9.42244 19.4565 9.211 19.531L9.049 19.578L4.595 20.606C4.43894 20.6423 4.27644 20.6406 4.12119 20.6009C3.96594 20.5613 3.82249 20.485 3.70291 20.3783C3.58333 20.2717 3.49112 20.1379 3.43406 19.9881C3.37699 19.8384 3.35674 19.6772 3.375 19.518L3.395 19.405L4.422 14.95C4.47274 14.7315 4.57184 14.5271 4.712 14.352L4.823 14.227L16.035 3.015ZM15.328 6.55L6.338 15.54L5.702 18.298L8.46 17.661L17.45 8.671L15.328 6.55ZM18.864 4.429C18.6918 4.25682 18.4627 4.15339 18.2197 4.13811C17.9767 4.12283 17.7364 4.19675 17.544 4.346L17.45 4.429L16.742 5.136L18.864 7.257L19.571 6.55C19.7432 6.37781 19.8466 6.14871 19.8619 5.90568C19.8772 5.66265 19.8033 5.4224 19.654 5.23L19.571 5.136L18.864 4.429Z" fill="black"/>
</svg>
