<svg xmlns="http://www.w3.org/2000/svg" width="512" height="512"><path d="M144 0c3.346 2.527 4.68 4.04 6 8v34h95V7c4-6 4-6 6-7 5.207-.645 8.817-.917 13.063 2.375C273.09 14.607 267 17.862 267 42h74V7c4-6 4-6 6-7 5.207-.645 8.817-.917 13.063 2.375 3.147 4.265 3.07 7.326 3.035 12.477l-.005 2.345c-.005 2.476-.018 4.952-.03 7.428q-.009 2.516-.014 5.031Q363.032 35.83 363 42l3.298-.048c4.093-.054 8.185-.089 12.278-.117q2.642-.022 5.283-.061c18.463-.268 35.13 2.171 49.079 15.414 12.435 13.388 15.528 26.836 15.443 44.608q.005 2.373.014 4.746c.013 4.323.006 8.645-.003 12.968-.007 4.672.004 9.343.012 14.015.013 9.14.01 18.282.002 27.423q-.01 11.145-.005 22.292l.002 3.208.003 6.452c.008 20.153-.002 40.307-.018 60.46q-.018 25.928.003 51.855a47888 47888 0 0 1 .009 69.873q-.003 11.13.009 22.26.013 13.568-.01 27.135a3584 3584 0 0 0-.001 13.838q.013 6.339-.012 12.678-.005 2.287.006 4.576c.036 8.25-.371 15.656-3.392 23.425l-1 2.742c-6.007 12.812-16.858 22.612-29.873 27.879-11.981 4.197-25.125 3.08-37.647 3.018-3.877-.014-7.754.002-11.632.014-7.576.018-15.152.01-22.728-.008q-9.242-.02-18.483-.015l-2.665.002q-2.682 0-5.362.003c-15.773.008-31.546-.008-47.319-.038q-22.921-.044-45.843-.02a24331 24331 0 0 1-55.353-.003l-2.653-.003q-9.225-.007-18.448.005-11.25.012-22.5-.024a1849 1849 0 0 0-11.463-.008c-4.153.012-8.305-.007-12.458-.03l-3.616.026c-15.483-.152-27.754-5.646-39.144-15.977-3.975-4.152-6.726-8.48-9.313-13.563l-.989-1.94c-4.776-10.079-4.802-20.44-4.772-31.412l-.011-4.638c-.01-4.228-.008-8.456-.004-12.684.002-4.568-.007-9.136-.014-13.704q-.018-13.41-.012-26.823.002-10.905-.005-21.81l-.001-3.138-.004-6.312q-.014-29.584-.003-59.168c.006-18.029-.006-36.057-.025-54.086q-.03-27.79-.024-55.581.005-15.593-.014-31.187-.019-13.275-.002-26.55c.006-4.512.007-9.024-.005-13.536q-.014-6.205.007-12.412.004-2.235-.008-4.47c-.092-18.394 3.778-33.647 16.827-47.143 11.182-10.516 25.35-14.601 40.457-14.504l2.53.005c2.65.005 5.298.018 7.947.03q2.705.008 5.41.014 6.608.017 13.215.049l-.063-3.225c-.073-3.96-.119-7.92-.157-11.881q-.03-2.568-.082-5.136c-.048-2.465-.071-4.93-.089-7.395l-.062-2.308c-.002-3.74.312-5.836 2.352-9.015C133.98-.923 138.545-.78 144 0M71.625 75.25c-6.212 7.954-7.747 17.37-7.754 27.234l-.01 3.843.005 4.184-.007 4.474q-.008 6.135-.004 12.27-.002 6.623-.01 13.245-.012 12.969-.012 25.938 0 10.545-.006 21.088-.013 29.903-.012 59.805v6.516q-.002 26.148-.023 52.297a63144 63144 0 0 0-.02 53.716q.001 15.075-.014 30.15-.015 12.835-.005 25.672.007 6.545-.005 13.091-.011 6 .002 12 .003 2.162-.005 4.325c-.05 13.528.375 25.899 10.005 36.152 6.287 5.97 12.918 8.868 21.571 8.884l3.289.014h3.61l3.838.01q5.276.014 10.553.017 5.688.007 11.378.022c9.162.02 18.323.03 27.484.039l12.946.015a63213 63213 0 0 0 57.01.046c14.986.008 29.972.033 44.957.066q23.084.049 46.167.054c8.638.002 17.277.01 25.916.036q11.037.034 22.073.02c3.752-.004 7.504-.002 11.256.017 4.073.021 8.146.01 12.22-.002l3.57.033c10.659-.083 18.64-2.878 26.432-10.228 5.36-6.207 8.101-13.365 8.114-21.49l.014-3.959v-4.374q.003-2.313.01-4.627.014-6.375.017-12.748.007-6.87.022-13.737c.02-11.064.03-22.129.039-33.194l.015-15.627a92034 92034 0 0 0 .044-65.431l.002-3.386c.008-18.096.033-36.192.066-54.288q.049-27.862.054-55.726c.002-10.43.01-20.861.036-31.292q.034-13.325.02-26.651c-.004-4.532-.002-9.064.017-13.596q.026-6.228.001-12.456-.004-2.248.014-4.496c.087-11.656-1.432-20.774-9.646-29.461-8.7-8.206-17.705-9.9-29.543-9.852l-2.122.005c-2.21.005-4.421.018-6.632.03q-2.264.008-4.529.014-5.517.017-11.033.049l-.028 3.225c-.04 3.961-.106 7.921-.18 11.881q-.042 2.568-.063 5.136c-.021 2.466-.068 4.93-.12 7.395l-.003 2.308c-.136 4.957-1.05 7.58-4.606 11.055-3.202 1.6-6.526 1.5-10 1-2.81-1.794-4.51-3.019-6-6l-1-36h-74l-1 36c-4 5-4 5-6 6-7.09.581-7.09.581-10.937-1.875C238.91 93.665 245.47 80.963 245 64h-95l-1 35c-4 6-4 6-6 7-5.347.35-8.629.444-13-3-1.61-3.219-1.242-6.748-1.316-10.29l-.063-2.48q-.097-3.927-.184-7.855l-.13-5.32Q128.146 70.527 128 64q-6.534-.074-13.068-.11-2.215-.015-4.43-.04c-14.629-.17-28.172.051-38.877 11.4"/><path d="m139.009 276.866 2.555-.014h2.823l2.987-.01q4.987-.015 9.973-.019l7.124-.02c7.142-.02 14.284-.03 21.426-.039l10.087-.015a38343 38343 0 0 1 44.416-.046c11.68-.008 23.361-.033 35.042-.066q17.985-.049 35.969-.054c6.733-.002 13.465-.01 20.198-.036q9.5-.035 19-.018 3.489 0 6.978-.02c3.173-.017 6.345-.01 9.518.003l2.796-.033c5.652.057 8.766.808 13.099 4.521 1.857 3.715 1.585 7.956 1 12-2.19 2.824-3.83 4.415-7 6a58 58 0 0 1-4.009.134l-2.555.014h-2.823l-2.987.01q-4.986.015-9.973.019l-7.124.02c-7.142.02-14.284.03-21.426.039l-10.087.015a38343 38343 0 0 1-42.23.044l-2.186.002c-11.68.008-23.361.033-35.042.066q-17.985.049-35.969.054c-6.733.002-13.465.01-20.198.036q-9.5.034-19 .018-3.489 0-6.978.02c-3.173.017-6.345.01-9.518-.003l-2.796.033c-5.652-.057-8.766-.808-13.099-4.521-1.857-3.715-1.585-7.956-1-12 3.284-4.234 5.725-6.121 11.009-6.134M140.103 361.869l2.542-.012 2.793.003 2.967-.01q4.944-.01 9.887-.011l7.071-.015c7.082-.015 14.164-.02 21.247-.026q5.001-.003 10.004-.01 16.624-.019 33.25-.026h4.304l4.323-.002h2.166q17.376-.009 34.753-.046 17.836-.035 35.674-.037 10.016.001 20.032-.025 9.42-.023 18.837-.01 3.46.002 6.921-.013c3.145-.013 6.289-.007 9.434.004l2.779-.025c4.828.038 7.96.31 11.913 3.392l1.785 1.383c2.129 2.834 1.673 5.75 1.578 9.168-.505 3.403-1.85 5.158-4.363 7.449-2.274 1.137-3.517 1.128-6.043 1.134l-2.578.014h-2.849l-3.014.01q-5.031.015-10.062.019l-7.188.02c-7.206.02-14.412.03-21.618.039q-5.088.007-10.175.015a39015 39015 0 0 1-42.597.044l-2.204.002c-11.785.008-23.57.033-35.355.066q-18.143.049-36.284.054c-6.793.002-13.585.011-20.378.036a3574 3574 0 0 1-19.164.018q-3.522 0-7.042.02c-3.2.017-6.398.01-9.598-.003l-2.829.033c-4.21-.042-6.432-.153-10.075-2.426-3.427-3.687-3.338-6.73-3.302-11.61.355-2.485.355-2.485 2.668-5.548 3.356-2.42 5.756-3.061 9.79-3.068M139.446 191.846l3.505-.026 3.865-.013 4.055-.025c4.445-.026 8.89-.041 13.336-.055l4.59-.017q9.543-.033 19.087-.051 13.683-.023 27.364-.107a3693 3693 0 0 1 19.236-.063c3.83-.004 7.661-.016 11.491-.048q5.406-.044 10.813-.025c1.951 0 3.903-.024 5.854-.05 9.541.069 9.541.069 12.63 3.03 2.565 3.865 3.149 7.007 2.728 11.604-2.018 4.111-3.752 6.348-8 8-2.571.254-2.571.254-5.535.26l-3.411.022-3.73-.007-3.938.015c-3.562.014-7.123.014-10.685.012q-4.463 0-8.924.008-10.528.016-21.055.006c-7.238-.006-14.476.006-21.714.027q-9.324.027-18.65.02c-3.712-.001-7.423.001-11.135.015-4.14.015-8.279.006-12.418-.006l-3.724.023-3.42-.02h-2.964c-3.885-.54-6.434-2.397-9.482-4.758-2.129-2.834-1.673-5.75-1.578-9.168.505-3.403 1.85-5.158 4.363-7.449 2.607-1.303 4.525-1.138 7.446-1.154"/></svg>