<svg xmlns="http://www.w3.org/2000/svg" width="512" height="512"><path d="m339.078-.3 4.331-.018c3.826-.012 7.651-.009 11.477 0q3.563.008 7.127.01C386.108-.275 410.04.238 434 3l2.028.227c4.415.497 8.82 1.05 13.222 1.648l3.14.415c16.958 2.61 32.272 11.531 42.548 25.308 18.9 28.31 17.177 70.828 17.265 103.847l.009 2.237q.022 5.841.028 11.684c.006 3.967.03 7.935.058 11.902.019 3.106.024 6.212.026 9.318q.004 2.192.024 4.384c.157 18.545-2.762 33.903-15.946 47.745-24.473 23.279-67.36 17.496-98.464 17.472h-2.115c-17.639-.004-35.266-.091-52.885-1l-2.223-.105c-19.881-.99-36.281-4.441-50.715-19.082l-1.742-1.71c-12.228-12.989-13.64-31.224-14.445-48.165l-.12-2.33c-1.726-35-1.821-70.62.12-105.607l.211-3.993c1.25-18.607 6.932-33.322 20.945-45.972C308.015.716 322.918-.316 339.079-.301m-2.265 38.55-3.123.08c-6.017.26-10.706.948-15.335 5.17-18.761 24.096-7.034 94.05-5.543 123.313l.106 2.26c.557 12.686.557 12.686 6.332 23.74 7.356 5.85 15.03 5.934 24.125 6.375l2.244.118c16.678.857 33.379.91 50.075.94q3.119.007 6.237.02c14.358.05 28.703-.124 43.041-.92 1.98-.108 3.96-.202 5.94-.296 9.724-.527 9.724-.527 18.088-5.05 5.392-6.177 4.562-14.385 4.496-22.102q.002-2.08.008-4.163c.005-3.693-.018-7.384-.049-11.076q-.026-3.433-.036-6.865c-.09-23.033-.754-45.898-3.419-68.794l-.356-3.34c-.309-2.85-.65-5.692-1.019-8.535l-.27-2.254c-1.198-7.792-5.427-13.455-11.218-18.547-5.751-3.564-11.798-4.82-18.414-5.457l-2.333-.249a802 802 0 0 0-4.868-.498 976 976 0 0 1-7.266-.757c-17.039-1.79-34.071-2.568-51.193-2.988l-2.693-.066c-11.192-.263-22.365-.418-33.558-.059M114.125 272.813h2.039c17.248.004 34.482.113 51.711 1l2.22.105c20.28 1.01 37.157 4.122 51.905 19.082l1.742 1.71c12.228 12.989 13.64 31.224 14.446 48.165l.118 2.33c1.724 34.946 1.778 70.482-.056 105.42l-.187 3.917c-1.106 17.027-5.92 32.549-18.684 44.493-13.924 11.5-28.654 13.117-46.066 13.168l-4.35.021c-4.654.02-9.308.024-13.963.026l-2.392.002c-24.99.02-49.745-.536-74.608-3.252l-3.65-.372C52.836 506.405 52.836 506.405 43 502l-2.734-1.203C25.074 493.33 13.706 479.83 8 464c-9.523-31.787-8.37-68.363-8.316-101.346.006-3.866-.011-7.73-.034-11.596-.015-3.05-.016-6.1-.013-9.15q0-2.138-.015-4.275c-.117-18.416 2.911-33.631 15.976-47.348 24.465-23.272 67.481-17.496 98.527-17.473m-47.097 39.84c-1.98.11-3.96.203-5.94.297-9.724.527-9.724.527-18.088 5.05-5.392 6.177-4.562 14.385-4.496 22.102q-.002 2.08-.008 4.163c-.005 3.693.018 7.384.049 11.076q.025 3.433.036 6.865c.09 23.033.754 45.898 3.419 68.794l.356 3.34c.309 2.85.65 5.692 1.019 8.535l.27 2.254c1.198 7.792 5.427 13.455 11.218 18.547 5.843 3.62 11.95 4.831 18.668 5.457l2.407.249q2.51.256 5.022.498c2.507.242 5.012.498 7.517.757 27.971 2.846 56.225 3.847 84.336 3.175l3.695-.054c6.42-.211 12.417-.436 17.492-4.758 4.84-5.847 4.882-13.302 5.25-20.562l.111-1.964c1.867-33.75 1.655-68.232-.236-101.974l-.119-2.19c-.459-13.256-.459-13.256-7.006-24.31-17.54-12.279-54.846-6.22-75.695-6.246q-3.118-.006-6.235-.02c-14.359-.049-28.704.124-43.042.92M148.789-.316c3.803.006 7.607-.011 11.41-.034 3.004-.015 6.008-.016 9.012-.013q2.102 0 4.205-.015c18.694-.12 34.338 2.734 48.295 15.96 29.431 31.089 18.215 98.803 17.132 138.832a723 723 0 0 1-.656 15.336l-.105 2.137c-1.024 19.674-4.624 35.86-19.082 50.113l-1.71 1.742c-13.185 12.413-31.685 13.66-48.853 14.446l-2.418.118c-34.207 1.634-68.884 1.71-103.082-.118l-2.118-.106c-20.02-1.05-35.894-5.872-49.596-21.05C.716 203.984-.316 189.081-.301 172.921l-.016-4.332a2090 2090 0 0 1 0-11.477q.006-3.561.008-7.122C-.282 125.883.38 101.984 3 78l.372-3.65C5.595 52.836 5.595 52.836 10 43l1.203-2.734C18.673 25.07 32.17 13.715 48 8 79.505-1.555 116.052-.37 148.789-.316M91 41l-3.567.32c-3.522.33-7.04.686-10.558 1.055l-3.178.308c-9.221 1.04-17.876 3.18-24.248 10.32-6.477 8.927-6.66 20.034-7.637 30.622q-.246 2.475-.498 4.95c-1.53 15.453-2.476 30.828-2.552 46.363l-.013 2.165q-.03 5.645-.044 11.29c-.011 3.858-.046 7.715-.085 11.572-.027 3-.035 6.002-.038 9.003a439 439 0 0 1-.035 4.267c-.402 11.15-.402 11.15 4.453 20.765 6.014 5.043 13.913 4.866 21.39 5.234l3.973.228c14.721.798 29.456.852 44.195.796q3.342-.012 6.685-.016c16.863-.034 33.728-.095 50.57-1.054l3.938-.212c7.494-.522 13.054-1.362 18.999-6.226 6.067-7.415 6.01-15.574 6.437-24.75l.12-2.326c1.681-33.822 1.857-68.3-.057-102.111l-.187-3.685c-.49-6.888-1.155-13.42-6.582-18.222-6.395-3.923-14.1-3.38-21.356-3.468q-2.191-.045-4.384-.092c-25.268-.454-50.576.64-75.741 2.904M396.25 272.813h3.792c15.938.016 31.851.195 47.77 1l2.282.105c19.249.931 36.058 4.959 49.556 19.502 11.29 13.212 12.83 29.17 12.748 45.951l.013 4.319c.008 3.8-.004 7.6-.024 11.402q-.017 3.543-.024 7.086c-.065 24.034-.608 47.924-3.363 71.822l-.227 2.028c-.497 4.415-1.05 8.82-1.648 13.222l-.415 3.14c-2.61 16.958-11.531 32.272-25.308 42.548-28.255 18.863-70.345 17.18-103.32 17.265l-2.307.009q-6.025.022-12.05.028c-4.098.006-8.195.03-12.293.058-3.203.019-6.406.024-9.609.026q-2.265.004-4.528.024c-17.665.145-33.34-2.512-46.67-15.035-12.335-13.297-16.035-29.048-16.875-46.688l-.111-2.118c-1.793-35.01-1.61-70.626.173-105.632l.106-2.22c1.054-21.097 5.152-37.942 21.273-52.655 25.506-21.171 70.134-15.213 101.059-15.187m-51.187 40-2.249.105c-12.595.591-12.595.591-23.627 6.27-5.862 7.537-5.927 16.12-6.375 25.312l-.118 2.241c-.848 16.483-.91 32.987-.94 49.488q-.007 3.066-.02 6.13c-.043 14.207.132 28.394.92 42.58.108 1.982.202 3.965.296 5.948.442 7.015 1.188 12.173 5.05 18.113 6.494 5.373 14.854 4.717 22.875 4.813l4.406.088c32.497.568 65.367-.953 97.594-5.276l2.246-.271c7.796-1.192 13.462-5.424 18.555-11.217 3.62-5.843 4.831-11.95 5.457-18.668l.249-2.407q.256-2.51.498-5.022c.242-2.507.498-5.012.757-7.517a4648 4648 0 0 0 .717-7.122c1.256-13.103 1.82-26.177 1.884-39.339l.013-2.165q.03-5.645.044-11.29c.011-3.858.046-7.715.085-11.572.027-3 .035-6.002.038-9.003q.008-2.134.035-4.267c.4-11.148.4-11.148-4.453-20.765-6.122-5.211-14.424-4.876-22.055-5.234l-4.13-.228c-14.639-.769-29.283-.847-43.94-.788l-4.113.008c-16.576.036-33.142.206-49.7 1.055"/></svg>