<svg xmlns="http://www.w3.org/2000/svg" width="512" height="512"><path d="M173.93-.867q3.013-.062 6.026-.128a2476 2476 0 0 1 19.704-.31l3.403-.044c10.617-.134 21.235-.25 31.853-.327 13.509-.098 27.01-.283 40.516-.587 9.536-.208 19.071-.313 28.61-.346 5.679-.022 11.349-.087 17.024-.262 38.486-1.136 38.486-1.136 51.31 10.238 4.976 4.77 9.325 10.028 13.386 15.588 4.084 5.557 8.697 10.65 13.613 15.483l2.297 2.273L404 43c8.566 8.422 8.566 8.422 12.469 12.969 4.093 4.763 8.557 9.128 13.031 13.531 5.09 5.01 10.03 10.04 14.682 15.459 3.586 4.026 7.477 7.76 11.318 11.541 5.101 5.02 10.052 10.063 14.713 15.495 4.127 4.631 8.67 8.884 13.115 13.206 14.437 14.228 14.437 14.228 14.8 21.278l.003 3.02.012 3.486-.003 3.848.01 4.073q.011 5.61.01 11.22.005 6.048.016 12.093.02 13.231.024 26.463l.012 16.53q.019 22.89.026 45.78v5.929l.002 5.955v2.983q.009 23.9.046 47.8.035 24.548.037 49.096-.001 13.778.025 27.557.023 11.74.012 23.48-.008 5.985.011 11.968.019 5.493 0 10.984c-.003 1.933.008 3.867.02 5.8-.067 12.182-1.286 23.914-9.391 33.456l-1.781 2.148c-5.59 6.163-14.048 11.516-22.586 11.98-.944.003-1.887.004-2.86.006l-3.301.014h-3.641l-3.858.01q-5.31.014-10.622.017-5.724.007-11.448.022c-9.221.02-18.442.03-27.663.039l-13.03.015a63997 63997 0 0 1-54.56.044l-2.823.002c-15.082.008-30.164.033-45.246.066q-23.23.049-46.46.054c-8.695.002-17.39.01-26.083.036q-11.11.034-22.22.02c-3.776-.004-7.552-.002-11.329.017-4.101.021-8.202.01-12.304-.002l-3.587.033c-11.73-.09-21.054-3.365-29.598-11.521-11.93-12.496-11.557-26-11.39-42.293q.01-3.238.017-6.477c.015-5.65.054-11.3.098-16.95.041-5.78.06-11.558.08-17.337.042-11.314.11-22.629.195-33.943l-3.211.02q-15.007.091-30.014.135c-5.143.016-10.285.037-15.428.071-4.967.033-9.934.05-14.9.059q-2.838.008-5.674.032c-2.657.022-5.313.025-7.97.024l-2.35.032c-9.262-.052-15.56-3.584-22.246-9.9-6.153-6.894-7.327-14.939-7.34-23.942l-.014-3.887.002-4.227-.01-4.481q-.014-6.072-.012-12.143l-.006-7.596q-.014-13.261-.012-26.524-.001-12.341-.026-24.682-.019-10.612-.018-21.226.002-6.33-.013-12.662-.014-5.958-.003-11.915.003-2.18-.007-4.357c-.046-11.764.34-21.556 8.252-30.831 7.09-6.6 14.115-9.473 23.69-9.34l2.544-.002c2.754.002 5.508.025 8.262.049q2.877.009 5.755.013c5.032.011 10.064.04 15.096.074 5.141.03 10.283.044 15.424.06q15.115.05 30.229.146l-.011-2.25q-.134-27.144-.196-54.288-.028-13.128-.095-26.254-.06-11.448-.074-22.894c-.006-4.038-.018-8.075-.047-12.112q-.039-5.712-.03-11.423 0-2.085-.024-4.17C122.386 30.644 124.897 20.534 134 11 145.748-.215 158.55-.653 173.93-.867m-25.805 27.68-1.68 1.957c-2.93 4.52-3.695 8.951-3.686 14.266l-.008 3.595.022 3.902v4.14c-.002 3.735.01 7.47.024 11.205.013 3.908.014 7.816.016 11.724q.011 11.091.043 22.184c.022 8.42.033 16.841.043 25.262q.032 25.976.101 51.952l2.69.004q32.426.056 64.852.18c10.454.04 20.909.072 31.363.087q13.671.019 27.342.084c4.824.022 9.648.038 14.472.037q6.817 0 13.636.05 2.494.013 4.99.004c17.124-.05 17.124-.05 24.655 4.554l1.632 1.635c1.282 1.6 1.282 1.6 3.368 1.365l.871 1.746a776 776 0 0 0 2.164 4.29c.34.668.678 1.337 1.028 2.027l1.035 2.035c1.856 3.913 2.034 7.02 2.05 11.308l.01 1.978q.015 3.29.019 6.577l.02 4.711c.021 5.163.031 10.326.041 15.488l.013 5.337q.029 12.54.041 25.08.015 14.46.077 28.92.044 11.185.048 22.37c.002 4.45.011 8.9.036 13.35q.034 6.289.018 12.576-.001 2.299.02 4.598c.084 9.948-1.002 17.704-6.116 26.359-6.547 6.203-13.427 9.363-22.38 9.408l-2.173.015c-2.409.016-4.818.024-7.227.032l-5.174.03q-7.03.04-14.063.068c-4.897.022-9.793.05-14.69.076q-13.912.074-27.826.138-15.838.076-31.676.16-32.583.17-65.166.323-.106 17.59-.155 35.18-.022 8.168-.071 16.337-.047 7.888-.059 15.775-.008 3.004-.032 6.01c-.022 2.812-.025 5.624-.024 8.436l-.032 2.492c.033 6.326 1.084 11.968 5.205 17.012l1.98 1.633 1.958 1.68c6.375 4.13 12.982 3.735 20.311 3.72l3.72.015q5.097.017 10.196.015c3.67.002 7.338.015 11.007.027 8.018.022 16.037.03 24.056.035q7.514.006 15.027.017a34676 34676 0 0 0 49.711.041h2.706l2.71.001c14.488.004 28.975.03 43.463.068q22.323.057 44.647.058c8.353 0 16.705.009 25.058.038q10.67.038 21.337.017c3.627-.008 7.253-.007 10.88.016 3.937.024 7.874.01 11.812-.008l3.448.04c7.336-.077 13.053-1.407 19.141-5.655 4.41-4.63 6.126-9.03 6.123-15.351l.006-3.385-.009-3.735.003-3.955q.002-5.445-.007-10.891-.005-5.869-.002-11.737 0-10.17-.008-20.34-.011-14.706-.012-29.41-.004-23.858-.019-47.714-.014-23.178-.02-46.355v-2.885l-.005-14.329Q477.034 217.457 477 158l-2.016-.007q-24.288-.089-48.575-.229-11.745-.07-23.49-.11-10.238-.034-20.474-.103a2215 2215 0 0 0-10.84-.049c-4.035-.007-8.07-.037-12.104-.07l-3.629.005-3.335-.038-2.892-.014c-3.162-.46-5.056-1.542-7.645-3.385-2.153-3.074-2.257-5.721-2.278-9.416l-.034-3.332-.007-3.64-.03-3.844c-.028-3.475-.043-6.95-.056-10.424-.015-3.633-.042-7.266-.068-10.899q-.069-10.316-.116-20.633c-.039-7.83-.088-15.661-.138-23.492Q339.119 44.16 339 20q-34.8-.106-69.602-.155c-10.772-.016-21.545-.037-32.317-.071q-14.085-.046-28.171-.056-7.458-.004-14.914-.035-7.022-.03-14.045-.022-2.574-.001-5.147-.019a714 714 0 0 0-7.046-.003l-3.978-.008c-6.138.6-11.61 2.275-15.655 7.182M360 29v108h104c-3.877-5.17-7.102-9.343-11.59-13.75l-1.538-1.522q-2.398-2.37-4.81-4.728-3.175-3.12-6.34-6.25l-1.541-1.525c-3.314-3.3-6.42-6.715-9.453-10.272-3.545-4.006-7.417-7.702-11.228-11.453-5.09-5.01-10.03-10.04-14.682-15.459-3.586-4.026-7.477-7.76-11.318-11.541-5.13-5.049-10.122-10.118-14.812-15.58-2.882-3.277-5.968-6.345-9.063-9.42l-1.902-1.914-1.809-1.805-1.626-1.623c-1.123-1.27-1.123-1.27-2.288-1.158M36.718 201.226c-2.065 3.335-2.216 5.254-2.212 9.157l-.026 3.904.034 4.262q-.003 2.252-.011 4.505c-.01 4.072.005 8.144.026 12.216.017 4.263.014 8.525.013 12.787.002 7.157.02 14.313.046 21.47.032 8.274.042 16.548.04 24.823q.001 11.94.026 23.881.011 5.082.012 10.164.003 5.982.035 11.965.008 2.196.007 4.392c-.001 1.997.011 3.995.025 5.992l.01 3.388c.266 2.968.466 4.499 2.257 6.868 5.31 3.747 10.615 3.422 16.855 3.381l3.32.014c3.67.012 7.341.003 11.013-.007q3.947.006 7.894.016c6.406.013 12.812.01 19.218.002a8099 8099 0 0 1 17.867-.003l4.517.003c14.118.008 28.237-.002 42.355-.018q18.168-.018 36.336.003a23497 23497 0 0 0 46.705.01l2.236-.001q7.8-.003 15.6.009 10.5.013 21-.015 3.856-.006 7.713.004c3.505.008 7.01-.002 10.516-.017l3.094.02c5.316-.044 9.213-.32 13.761-3.401 4.222-6.39 3.423-13.769 3.388-21.178q.006-2.157.016-4.314c.014-3.89.009-7.78-.001-11.67-.008-4.08 0-8.16.004-12.239q.007-10.274-.016-20.548c-.016-7.909-.01-15.817.006-23.726q.02-10.202.007-20.403-.008-6.087.005-12.172.012-5.723-.015-11.445-.006-2.096.004-4.19c.295-10.073.295-10.073-3.398-19.115-5.94-3.34-11.192-3.423-17.907-3.374l-3.299-.012c-3.642-.01-7.285.002-10.927.014q-3.92-.004-7.841-.011c-6.358-.01-12.716-.003-19.074.009-7.406.014-14.811.012-22.216.01a22982 22982 0 0 0-39.637.028q-19.23.029-38.459.02a33570 33570 0 0 0-46.358.01l-2.22.001q-7.742.005-15.485.002-10.419-.002-20.837.022-3.828.006-7.656.002c-3.477-.003-6.954.006-10.431.018l-3.078-.011c-6.084.038-10.314.066-14.857 4.498"/><path d="m151 240 20.875-.187 6.527-.083q2.608-.014 5.215-.023l2.659-.046c10.838-.005 18.76 3.028 26.724 10.339 8.477 8.477 10.012 21.738 10.07 33.184-.237 12.57-2.718 24.705-11.816 33.976-6.031 4.923-12.938 7.976-20.747 7.954H187.8c-1.394-.009-1.394-.009-2.817-.016l-2.609-.003c-3.208-.006-6.417-.02-9.625-.033L151 325zm18 15v55c16.673 1.51 16.673 1.51 30.25-5.062 6.069-10.187 6.069-22.637 4.246-34.11-1.416-5.34-3.32-9.185-7.496-12.828-8.452-4.455-17.594-3-27-3M72 240l21.5-.125 6.74-.055 5.354-.015 2.755-.031c8.198-.003 15.04.937 21.651 6.226 5.515 5.515 8.094 11.66 8.313 19.5-.38 8.72-2.194 15.06-8.313 21.5-6.079 4.915-12.51 6.18-20.187 6.625l-3.606.227c-5.4.19-10.804.148-16.207.148v31H72zm18 15v23l11.875.27c5.496.055 9.274-.636 14.125-3.27 2.55-2.961 2.97-4.654 3.313-8.562-.348-4.053-.348-4.053-2.313-7.438-5.855-4.517-12.829-4.125-19.937-4.062zM236 240h59v15h-41v19h36v15h-36v36h-18z"/></svg>