<svg xmlns="http://www.w3.org/2000/svg" width="512" height="512"><path d="m168.765-.29 1.963-.02a811 811 0 0 1 6.381-.026l4.477-.02q4.684-.017 9.37-.015c3.979 0 7.957-.027 11.935-.061 3.082-.023 6.164-.026 9.245-.025q2.199-.004 4.397-.027C228.418-.6 237.502.896 246.32 9.289c9.868 10.05 10.283 20.93 10.29 34.313q.021 2.534.05 5.069c.043 4.415.063 8.83.078 13.246.02 4.519.062 9.037.102 13.556.075 8.842.125 17.684.16 26.527l2.668.77 3.52 1.042 3.48 1.02C270 106 270 106 272.518 107.607c3.152 1.77 5.409 1.812 9.013 1.876l3.944.088q2.12.021 4.24.038l2.17.026q5.68.067 11.36.086c3.904.016 7.803.088 11.705.174 3.01.056 6.02.071 9.031.076q2.158.013 4.315.072c8.033.459 8.033.459 14.86-3.001 1.524-2.288 2.676-4.559 3.844-7.042 14.32-18.448 37.575-28.606 60.215-31.703C434.353 65.4 462.059 69.991 484 87c13.938 11.447 24.785 24.809 28 43 1.543 20.756-2.193 37.348-15.824 53.598-17.986 19.859-43.11 29.22-69.48 30.68-27.636.945-52.842-8.025-73.762-26.06-4.703-4.46-8.596-9.669-11.934-15.218v-2l-44 1 14 9c13.074 9.357 25.982 20.37 36 33l2.21 2.703c21.665 27.2 36.092 58.953 41.79 93.297l.35 2.012c8.179 48.634-4.734 101.187-32.788 141.433-9.51 13.323-19.905 26.096-32.562 36.555l-2.668 2.328c-16.08 13.849-29.107 20.136-50.529 20.076l-5.536.02c-4.994.019-9.988.018-14.982.012-4.177-.003-8.354.003-12.532.009q-14.788.02-29.577.001c-10.153-.011-20.305.003-30.458.03q-13.101.032-26.202.022-7.813-.007-15.626.017-7.35.021-14.7-.008-2.688-.005-5.376.01c-27.63.15-45.285-16.297-64.377-34.892C21.717 445.348.217 397.772-.238 352.312l-.03-2.459C-.441 331.914-.36 314.517 4 297l.748-3.026C8.213 280.372 12.77 267.57 19 255l1.038-2.142C39.348 213.287 71.282 185.433 109 164l-1.277-2.45-1.66-3.238-1.653-3.199c-3.98-8.786-3.587-19.756-.445-28.773 4.29-9.698 11.3-16.837 20.785-21.516 3.347-1.226 6.788-1.973 10.25-2.824l.011-2.735q.057-12.82.173-25.64c.04-4.393.072-8.786.087-13.179.015-4.247.05-8.494.097-12.74q.022-2.42.024-4.838C135.405 30.226 136.655 18.424 146 9c7.15-5.892 13.348-9.229 22.765-9.29M157 24c-2.56 4.945-3.37 8.77-3.34 14.312l-.002 2.135c.003 2.257.025 4.512.049 6.768q.007 2.104.01 4.208c.015 5.172.057 10.343.095 15.514L154 102h84l.25-36.125.11-11.383c.014-3.384.014-3.384.022-6.767q.01-2.252.04-4.502c.03-2.28.034-4.56.032-6.84l.027-3.89c-.729-5.294-3.164-8.333-7.106-11.806-3.672-2.609-5.678-2.83-10.167-2.896l-3.682-.058-4.003-.042-2.037-.02q-5.343-.048-10.687-.076-4.408-.027-8.816-.103a747 747 0 0 0-10.667-.1 402 402 0 0 1-6.008-.097c-7.474.016-13.459.493-18.308 6.705m207 84c-8.8 10.684-14.569 21.704-13.938 35.812 1.306 11.559 6.004 20.805 13.938 29.188.73.77 1.46 1.542 2.21 2.336 15.004 14.604 35.562 20.388 56.102 20.976 22.048-.429 43.199-7.928 59.055-23.488 3.696-3.964 6.329-7.934 8.633-12.824l1.242-2.473c4.47-10.218 4.387-22.087.695-32.527-2.538-5.726-5.733-10.382-9.937-15l-1.77-2.047c-13.259-14.404-33.294-21.312-52.476-22.273-22.835-.688-47.465 5.089-63.754 22.32m-240.813 21.285c-3.431 4.956-4.065 9.815-3.187 15.715 2.17 6.997 5.54 11.101 11.719 14.941 3.948 1.833 7.836 2.184 12.15 2.2.953.005 1.906.01 2.888.017l3.133.003 3.327.015q5.447.021 10.892.027l7.582.017q6.934.015 13.867.019 10.178.007 20.355.05c5.893.025 11.786.033 17.679.035q3.748.004 7.497.024c3.501.017 7.002.015 10.504.008l3.108.028c8.844-.05 16.296-1.612 22.861-7.782 3.847-4.286 5.249-8.926 5.438-14.602-1.081-5.701-2.59-11.042-7-15-7.291-4.679-13.478-5.724-22.024-5.631l-3.512-.022c-3.804-.017-7.606.003-11.41.024q-3.984 0-7.97-.007-8.334-.005-16.668.04c-6.407.031-12.813.031-19.22.014-6.188-.016-12.376-.01-18.565.008q-3.934.008-7.867-.002c-3.667-.005-7.332.015-10.999.043l-3.265-.02c-9.147.115-15.565 2.45-21.313 9.838M289 128l1 16-1 9h44v-17l1-8zm-175.375 54.25-3.024 1.677C102.64 188.421 95.18 193.357 88 199l-2.691 2.023C48.296 229.817 25.062 272.6 18.463 318.757c-.502 4.134-.624 8.245-.631 12.407l-.01 2.287q-.007 2.382-.007 4.764c-.002 2.383-.02 4.766-.04 7.148-.033 9.41.569 18.348 2.225 27.637 11.875 2.74 26.877-5.037 37-11 3.877-2.601 7.599-5.402 11.333-8.203 23.694-17.582 53.262-23.684 82.336-19.915 19.847 3.02 36.935 11.02 52.804 23.086C213.63 364.608 224.596 370.017 237 373l2.773.68c24.167 4.941 48.437-.11 69.344-12.766 3.008-1.997 5.844-4.138 8.695-6.352C334.81 341.6 354.04 335.824 375 333c-2.89-42.566-18.433-81.885-48-113a547 547 0 0 1-3.625-4.25c-10.763-12.357-25.27-22.27-39.375-30.375l-2.604-1.505c-9.914-5.822-9.914-5.822-20.941-5.951-5.784 1.265-11.33 1.363-17.232 1.34l-3.434.01c-3.718.01-7.437.003-11.156-.003l-7.808.005q-8.167.005-16.335-.01-9.399-.015-18.797.003-9.093.014-18.186.004-3.846-.003-7.69.005c-3.594.005-7.188-.003-10.781-.014l-3.166.012c-6.244-.035-12.007-.697-18.11-2.046-5.375-.439-9.625 2.389-14.135 5.025M75.187 370.437C60.221 381.961 43.245 387.821 25 392c9.603 35.76 32.457 68.314 61.625 90.937l2.061 1.612c2.063 1.558 4.168 3.01 6.314 4.451l1.979 1.356c8.188 4.843 16.64 4.342 25.828 4.275q2.688.008 5.374.022c4.841.018 9.682.005 14.523-.014 5.077-.017 10.154-.008 15.23-.003 8.523.005 17.045-.011 25.567-.04a5893 5893 0 0 1 29.526-.014c9.484.016 18.97.01 28.454-.008q6.045-.01 12.088.002a1930 1930 0 0 0 14.238-.032 644 644 0 0 1 5.214 0c12.085.193 12.085.193 22.979-4.544l3.055-2.043c5.798-4.41 11.35-8.96 16.703-13.902a145 145 0 0 1 5.93-5.118C325.55 465.63 328.77 461.92 332 458l2.465-2.922C358.473 426.028 373.407 388.746 375 351c-19.552.456-36.158 9.404-51.375 20.919-23.463 17.539-52.628 23.047-81.41 19.577-19.371-2.841-36.88-10.52-52.215-22.559-14.246-11.13-31.783-18.21-50-18.937l-2.938-.121c-23.022-.47-43.76 6.451-61.875 20.558"/><path d="M118.25 203.813C120 205 120 205 122 208c.631 5.59.631 5.59 0 8-3.05 3.574-6.567 6.238-10.366 8.943-31.33 22.343-50.716 55.226-57.446 92.918-1.079 6.576-1.7 13.109-1.773 19.774-.123 5.438-1.604 8.554-5.415 12.365-6.88.79-6.88.79-10.73-1.926-3.16-4.28-2.95-7.513-2.77-12.699l.058-2.816C34.258 310.268 40.25 288.99 50 269l.93-1.917c7.167-14.577 16.358-26.97 27.65-38.612a277 277 0 0 0 3.842-4.084c23.715-24.949 23.715-24.949 35.828-20.574M153 374c6.838 6.553 9.506 13.52 10.059 22.945-.16 8.367-3.546 15.815-9.059 22.055-7.598 6.36-14.84 8.499-24.684 8.309-8.668-.807-15.6-4.806-21.316-11.309-5.74-8.452-6.842-15.841-6-26 2.127-8.474 6.35-14.474 13.688-19.25 12.309-6.899 26.511-6.263 37.312 3.25m-30 14c-2.615 4.058-3.701 7.191-3 12 2.285 4.316 4.456 7.098 9 9 4.114.524 6.45.243 10.25-1.437 3.656-3.407 5.155-6.603 5.75-11.563-1.062-4.05-2.393-6.303-5.125-9.437-5.528-3.005-12.042-2.828-16.875 1.437M208.5 36.063c5.833 3.4 10.603 8.31 13.027 14.726 1.625 7.597 1.745 15.86-2.406 22.61L218 75l-1.687 2.688c-5.675 5.674-12.177 8.036-20.063 8.562-7.859-.162-13.828-2.926-19.523-8.281-5.16-5.883-7.101-12.757-7.012-20.461.732-6.442 3.632-12.984 8.285-17.508 9.152-6.516 19.84-8.886 30.5-3.937M189 56c-1.253 3.259-1.233 4.473.188 7.688 1.896 2.419 2.88 3.45 5.812 4.312 3.192-.16 4.725-.8 7.313-2.687 1.891-2.247 1.891-2.247 2.25-5.25-.762-4.149-2.2-5.577-5.563-8.063-4.86-.893-7.098.024-10 4M325 426c2.597 2.337 2.964 3.79 3.563 7.25-.782 5.21-3.15 7.857-6.563 11.75l-2.016 2.344A335 335 0 0 1 313 455l-2.496 2.695c-18.955 19.772-18.955 19.772-27.312 20.452l-2.211.03-2.509.039-2.714.022-2.788.025q-2.922.02-5.845.032c-2.981.017-5.96.061-8.941.105q-2.838.015-5.676.026l-2.703.053c-6.177-.022-6.177-.022-9.34-2.326-1.933-2.84-2.396-4.714-2.465-8.153 1.121-3.07 1.943-5.253 4.653-7.168 3.248-1.152 6.324-.993 9.718-.894q2.216.012 4.432.019c2.305.014 4.606.042 6.91.115 10.784.31 17.435-1.094 25.546-8.439L292 449l2.204-1.989a127 127 0 0 0 5.171-5.074l1.773-1.79c3.222-3.298 6.126-6.668 8.852-10.397 2.032-2.734 2.99-3.745 6.063-5.437 3.616-.385 5.673.091 8.937 1.687M416.133 101.773c8.867-.376 8.867-.376 13.18 2.227 2.332 4.147 2.287 6.273 1.687 11-1.743 3.236-2.472 3.824-6 5-1.763.19-3.527.377-5.293.543-11.547 1.146-22.279 3.824-30.914 12.066-2.702 3.603-3.743 7.403-4.746 11.754-1.348 3.395-2.744 4.195-6.047 5.637-3.938-.07-6.188-.402-9.375-2.75-2.311-3.2-2.862-5.35-2.371-9.29 2.193-11.496 8.006-19.178 17.543-25.944 10.012-6.198 20.636-9.396 32.336-10.243M106 85c2.92 1.988 4.611 3.431 5.48 6.938.164 2.33.242 3.821-.48 6.062-3.566 4.057-7.387 6.575-12.172 8.953l-2.066 1.048a694 694 0 0 1-4.317 2.157 581 581 0 0 0-6.523 3.31C72.679 120.156 72.679 120.156 65 120c-3-1.437-3-1.437-5-4-.963-2.734-1.476-5.128-1-8 3.16-4.893 6.954-6.924 12.02-9.426l2.353-1.189q2.458-1.236 4.925-2.453a694 694 0 0 0 7.485-3.778q2.399-1.198 4.799-2.392l2.239-1.146C97.37 85.402 100.828 84.41 106 85M73 0c2.9.887 5.495 2.171 8.176 3.578l2.22 1.115q2.301 1.163 4.59 2.35a569 569 0 0 0 7.016 3.562q2.245 1.14 4.486 2.286c.695.35 1.39.702 2.106 1.064 3.7 1.931 6.725 3.819 9.406 7.045.734 3.067.558 5.905 0 9-1.894 2.914-3.24 3.724-6.473 4.898-5.48.158-9.527-2.327-14.34-4.773l-3.063-1.518C84.074 27.087 81.037 25.545 78 24l-5.219-2.598q-2.298-1.165-4.594-2.34l-2.134-1.067c-2.672-1.403-4.735-2.55-6.51-5.03C58.646 9.718 59.193 7.23 60 4c3.143-5.108 7.568-4.615 13-4M65.535 50.371l2.775-.007q2.895 0 5.792.04c2.954.033 5.906.02 8.86 0q2.819.01 5.636.03l2.673-.015c6.116.117 6.116.117 9.254 2.491 2.504 3.548 2.903 5.726 2.475 10.09-2.15 3.338-3.204 4.735-7 6-5.518.278-11.035.313-16.56.35q-2.745.025-5.49.082a522 522 0 0 1-7.938.091l-2.463.07c-4.16-.016-6.766-.342-10.065-2.997C51 64 51 64 50.238 61.937L50.313 60l-.012-1.937c2.57-7.584 8.383-7.795 15.234-7.692M116 444c2.903 2.606 3.874 4.137 4.438 8-.491 3.363-1.42 5.284-3.438 8-3.23 1.615-6.509 1.58-10 1-3-2.062-3-2.062-5-5-.686-4.267-.5-6.207 1.813-9.875 3.906-3.794 7.11-3.372 12.187-2.125M81 418c3.342 2.143 3.892 3.603 4.938 7.438.07 4.006-.406 5.506-2.938 8.562-2.655 2.086-4.068 1.999-7.5 1.938C72 435 72 435 69.563 432.875c-1.998-3.676-2.227-5.747-1.563-9.875 3.718-5.46 6.825-5.882 13-5"/></svg>