<svg xmlns="http://www.w3.org/2000/svg" width="512" height="512"><path d="m232.375 30.625 2.397-.08 2.251-.006 1.967-.025c3.238.783 4.713 2.064 7.01 4.486.748 3.05.653 6.047.601 9.175l.013 2.844c.008 3.153-.02 6.304-.046 9.457q-.003 3.384.002 6.77c.001 6.134-.028 12.267-.063 18.401-.031 6.408-.034 12.815-.04 19.223q-.022 16.135-.09 32.271a14944 14944 0 0 0-.106 35.309l-.02 10.279c-.051 28.424-.14 56.847-.251 85.271l1.876.62 2.46.817 2.439.809a106 106 0 0 1 7.002 2.66l2.514 1.05 2.647 1.114 2.851 1.192q4.607 1.928 9.211 3.863l9.749 4.078 6.614 2.767c9.446 3.954 18.903 7.881 28.364 11.798q20.147 8.34 40.273 16.732 17.999 7.505 36.01 14.978 3.887 1.612 7.772 3.228c8.394 3.486 16.8 6.942 25.23 10.34l7.055 2.86c2.19.884 4.384 1.757 6.578 2.63q1.985.803 3.968 1.609l3.462 1.386c3.002 1.508 4.833 2.853 6.925 5.469 1.12 7.263-1.594 12.469-4.812 18.875l-1.507 3.059C428.127 424.984 387.662 463.882 338 487l-2.17 1.012c-16.381 7.52-33.562 12.672-51.205 16.3l-2.152.447c-14.623 2.792-29.308 3.622-44.16 3.553l-2.5-.005c-13.46-.05-26.566-.761-39.813-3.307l-2.695-.504C144.995 495.194 102.56 471.723 68 437l-2.508-2.402C40.744 410.625 23.13 379.384 12 347l-.736-2.093C8.357 336.575 6.23 328.11 4.313 319.5l-.615-2.73c-3.31-15.492-4.073-30.61-4.01-46.395l.006-2.954C-.256 253.41.064 239.75 3 226l.586-2.9C15.299 166.143 46.902 113.659 94 79l2.68-2.059c38.667-29.206 87.374-45.403 135.695-46.316m-25.437 18.563-2.695.4c-55.549 8.732-108.85 39.38-142.606 84.752A779 779 0 0 0 59 138l-1.435 1.989c-33.82 47.383-48.342 106.765-39.19 164.368C24.529 341.15 38.882 375.637 62 405l2.195 2.836C72.775 418.632 82.235 429.338 93 438l3.219 2.691C117.837 458.594 142.41 472.027 169 481l2.224.752c56.437 18.688 117.3 11.134 170.038-14.822 18.744-9.52 35.616-22.41 50.738-36.93l1.708-1.625c19.81-18.94 34.09-40.919 46.292-65.375-2.61-2.61-5.58-3.586-8.953-4.914l-2.165-.868a1948 1948 0 0 0-4.669-1.863 3067 3067 0 0 1-12.682-5.09l-2.654-1.069c-8.914-3.6-17.774-7.323-26.627-11.071l-11.966-5.058c-9.036-3.813-18.097-7.567-27.159-11.317l-10.305-4.266-2.638-1.092a9935 9935 0 0 1-20.002-8.314l-3.032-1.263q-7.592-3.164-15.181-6.335a3999 3999 0 0 0-30.053-12.421l-8.556-3.505q-2.715-1.11-5.432-2.207-3.729-1.51-7.45-3.038l-2.224-.888c-3.523-1.458-5.083-2.167-7.252-5.421a127 127 0 0 1-.278-8.903l-.018-2.792c-.017-3.1-.02-6.2-.023-9.3l-.03-6.651a7568 7568 0 0 1-.056-18.092c-.015-6.298-.042-12.596-.068-18.895q-.061-15.861-.105-31.724a36371 36371 0 0 0-.105-32.677l-.007-2.035-.037-10.102Q230.118 89.914 230 48q-3.09-.019-6.177-.03l-3.475-.017c-4.538.064-8.93.553-13.41 1.234"/><path d="m274.613 3.504 2.746-.01 2.954.068 3.096.045C344.437 5.076 401.32 32.118 444 75c1.241 1.19 1.241 1.19 2.508 2.402C471.256 101.375 488.87 132.616 500 165l.736 2.093c2.907 8.332 5.034 16.797 6.952 25.407l.614 2.73c3.283 15.368 4.105 30.42 4.073 46.083v2.924c-.035 15.906-1.049 31.162-4.375 46.763l-.551 2.678c-2.138 10.125-5.167 19.95-8.449 29.76l-.97 2.963c-1.806 5.192-3.326 9.379-8.03 12.599-5.496.51-9.607-.7-14.555-2.902l-2.185-.936a734 734 0 0 1-4.68-2.026 1095 1095 0 0 0-7.538-3.255 4418 4418 0 0 1-7.957-3.415c-8.587-3.696-17.216-7.285-25.856-10.854l-7.682-3.178q-5.175-2.143-10.352-4.284-13.006-5.383-26.007-10.775l-2.587-1.072c-12.6-5.223-25.193-10.463-37.782-15.712-12.496-5.211-25-10.405-37.507-15.591l-2.57-1.066-4.963-2.057a2825 2825 0 0 1-4.784-1.99 583 583 0 0 0-11.872-4.801l-2.367-.937a339 339 0 0 0-4.431-1.716c-3.942-1.568-6.33-2.658-8.325-6.433-.447-3.162-.409-6.3-.388-9.49l-.016-2.946c-.014-3.268-.007-6.535 0-9.802l-.02-7.017c-.019-6.36-.018-12.719-.012-19.078.004-5.974-.004-11.948-.011-17.922-.014-12.553-.009-25.105.003-37.658.01-11.489-.003-22.977-.027-34.465q-.037-17.689-.027-35.378c.003-6.623 0-13.245-.017-19.867q-.022-9.338.008-18.674.005-3.432-.01-6.865c-.013-3.116-.002-6.232.016-9.348l-.03-2.763c.073-6.107.073-6.107 2.425-9.289 2.464-1.682 3.755-1.941 6.72-1.934M282 20v217c22.159 9.418 44.28 18.811 66.566 27.904 12.129 4.95 24.22 9.988 36.309 15.034l12.207 5.093 3.027 1.263c10.144 4.232 20.299 8.439 30.454 12.644A9684 9684 0 0 1 481 320c2.49-2.983 3.676-5.566 4.719-9.297.29-1.033.582-2.066.882-3.13l.899-3.323.936-3.42c2.304-8.562 4.295-17.046 5.564-25.83l.308-2.078c4.178-29.271 1.754-58.356-5.308-86.922l-.558-2.283c-8.342-33.279-26.188-64.34-49.376-89.463-1.833-2-3.576-4.047-5.316-6.129C424.19 77.23 412.795 68.329 401 60l-1.704-1.206C382.066 46.786 362.854 37.7 343 31l-2.224-.752C321.58 23.89 302.218 21.758 282 20"/></svg>