<svg xmlns="http://www.w3.org/2000/svg" data-name="Layer 1" viewBox="0 0 24 24"><path d="M19.5 6H19V2.5C19 1.122 17.879 0 16.5 0h-9A2.503 2.503 0 0 0 5 2.5V6h-.5A4.505 4.505 0 0 0 0 10.5v6C0 18.981 2.019 21 4.5 21H5v.5C5 22.878 6.122 24 7.5 24h9c1.379 0 2.5-1.122 2.5-2.5V21h.5c2.481 0 4.5-2.019 4.5-4.5v-6C24 8.019 21.981 6 19.5 6M6 2.5C6 1.673 6.673 1 7.5 1h9c.827 0 1.5.673 1.5 1.5V6H6zm12 19c0 .827-.673 1.5-1.5 1.5h-9c-.827 0-1.5-.673-1.5-1.5v-5c0-.827.673-1.5 1.5-1.5h9c.827 0 1.5.673 1.5 1.5zm5-5c0 1.93-1.57 3.5-3.5 3.5H19v-3.5c0-1.378-1.121-2.5-2.5-2.5h-9A2.503 2.503 0 0 0 5 16.5V20h-.5C2.57 20 1 18.43 1 16.5v-6C1 8.57 2.57 7 4.5 7h15c1.93 0 3.5 1.57 3.5 3.5zm-4-6a.5.5 0 0 1-.5.5h-3a.5.5 0 0 1 0-1h3a.5.5 0 0 1 .5.5"/></svg>