<svg xmlns="http://www.w3.org/2000/svg" width="512" height="512"><path d="M128 25.477c3.785.01 7.57-.005 11.354-.016a5591 5591 0 0 1 22.18-.002q9.021.013 18.042.006l2.603-.002 5.238-.004c16.333-.011 32.666.002 49 .023q20.977.026 41.954-.003a23583 23583 0 0 1 54.053-.014l2.592.002q9 .003 18-.012 10.983-.018 21.965.013c3.729.01 7.457.015 11.186.001 23.136-.075 42.965.532 60.618 17.32L449 45c.576.565 1.152 1.13 1.746 1.71 10.815 11.519 13.711 26.348 13.642 41.54q.007 2.14.016 4.28c.014 3.898.01 7.795.003 11.692-.005 4.212.008 8.424.018 12.636.017 8.244.018 16.487.013 24.73q-.006 10.056.002 20.11l.003 2.894.004 5.822c.014 18.187.009 36.374-.003 54.562-.01 16.622.003 33.245.027 49.867q.037 25.628.027 51.255c-.003 9.585 0 19.17.017 28.755q.022 12.24-.002 24.481c-.009 4.16-.011 8.32.004 12.479q.02 5.722-.01 11.446c-.006 2.018.008 4.036.023 6.054-.128 16.068-5.596 29.697-16.592 41.437-11.869 11.205-26.083 17.103-42.438 17.75-14.56-.68-28.484-6.429-41.947-11.593-11.291-4.308-21.596-7.719-33.297-2.52l-2.318 1.113-2.58 1.165A877 877 0 0 0 316 461a5070 5070 0 0 1-15.678 7.239q-3.404 1.577-6.799 3.175c-18.492 8.62-36.301 14.04-56.523 7.586-11.84-4.471-23.295-10.058-34.815-15.282q-3.94-1.784-7.88-3.566l-2.381-1.083c-19.116-8.635-29.624-7.47-49.049-.194q-4 1.477-8.009 2.934-2.476.9-4.942 1.83c-16.543 6.087-32.745 5.808-49.033-.924C73.982 459.212 68.462 454.443 63 449l-1.71-1.64c-10.98-11.502-13.593-26.144-13.557-41.37l-.014-4.275c-.012-3.901-.012-7.803-.01-11.705 0-4.213-.01-8.427-.02-12.64q-.023-12.376-.023-24.751-.002-10.064-.012-20.127-.026-28.55-.025-57.1v-6.22c.001-16.636-.018-33.271-.046-49.907q-.043-25.641-.04-51.282c0-9.592-.005-19.183-.027-28.775a6295 6295 0 0 1-.009-24.503c.006-4.164.007-8.327-.01-12.491q-.024-5.73.004-11.457c.004-2.02-.01-4.04-.027-6.06.12-16.074 5.59-29.704 16.589-41.447C82.536 25.808 103.868 25.39 128 25.477M85 70c-5.598 8.99-5.147 18.753-5.134 28.999l-.007 3.981a5446 5446 0 0 0-.004 10.909q-.002 5.888-.01 11.777-.012 11.531-.012 23.062 0 9.375-.006 18.75-.014 26.59-.012 53.18v5.792q-.002 23.25-.023 46.499-.023 23.883-.02 47.766.001 13.404-.014 26.809-.014 11.412-.005 22.824.007 5.82-.005 11.64c-.01 4.21-.003 8.421.005 12.632l-.016 3.694c.043 10.538.598 20.507 7.986 28.565 5.467 5.206 10.928 7.917 18.503 8.272 3.914-.157 6.832-.898 10.528-2.163l1.887-.636a824 824 0 0 0 5.922-2.04q1.941-.66 3.884-1.318a809 809 0 0 0 15.463-5.407l3.742-1.357 3.34-1.225c5.76-1.924 11.054-2.217 17.07-2.255 1.175-.03 1.175-.03 2.374-.063 14.316-.092 26.487 6.13 39.189 12l5.16 2.358q5.1 2.328 10.196 4.66l2.51 1.147 5.058 2.317c2.447 1.12 4.897 2.23 7.35 3.339l2.21 1.017c9.702 4.36 17.016 4.04 26.891.475 4.413-1.878 8.736-3.931 13.063-6q3.718-1.75 7.44-3.492l1.893-.888c6.341-2.974 12.71-5.886 19.104-8.745l2.977-1.36c19.295-8.57 36.939-8.554 56.523-1.515l7.148 2.523a1846 1846 0 0 1 18.097 6.525c7.058 2.44 13.324 2.71 20.415.116 6.946-3.455 11.77-8.655 14.684-15.793 2.037-7.362 1.8-14.79 1.79-22.37l.007-3.981q.008-5.455.004-10.909c0-3.926.006-7.851.01-11.777q.012-11.531.012-23.062 0-9.375.006-18.75.014-26.59.012-53.18v-5.792q.002-23.25.023-46.499.023-23.883.02-47.766-.001-13.404.014-26.809.014-11.412.005-22.824-.007-5.82.005-11.64c.01-4.21.003-8.421-.005-12.632l.016-3.694c-.043-10.538-.598-20.507-7.986-28.565-8.228-7.836-16.902-8.566-27.916-8.502l-3.79-.014c-3.452-.013-6.903-.006-10.354.003-3.73.007-7.46-.004-11.19-.012-7.3-.013-14.598-.01-21.897-.002q-8.9.01-17.801.005l-2.562-.002q-2.577 0-5.153-.003c-16.096-.008-32.191.002-48.286.018q-20.703.018-41.406-.003a30539 30539 0 0 0-53.25-.01l-2.552.001q-8.888.003-17.774-.009-10.833-.013-21.668.01-5.524.014-11.05.001c-3.996-.01-7.993.002-11.99.017l-3.51-.02C100.699 58.682 92.646 61.19 85 70"/><path d="m154.9 217.733 2.718-.014c3.006-.013 6.012-.011 9.018-.01q3.232-.008 6.466-.02c5.855-.018 11.71-.022 17.566-.024q7.332-.003 14.664-.016 17.3-.023 34.6-.02c11.896.002 23.793-.02 35.689-.051q15.321-.038 30.642-.036c6.1 0 12.2-.005 18.3-.026q8.609-.029 17.215-.005 3.157.003 6.313-.015c2.877-.015 5.752-.006 8.629.01l2.513-.032c5.686.067 10.008 1.353 14.767 4.526 4.643 4.881 5.357 8.967 5.281 15.496-.556 4.954-3.304 7.643-6.906 10.817-4.34 3.083-7.902 2.835-13.079 2.834l-2.764.011q-4.614.015-9.226.019l-6.593.02q-8.975.025-17.95.036l-11.208.018a35908 35908 0 0 1-39.08.044l-2.021.002c-10.808.008-21.616.033-32.424.066q-16.641.049-33.283.054c-6.23.002-12.46.011-18.69.036q-8.79.034-17.581.018-3.228 0-6.456.02c-2.936.017-5.872.01-8.808-.003l-2.584.033c-5.355-.058-8.37-.984-12.628-4.521-4.43-5.028-5.3-7.882-5.215-14.46.404-4.77 2.175-7.554 5.59-10.79 5.541-3.694 10.043-4.041 16.524-4.017M152.704 132.853l2.764-.011q4.614-.015 9.226-.019l6.593-.02q8.975-.025 17.95-.036l11.208-.018a35908 35908 0 0 1 39.08-.044l2.021-.002c10.808-.008 21.616-.033 32.424-.066q16.642-.049 33.283-.054c6.23-.002 12.46-.011 18.69-.036q8.79-.035 17.581-.018 3.228 0 6.456-.02c2.936-.017 5.872-.01 8.808.003l2.584-.033c5.355.058 8.37.984 12.628 4.521 4.43 5.028 5.3 7.882 5.215 14.46-.404 4.77-2.175 7.554-5.59 10.79-5.541 3.694-10.043 4.041-16.524 4.017l-2.719.014c-3.006.013-6.012.011-9.018.01q-3.232.008-6.466.02c-5.855.018-11.71.022-17.566.024q-7.332.004-14.664.016-17.3.023-34.6.02c-11.896-.002-23.793.02-35.689.051q-15.321.038-30.642.036c-6.1 0-12.2.005-18.3.026q-8.609.029-17.215.005-3.157-.003-6.313.015c-2.877.015-5.752.006-8.629-.01l-2.513.032c-5.686-.067-10.008-1.353-14.767-4.526-4.643-4.881-5.357-8.967-5.281-15.496.556-4.954 3.304-7.643 6.906-10.817 4.34-3.083 7.902-2.835 13.079-2.834M154.51 303.482l3.49-.02c3.803-.018 7.604-.007 11.406.007l7.935-.012q8.313-.01 16.624.022c6.398.021 12.795.014 19.192-.008 6.166-.02 12.332-.018 18.498-.006q3.927.004 7.856-.01c3.66-.01 7.32.005 10.98.027l3.277-.024c6.075.068 9.604.496 14.232 4.542 3.628 3.82 4.31 6.883 4.5 12-.19 5.117-.872 8.18-4.5 12-5.478 4.786-10.418 4.576-17.494 4.533-1.15.01-2.3.018-3.486.027-3.797.022-7.594.015-11.391.006q-3.964.008-7.928.02c-5.537.011-11.074.005-16.611-.01a2488 2488 0 0 0-19.168.032c-6.16.03-12.321.032-18.482.022q-3.922 0-7.845.02c-3.658.018-7.314.004-10.972-.019l-3.267.036c-6.79-.086-10.288-1.065-15.356-5.667-3.568-4.949-3.832-10.1-3-16 1.479-4.402 4.097-7.685 8.041-10.185 4.258-1.772 8.93-1.367 13.469-1.333"/></svg>