<svg xmlns="http://www.w3.org/2000/svg" width="512" height="512"><path d="m254.875 80.625 2.459.005c29.458.132 57.897 6.666 83.666 21.37l1.886 1.045c40.802 22.706 69.284 60.939 82.409 105.46 3.008 10.647 3.008 10.647 2.705 15.495l2.188-2.187L433 219l2.438-2.625c4.682-4.34 8.925-6.017 15.25-5.793 5.087.92 8.978 3.605 12.011 7.727 1.486 3.073 1.734 5.165 1.738 8.566l.06 2.992c-1.077 6.797-5.73 11.915-9.997 17.07a454 454 0 0 0-12.687 16.313c-15.503 20.823-15.503 20.823-21.938 22.625-11.686.377-19.198-6.4-27.907-13.316a493 493 0 0 0-7.062-5.466 930 930 0 0 1-4.734-3.652 433 433 0 0 0-6.656-5.039c-15.399-11.49-15.399-11.49-16.579-19.402-.184-4.683.592-7.935 3.063-12 4.083-4.18 7.357-6.16 13.188-6.312 5.2.067 8.68 1.147 12.812 4.312l2.426 1.824A334 334 0 0 1 395 232c-1.878-16.51-8.084-31.538-16-46l-1.492-2.762c-7.69-13.49-18.375-26.551-30.508-36.238-.747-.6-.747-.6-1.51-1.21-21.175-16.777-46.54-27.782-73.49-30.79l-1.998-.237c-36.25-4.025-73.717 7.497-102.335 29.89-11.08 8.954-21.37 19.261-28.917 31.41-2.611 4.023-5.053 6.6-9.75 7.937-4.877.603-9.266.679-13.875-1.125-4.802-4.237-7.878-7.964-8.437-14.562.33-14.001 16.186-27.717 25.312-37.313l1.758-1.918c9.494-10.043 21.41-18.05 33.242-25.082l1.735-1.034c26.225-15.37 55.918-22.428 86.14-22.341M103.035 227.55c6.376 2.857 11.816 7.786 17.26 12.103a583 583 0 0 0 6.593 5.11q1.612 1.237 3.22 2.479c2.779 2.145 5.57 4.27 8.388 6.363 15.387 11.487 15.387 11.487 16.566 19.395.185 4.683-.591 7.935-3.062 12-4.083 4.18-7.357 6.16-13.187 6.313-5.202-.068-8.682-1.148-12.813-4.313l-2.426-1.824A334 334 0 0 1 117 280c1.878 16.51 8.084 31.538 16 46l1.492 2.762c7.69 13.49 18.375 26.551 30.508 36.238l1.51 1.21c21.14 16.75 46.562 27.86 73.49 30.79l2.112.237c35.295 3.658 73.168-6.48 100.95-28.862A362 362 0 0 0 348 364l2.566-2.207c8.147-7.102 15.106-14.66 21.059-23.668 3.302-4.905 5.627-8.242 11.375-10.125 4.887-.58 9.255-.683 13.875 1.125 4.802 4.237 7.878 7.964 8.438 14.563-.33 14-16.187 27.716-25.313 37.312l-1.758 1.918c-9.494 10.043-21.41 18.05-33.242 25.082l-1.735 1.034c-26.363 15.45-56.088 22.423-86.452 22.279l-2.478-.007c-11.996-.05-23.644-.368-35.335-3.306l-2.557-.634C170.363 415.63 131.115 388.672 106 348c-9.71-16.37-23.235-40.239-22-60-2.513 2.443-4.834 4.768-6.875 7.625-3.697 4.132-7.654 5.212-13.062 5.813-5.972-.267-10.398-2.773-14.563-6.938-2.186-5.101-2.437-10.037-1.5-15.5 2.547-5.2 5.822-9.494 9.5-13.937a454 454 0 0 0 12.688-16.313c3.528-4.732 7.074-9.443 10.75-14.062l2.027-2.551c5.647-5.93 12.311-6.686 20.07-4.586"/></svg>