<svg xmlns="http://www.w3.org/2000/svg" width="512" height="512"><path d="M506.563 1.688c3.03 2.874 5.057 5.537 5.943 9.674.249 10.82-3.404 20.79-6.565 31.005q-.974 3.217-1.946 6.436a3604 3604 0 0 1-4.209 13.815c-2.261 7.372-4.5 14.752-6.735 22.132-2.335 7.705-4.671 15.41-7.017 23.111a11942 11942 0 0 0-15.413 51.022l-1.02 3.403-5.072 16.938c-3.077 10.279-6.162 20.555-9.246 30.832l-5.158 17.194-2.062 6.875-1.032 3.438-3.094 10.312-1.03 3.438-21.555 71.843-1.022 3.405q-7.387 24.624-14.762 49.251l-7.396 24.684q-3.24 10.809-6.474 21.619-2.005 6.699-4.013 13.396l-1.838 6.138c-3.13 10.474-6.309 20.93-9.593 31.357l-.861 2.76c-3.997 12.595-9.887 23-21.46 30.12-12.859 6.648-27.5 8.831-41.558 4.489-12.423-4.959-22.21-13.67-28.023-25.74-2.351-6.322-3.004-12.806-3.76-19.477-.539-4.665-1.174-9.316-1.806-13.968l-.406-3c-2.895-20.978-7.022-41.75-11.505-62.44l-.74-3.433c-12.51-59.485-12.51-59.485-49.306-105.324-27.092-17.268-59.525-25.173-90.579-31.868l-3.442-.746c-20.542-4.419-41.171-8.346-61.998-11.165l-2.94-.4a667 667 0 0 0-13.56-1.692c-13.027-1.56-24.433-5.037-33.267-15.423C.95 202.76-1.715 190.064 0 174c2.333-12.122 9.568-22.974 19.625-30.162 5.235-3.44 10.389-5.443 16.363-7.248l3.202-.996c3.932-1.215 7.87-2.406 11.81-3.594l4.93-1.49c13.257-4.005 26.526-7.962 39.797-11.916q8.866-2.644 17.73-5.292l3.646-1.088 18.568-5.544c24.588-7.34 49.167-14.71 73.744-22.088l17.059-5.12 20.612-6.186q23.21-6.965 46.421-13.926c57-17.084 57-17.084 113.98-34.236q6.543-1.974 13.088-3.943c10.437-3.14 20.866-6.299 31.277-9.525 4.676-1.448 9.356-2.883 14.036-4.317q3.233-.996 6.46-2.01c25.167-7.917 25.167-7.917 34.214-3.631m-79.05 49.628-2.62.792c-2.907.88-5.808 1.775-8.71 2.67l-6.225 1.89q-6.72 2.043-13.434 4.1a9423 9423 0 0 1-21.525 6.56l-11.109 3.375q-5.678 1.726-11.356 3.454c-24.143 7.346-48.317 14.584-72.498 21.8q-13.285 3.966-26.57 7.937l-6.695 2a58105 58105 0 0 0-52.388 15.68l-3.594 1.078a46744 46744 0 0 0-38.76 11.636l-13.478 4.052-3.308.994a7672 7672 0 0 1-42.429 12.622 8725 8725 0 0 0-15.56 4.605 2481 2481 0 0 1-14.083 4.128c-2.816.82-5.628 1.656-8.438 2.496a578 578 0 0 1-5.617 1.623c-7.111 2.144-13.432 4.489-17.272 11.217-1.752 4.098-1.356 8.624-.844 12.975 2.436 4.963 5.851 8.748 11.081 10.827 2.626.842 5.264 1.602 7.92 2.34l3.083.889c3.415.98 6.833 1.945 10.252 2.909q3.672 1.05 7.344 2.102a7807 7807 0 0 0 15.898 4.534 6793 6793 0 0 1 25.704 7.376q20.272 5.846 40.558 11.642 11.64 3.325 23.271 6.673 10.395 2.994 20.798 5.96 5.438 1.551 10.872 3.12c3.979 1.15 7.963 2.284 11.948 3.415l3.566 1.04 3.273.92 2.83.812c2.957.501 4.725.26 7.602-.559 1.994-1.405 1.994-1.405 3.786-3.293l2.173-2.15 2.349-2.384 2.525-2.515q3.464-3.458 6.91-6.936c2.48-2.498 4.971-4.983 7.462-7.47a6415 6415 0 0 0 12.918-12.953q9.329-9.374 18.679-18.726 15.164-15.179 30.306-30.38 14.71-14.765 29.436-29.517l1.833-1.837 9.106-9.121Q402.26 87.876 440 50c-4.548-1.431-8.075-.061-12.487 1.316M462 72a51454 51454 0 0 0-87.213 86.719l-1.85 1.842c-9.888 9.85-19.792 19.683-29.702 29.51a13210 13210 0 0 0-30.446 30.294 5461 5461 0 0 1-18.808 18.683 2628 2628 0 0 0-12.873 12.823 962 962 0 0 1-7.443 7.39 880 880 0 0 0-8.04 8.032l-2.415 2.335c-3.743 3.66-3.743 3.66-5.525 8.41.217 2.108.677 3.942 1.315 5.962l.942 3.857q.577 2.046 1.17 4.088l.652 2.297c.717 2.52 1.442 5.036 2.167 7.553q.778 2.72 1.552 5.443 2.104 7.368 4.222 14.732 2.214 7.717 4.42 15.435 3.709 12.956 7.43 25.91 4.298 14.969 8.576 29.944a27076 27076 0 0 0 7.369 25.73q2.203 7.68 4.398 15.36 2.063 7.22 4.142 14.434.76 2.647 1.515 5.295 1.032 3.618 2.079 7.231l.596 2.112c2.184 7.49 4.601 11.985 10.77 16.579 3.949 1.974 8.696 1.438 13 1 4.847-2.38 8.635-5.774 10.779-10.84a161 161 0 0 0 2.105-6.76l.794-2.622c.873-2.894 1.73-5.793 2.588-8.692q.933-3.111 1.87-6.221a6011 6011 0 0 0 5.055-16.935c1.786-5.996 3.584-11.988 5.382-17.98 3.379-11.274 6.746-22.551 10.11-33.83 3.46-11.605 6.932-23.206 10.406-34.807q7.911-26.42 15.805-52.847a68744 68744 0 0 1 23.05-76.983l6.302-21.021c6.27-20.925 12.552-41.846 18.924-62.74q1.223-4.01 2.442-8.02l.784-2.58 1.528-5.023a4230 4230 0 0 1 4.34-14.175q1.3-4.236 2.585-8.476c.577-1.893 1.165-3.783 1.752-5.672l1.017-3.366.89-2.898c.517-2.641.222-3.976-.508-6.512"/></svg>