<svg xmlns="http://www.w3.org/2000/svg" width="512" height="512"><path d="M419.188 168.5A605 605 0 0 1 424 173l2.27 2.11c25.871 24.829 39.31 60.437 40.859 95.835C467.854 309.522 453.39 345.081 427 373l-2.262 2.457c-24.974 26.213-60.743 39.864-96.555 40.828-39.235.449-74.187-14.558-102.847-40.945-4.15-4.158-7.764-8.684-11.336-13.34l-2.023-2.582c-22.506-29.666-31.627-66.692-27.157-103.521 3.914-28.196 15.517-53.418 34.18-74.897l1.613-1.98c3.71-4.53 7.888-8.285 12.387-12.02l2.277-1.937c53.154-44.109 132.487-41.932 183.91 3.437M300 151.625l-2.503.54C277.403 156.724 257.464 166.099 243 181l1.27 1.253a3797 3797 0 0 1 5.667 5.622l1.999 1.973 1.904 1.894 1.761 1.746c2.243 2.425 2.402 3.55 2.649 6.95C258 204 258 204 257 205.938c-3.3 1.753-6.43 1.878-10 1.062-3.088-2.116-5.494-4.735-8-7.5l-2.059-2.168A348 348 0 0 1 232 192c-20.417 19.854-29.062 47.378-32 75l2.247.012c3.356.033 6.71.104 10.065.175l3.538.018 3.388.088 3.127.048C225 268 225 268 226.86 270.349c1.474 3.428 1.362 5.139.14 8.651-4.601 3.991-10.034 3.552-15.812 3.688l-2.967.103q-3.61.123-7.221.209c-.157 6.133.235 11.595 1.625 17.563l.542 2.35c4.14 17.16 11.544 33.545 22.208 47.65l1.263 1.68c1.298 1.687 1.298 1.687 3.362 3.757 2.95.325 2.95.325 4.499-1.285l1.575-1.777 1.776-1.915a337 337 0 0 0 3.617-4.046c4.443-4.739 4.443-4.739 7.703-5.452 2.897-.039 5.251.167 7.83 1.538 1.703 3.298 1.602 5.265 1 8.937-1.99 3.014-4.438 5.467-7 8l-2.246 2.285A473 473 0 0 1 243 368c15.459 17.058 42.177 29.024 65 31 3 .047 6 .037 9 0l.044-1.956c.075-2.932.171-5.863.269-8.794l.068-3.078.107-2.969.08-2.73c.512-2.932 1.392-4.327 3.432-6.473 3.508-1.144 5.246-1.327 8.651.15C332 375 332 375 332.66 377.544l.048 2.999.088 3.252.017 3.392.077 3.428q.088 4.193.111 8.385c7.059.288 13.345-.408 20.188-2.125l2.77-.685C375.586 391.158 392.41 381.787 408 369c-4.106-4.949-8.429-9.413-13.145-13.79-2.093-2.493-2.603-3.991-2.855-7.21.813-2.75.813-2.75 2-5 3.26-1.63 5.378-1.467 9-1 3.021 1.978 5.468 4.44 8 7l2.285 2.246A473 473 0 0 1 419 357c19.414-18.598 29.871-47.682 31-74l-1.848-.044c-2.78-.075-5.56-.172-8.34-.269l-2.908-.068c-9.216-.35-9.216-.35-12.904-3.619-1.046-3.597-1.634-5.8.154-9.185 2.48-2.438 3.948-2.352 7.389-2.424l3.252-.098 3.392-.043 3.428-.09q4.192-.105 8.385-.16c.582-27.64-12.957-54.02-30-75-3.238 2.687-6.34 5.264-9.152 8.402-5.655 6.29-5.655 6.29-9.352 7.243-2.326.04-4.255-.024-6.496-.645-2.425-2.425-2.686-3.62-3-7 1.317-5.4 5.257-8.594 9.125-12.312l1.996-1.956A812 812 0 0 1 408 181c-14.635-15.277-36.366-24.872-56.75-29.312l-2.365-.521c-5.38-1.09-10.396-1.315-15.885-1.167l-.028 2.156c-.054 3.22-.138 6.437-.222 9.656l-.043 3.393-.098 3.252-.063 3C332 174 332 174 330.185 175.85c-3.354 1.765-5.61 1.125-9.185.15-2.864-2.95-3.394-5.155-3.512-9.203l-.107-2.969-.068-3.078-.104-3.125A778 778 0 0 1 317 150c-5.912-.175-11.226.377-17 1.625"/><path d="m298.493 49.839 3.996-.03 4.312-.012 4.439-.017q4.65-.015 9.303-.02c3.96-.006 7.921-.03 11.882-.058 3.057-.019 6.114-.024 9.17-.026q2.19-.004 4.379-.024c14.319-.12 14.319-.12 20.026 3.348 4.507 4.863 5.144 7.976 5.098 14.414l-.005 2.211c-.005 2.333-.018 4.667-.03 7q-.009 2.37-.014 4.742Q371.032 87.183 371 93l2.355.562C401.207 100.34 426.727 113.806 448 133q2.092 1.783 4.188 3.562c26.863 23.83 45.268 55.527 54.625 90.063l.553 2.017c3.624 14.298 5.14 28.69 5.025 43.41-.016 2.448 0 4.895.02 7.343.019 14.659-1.791 29.145-5.723 43.292l-.642 2.357c-2.197 7.847-4.89 15.446-8.046 22.956l-.854 2.037C490.16 366.382 480.827 381.705 469 395l-2.203 2.531A391 391 0 0 1 460 405l-2.543 2.812-2.582 2.75-2.32 2.504c-3.208 2.428-5.58 2.725-9.555 2.934-3.398-1.102-3.947-1.921-6-5-.562-2.688-.562-2.688 0-6 2.521-3.734 5.759-6.819 9.012-9.914 28.051-26.859 47.275-67.841 49.165-106.729.385-24.418-.77-47.16-9.177-70.357l-1.3-3.645c-6.236-16.493-14.646-31.62-25.7-45.355l-1.445-1.808C442.439 148.47 424.369 134.025 403 123l-1.874-.968c-20.223-10.284-43.232-17.015-66.009-17.27l-2.207-.03c-16.361-.175-31.977.104-47.91 4.268l-2.524.633C257.932 115.917 235.127 127.342 216 144c-7.806 6.724-7.806 6.724-12.25 7.75-3.834-1.046-5.4-2.571-7.75-5.75-.75-2.813-.75-2.813 0-6 4.144-5.746 9.358-10.23 15-14.438l2.253-1.692C232.513 109.614 254.679 98.698 278 93l.06-2.551q.119-4.727.257-9.455.057-2.037.105-4.076c.046-1.964.105-3.927.164-5.89l.095-3.571c.415-4.495 1.013-8.842 3.905-12.418l1.789-1.414 1.773-1.46c3.889-2.446 7.844-2.3 12.345-2.326M295 66v24l6.016-.508c18.3-1.415 35.68-1.351 53.984.508V66zM184.5 157.188c4.76 1.104 4.76 1.104 6.5 3.812.938 2.188.938 2.188 1 5-1.886 4.636-4.269 8.452-7.187 12.5-25.879 36.208-34.146 81.436-27.438 124.928 5.934 34.95 22.663 64.824 46.625 90.572l1.973 2.172C234.73 426.536 278.586 443.757 320 445l2.555.121c32.34.856 63.908-8.8 91.57-25.121 3.448-1.927 5.873-2.91 9.875-2 3.323 2.456 4.776 3.926 5.625 8-1.032 4.952-4.546 7.289-8.648 9.992-46.499 26.122-97.78 32.182-149.366 18.368-23.885-6.722-46.859-19.123-65.611-35.36l-2.367-2.035A329 329 0 0 1 196 410l-1.496-1.393c-35.33-33.16-54.752-80.248-56.727-128.334C136.693 238.791 148.964 190.204 178 159c3-2 3-2 6.5-1.812M14.776 267.514l2.968-.011c3.233-.008 6.465.014 9.697.036l6.744.003q7.062.006 14.124.046c6.039.034 12.077.042 18.115.04q6.96.003 13.92.026 3.341.01 6.681.012c3.11.005 6.22.022 9.329.043l2.794-.002 2.57.026 2.226.01c3.185.398 5.392 1.403 7.368 3.944 1.017 3.42.56 5.884-.312 9.313-1.789 2.1-3.265 2.899-6 3.275-2.62.125-5.223.142-7.846.13l-3.026.02c-3.303.018-6.606.014-9.91.009l-6.881.015q-7.213.014-14.425-.003c-6.168-.011-12.335.009-18.502.038-4.737.018-9.474.018-14.211.012q-3.412 0-6.823.019c-3.177.014-6.353.004-9.53-.013l-2.856.029c-6.37-.072-6.37-.072-9.57-2.437-1.524-2.248-1.988-3.4-1.983-6.094l-.066-2c2.229-7.088 9.327-6.56 15.405-6.486"/><path d="M329 209c2.188 1.476 2.188 1.476 4 4 .418 3.017.605 5.684.61 8.703l.05 2.539c.048 2.67.07 5.338.09 8.008q.042 2.719.09 5.438c.074 4.437.123 8.874.16 13.312l2.773-2.809 3.602-3.629 1.828-1.853 1.758-1.768 1.619-1.634c2.909-2.677 5.648-2.591 9.514-2.514 1.906.207 1.906.207 3.844 1.27 1.774 3.235 2.184 5.205 2.062 8.937-1.168 1.744-1.168 1.744-2.84 3.566l-1.936 2.113c-4.238 4.424-8.56 8.759-12.911 13.071l-2.838 2.824a5170 5170 0 0 1-5.204 5.171 133 133 0 0 0-4.348 4.522C329 280 329 280 325.5 280.437c-3.6-.45-5.018-.86-7.5-3.437-1.047-3.142-1.14-5.379-1.161-8.677l-.03-3.53-.012-3.816-.017-3.92q-.015-4.108-.02-8.216c-.006-3.503-.03-7.005-.058-10.508-.023-3.348-.025-6.696-.03-10.044l-.038-3.804.01-3.549-.011-3.115c.427-3.282 1.424-5.164 3.367-7.821 3.092-1.546 5.594-1.294 9-1M41.994 308.467c.802-.01 1.604-.018 2.43-.027 2.65-.022 5.298-.015 7.947-.006q2.764-.008 5.53-.02 5.793-.014 11.588.01c4.947.017 9.894-.007 14.842-.042 3.807-.022 7.613-.02 11.42-.012q2.735 0 5.471-.02c2.553-.018 5.103-.004 7.655.019l2.278-.036c3.923.071 5.707.561 8.853 2.98C122 314 122 314 122 317.625c-.945 3.19-1.364 4.477-4 6.375-3.05 1.525-6.236 1.165-9.583 1.177l-2.37.02c-2.596.02-5.19.031-7.785.041l-2.684.013q-7.03.03-14.061.044c-4.843.011-9.684.046-14.527.085-3.722.026-7.444.035-11.167.038q-2.677.008-5.355.035c-2.499.025-4.997.024-7.497.017l-2.23.039c-3.638-.037-5.61-.425-8.7-2.413C30 321 30 321 29.371 319l.067-2-.004-2c1.8-6.359 6.83-6.583 12.56-6.533M43.62 223.855l2.347-.01q3.843-.013 7.685-.013l5.34-.01q5.597-.009 11.194-.007c4.783 0 9.566-.014 14.349-.031q5.514-.015 11.028-.013 2.645 0 5.29-.013c2.466-.01 4.931-.007 7.397 0 .729-.007 1.458-.012 2.209-.018 3.666.023 6.465.16 9.541 2.26 2.097 2.696 1.995 4.093 1.812 7.562-1.088 4.606-1.088 4.606-3.812 6.438a67 67 0 0 1-7.988.404l-2.465.02c-2.691.02-5.383.015-8.074.01q-2.805.007-5.609.015-5.88.013-11.76-.003c-5.025-.011-10.049.009-15.074.038-3.862.018-7.723.018-11.584.012q-2.78 0-5.558.019c-2.59.014-5.18.004-7.77-.013l-2.323.029c-3.526-.049-5.437-.256-8.271-2.435C28.96 234.57 29.525 232.276 30 228c3.222-4.756 8.421-4.148 13.62-4.145M64.59 352.807l2.05-.025q3.364-.035 6.727-.055l2.32-.017q6.075-.039 12.151-.06c4.186-.017 8.371-.062 12.556-.112 3.218-.034 6.434-.046 9.652-.051q2.315-.01 4.628-.046c2.16-.032 4.318-.032 6.478-.024l3.723-.025C128 353 128 353 130.432 355.31 132 358 132 358 131.937 361.625c-.895 3.223-1.288 4.468-3.937 6.375-2.807 1.404-5.158 1.15-8.298 1.177l-1.957.02c-2.14.02-4.28.031-6.42.041l-2.216.013q-5.805.03-11.61.044c-3.996.011-7.99.046-11.985.085-3.074.027-6.147.035-9.221.038q-2.21.008-4.417.035a408 408 0 0 1-6.19.017l-3.555.018C58.334 368.896 56.69 367.7 54 365c-1.256-3.69-1.344-5.264.312-8.813 2.979-3.86 5.593-3.33 10.277-3.38M66.228 179.855l3.894-.02 4.214-.003 4.323-.01q4.531-.009 9.064-.007c3.865 0 7.731-.014 11.597-.031q4.466-.015 8.93-.013 2.138 0 4.275-.013c1.996-.01 3.992-.006 5.988 0l3.438-.005c3.103.251 5.275.86 8.049 2.247 2.167 2.66 1.995 4.088 1.813 7.562-1.07 4.522-1.07 4.522-3.813 6.438-3.036.381-3.036.381-6.81.388l-2.086.016c-2.274.013-4.548.005-6.823-.006q-2.37.003-4.74.01-4.97.005-9.937-.017c-4.247-.017-8.494-.007-12.741.01-3.264.012-6.527.008-9.79 0q-2.349-.004-4.699.008a590 590 0 0 1-6.563-.02l-3.775-.008C57 196 57 196 55.133 194.687c-1.921-2.86-2.074-5.288-2.133-8.687 3.516-5.777 6.809-6.124 13.228-6.145"/></svg>