<svg xmlns="http://www.w3.org/2000/svg" width="512" height="512"><path d="M250.233.895c49.125-1.926 103.516 12.434 144.212 40.43C396.77 43.182 396.77 43.182 399 43c1.435-1.71 1.435-1.71 2.863-3.945l1.69-2.516c.58-.88 1.161-1.758 1.76-2.664 10.314-15.512 10.314-15.512 15-16.75L423 17c3.325 3.72 4.85 6.864 6.198 11.651l.564 1.963c.607 2.13 1.196 4.263 1.785 6.398l1.26 4.48q1.319 4.69 2.612 9.389c1.102 3.99 2.226 7.975 3.356 11.958.873 3.084 1.733 6.17 2.59 9.259q.612 2.203 1.239 4.404c5.53 19.516 5.53 19.516 1.521 26.998-5.887 5.875-18.025 5.104-25.79 5.79l-3.608.327q-3.764.34-7.528.67c-3.793.335-7.584.684-11.375 1.033-20.83 1.885-20.83 1.885-30.41 2.078l-3.619.076C359 113 359 113 357.098 111.12 356 109 356 109 356.02 106.703c1.35-3.725 3.41-6.716 5.667-9.953l1.363-1.996q1.346-1.971 2.7-3.936a522 522 0 0 0 4.875-7.255L373 80c-36.633-30.827-92.281-37.643-138.268-34.798-5.99.552-11.849 1.557-17.732 2.798l-2.988.618C173.186 57.264 137.042 75.912 107 105l-1.608 1.53C72.774 137.617 52.679 179.92 45 224l-.684 3.762C38.821 264.635 44.176 303.542 58 338l.866 2.16C66.426 358.687 76.485 375.413 89 391l1.374 1.725c30.587 38.116 74.443 64.568 122.313 74.338 7.8 1.61 13.184 3.643 18.688 9.437 3.897 5.995 4.403 11.49 3.625 18.5-1.745 6.103-5.525 10.818-11 14-14.83 6.439-36.63-3.254-51-8l-2.027-.662c-23.799-7.923-46.2-20.177-66.295-35.094-1.62-1.2-3.25-2.387-4.881-3.572C90.552 454.795 82.274 447.004 74 439l-1.537-1.47C28.953 395.86 1.103 331.774-.266 271.553c-.06-4.373-.065-8.744-.047-13.116l.007-2.794C-.165 217.984 7.792 182.05 24 148l.956-2.04C32.321 130.31 41.203 115.525 52 102l2.242-2.824C66.88 83.5 80.86 68.132 97 56c.625-.475 1.25-.95 1.895-1.438C143.411 20.936 194.6 3.51 250.233.895"/><path d="M251.25 92.688c4.101 2.264 6.65 5.113 8.75 9.312.106 1.989.147 3.981.158 5.973l.03 3.858.017 4.257.03 4.464q.04 6.072.068 12.142c.022 4.227.05 8.454.076 12.68q.074 12.011.138 24.023.076 13.673.16 27.344.17 28.13.323 56.259l14.874 7.713q13.123 6.806 26.251 13.6l1.742.9c9.213 4.766 18.432 9.518 27.653 14.266q6.245 3.216 12.489 6.434 4.875 2.513 9.754 5.023Q365.403 306.924 377 313l3.016 1.571c2.794 1.462 5.578 2.942 8.359 4.429l2.45 1.275c5.716 3.098 10.038 6.314 12.175 12.725.777 6.25.342 11.116-3.387 16.305-3.86 4.056-7.758 5.508-13.261 6.062-5.315-.115-9.504-2.37-14.164-4.742l-2.809-1.385c-7.287-3.618-14.488-7.4-21.668-11.224-7.531-3.998-15.125-7.873-22.711-11.766l-9.195-4.723-2.282-1.172a7287 7287 0 0 1-26.914-13.925 9030 9030 0 0 0-13.843-7.172l-1.87-.967q-4.382-2.265-8.763-4.528a10649 10649 0 0 1-27.629-14.34L226 275a28974 28974 0 0 1-.207-66.081q-.028-15.342-.095-30.684-.06-13.372-.074-26.747c-.006-4.72-.018-9.44-.047-14.159q-.039-6.667-.03-13.336a557 557 0 0 0-.024-4.886c-.155-17.306-.155-17.306 5.96-23.644 5.91-5.24 12.69-6.056 19.767-2.775M492 310c5.104 3.632 8.15 6.896 9.442 13.135.925 6.88-.197 12.065-2.505 18.553l-.873 2.72c-2.404 7.028-5.631 12.303-11.877 16.467-6.694 2.363-12.35 2.787-19.046.2-4.953-2.486-8.207-5.538-11.079-10.262-2.52-9.045-1.005-15.956 2.125-24.625l.883-2.462c2.245-5.845 4.763-10.564 10.07-14.187 8.183-3.546 14.847-3.923 22.86.461M396.078 434.82c4.535 2.784 7.64 7.062 10.36 11.555 1.454 6.786 1.18 12.565-2.075 18.738-3.714 5.14-8.315 8.393-13.675 11.575l-1.897 1.181c-6.577 3.947-12.994 5.817-20.69 4.666-6.51-1.658-10.84-6.834-14.218-12.363-2.051-5.046-1.67-11.338-.23-16.524 4.504-10.014 15.1-14.781 24.347-19.648 5.965-1.988 12.28-1.615 18.078.82M455.375 380.688c5.08 4.475 9.067 8.973 9.96 15.925.178 12.201-5.975 19.387-13.976 28.008-4.293 4.357-9.056 7.1-15.218 7.512-7.081-.44-13.374-2.799-18.141-8.133-2.979-5.483-4.815-10.71-4-17 1.912-6.03 4.386-10.377 8.375-15.25l1.422-1.812c8.196-10.235 18.94-15.57 31.578-9.25M487.313 152.625c7.85 6.938 11.842 17.912 13.175 28.11.277 7.372-.404 12.735-5.488 18.265-4.557 4.44-9.147 6.067-15.437 6.313-6.05-.163-11.526-2.374-16.086-6.422-6.099-7.809-10.445-20.693-10.489-30.543.896-7.003 4.668-11.88 10.012-16.348 8.377-3.886 16.074-3.416 24.313.625M327.086 470.25c4.818 4.405 6.674 9.627 7.164 16-.445 6.676-2.193 11.119-6.875 16-8.555 7.078-21.79 8.58-32.562 8.203-5.759-.928-9.266-3.824-13.188-7.953-4.075-6.269-4.394-12.178-3.625-19.5 1.713-5.58 5.984-10.164 11-13 12.762-4.375 26.404-8.336 38.086.25M501.438 229.625c5.342 3.143 8.608 7.486 10.562 13.375.438 4.262.37 8.53.375 12.813l.074 3.486c.028 7.973-.739 13.948-6.484 19.76l-2.027 1.378-2.036 1.434c-5.198 3.085-11.29 2.774-17.09 1.738-5.726-1.744-9.768-5.5-12.812-10.609-1.954-6.058-2.337-11.664-2.312-18l-.05-2.578c-.005-6.889.92-12.596 5.518-17.918l2.344-1.941 2.344-1.997c5.832-4.237 15.199-3.882 21.594-.941"/></svg>