<svg xmlns="http://www.w3.org/2000/svg" width="512" height="512"><path d="M459.25 14.688c3.57 3.001 3.57 3.001 4.023 6.3l.102 2.325.148 2.3c-.794 3.622-2.725 5.02-5.523 7.387a138 138 0 0 1-6.937 4.063c-8.109 4.621-15.937 9.644-23.721 14.786a822 822 0 0 1-4.036 2.645C410.454 62.392 410.454 62.392 403 75c-1.56 10.393 2.137 19.456 8.25 27.75 6.615 7.892 13.1 14.208 23.531 15.629 5.574.337 9.575-.206 14.434-3.02l2.883-1.65L455 112l2.704-1.567c2.691-1.567 5.37-3.154 8.046-4.746l2.881-1.697c4.322-2.553 8.62-5.126 12.846-7.834l2.02-1.276c1.747-1.11 3.48-2.238 5.214-3.368 4.236-1.947 6.661-1.969 11.289-1.512 2.703 1.298 3.872 2.768 6 5 1.691 5.074 1.225 10.4 1.24 15.714.01 2.08.04 4.16.072 6.241q.01 2.001.016 4.002l.028 3.656c-.595 5.66-3.355 9.65-6.762 14.075l-1.988 2.595L496.5 144l-2.177 2.828q-3.155 4.09-6.323 8.172l-3.078 3.996c-5.913 7.64-12.069 15.052-18.44 22.314a645 645 0 0 0-2.937 3.373c-6.176 7.13-12.35 14.252-21.545 17.317-1.567.11-3.138.166-4.708.19l-2.896.05-3.134.041-3.25.056q-5.162.088-10.324.163-5.104.077-10.207.163-3.174.055-6.349.097-3.01.05-6.019.172C392 203 392 203 388.65 202.76c-7.975-.22-12.283 1.735-17.93 7.045-2.61 2.563-5.131 5.202-7.65 7.855q-2.05 2.087-4.11 4.166a1162 1162 0 0 0-10.662 10.984c-3.624 3.757-7.285 7.476-10.943 11.2A3269 3269 0 0 0 316 266q1.425 1.674 2.854 3.347l1.606 1.883c1.934 2.223 3.972 4.315 6.063 6.391l2.403 2.393 2.449 2.423 2.52 2.506q3.049 3.032 6.105 6.057c5.2-4.338 10.01-8.916 14.75-13.75q1.957-1.996 3.922-3.984l1.722-1.757c2.948-2.77 5.195-3.91 9.168-4.197 4.546.187 6.563 1.188 9.844 4.305l2.635 2.489Q383.523 275.55 385 277l1.631 1.591c4.474 4.375 8.898 8.798 13.318 13.225l4.279 4.276q4.459 4.457 8.913 8.918 5.684 5.691 11.377 11.374 4.41 4.406 8.815 8.816l4.195 4.192c12.686 12.67 12.686 12.67 17.947 18.858 2.92 3.35 6.1 6.446 9.252 9.574l2.153 2.15a5872 5872 0 0 0 6.745 6.714l4.547 4.533a10964 10964 0 0 0 13.338 13.28c13.24 13.19 19.663 29.174 19.928 47.812-.164 20.02-7.426 36.65-21.493 50.812q-1.47 1.44-2.945 2.875l-2.383 2.375c-14.554 13.772-32.857 18.308-52.308 17.938-22.912-.982-38.623-14.305-54.061-29.806l-3.423-3.413q-4.604-4.592-9.197-9.197-4.824-4.829-9.654-9.652-8.095-8.09-16.18-16.19-9.345-9.36-18.707-18.704-8.054-8.04-16.098-16.092a8931 8931 0 0 0-9.6-9.598q-4.508-4.5-9.003-9.012-1.65-1.655-3.307-3.304a1241 1241 0 0 1-4.502-4.514l-2.547-2.55c-3.193-3.589-4.044-5.308-3.976-10.168.703-4.4 2.874-6.957 6.075-9.925l1.543-1.513a427 427 0 0 1 4.89-4.675q1.66-1.605 3.311-3.215A883 883 0 0 1 296 337c-1.585-3.863-4.06-6.289-7.008-9.203l-1.471-1.463a1400 1400 0 0 0-4.646-4.584l-3.152-3.125A2895 2895 0 0 0 272 311a207 207 0 0 0-13.47 12.31l-1.83 1.815a3681 3681 0 0 0-5.91 5.883l-2.05 2.04q-5.355 5.334-10.702 10.674a5031 5031 0 0 1-11.067 11.009 3994 3994 0 0 0-8.513 8.488q-2.039 2.034-4.084 4.06-2.848 2.826-5.68 5.67c-.565.557-1.13 1.113-1.713 1.685-4.732 4.784-5.087 7.954-5.215 14.508l-.082 3.763-.038 2.002q-.063 3.115-.142 6.231c-.147 5.904-.291 11.808-.403 17.713q-.105 5.424-.256 10.848a401 401 0 0 0-.082 4.122c-.2 13.202-.2 13.202-4.763 18.179l-2.008 2.457c-8.314 9.25-17.498 17.068-27.3 24.664a409 409 0 0 0-7.29 5.79c-28.684 23.309-28.684 23.309-45.322 23.44q-2.319.024-4.638.081c-2.236.055-4.47.077-6.708.091l-2.074.07c-3.79-.017-6.162-.626-9.077-2.946C89 503 89 503 87.938 500.125c.145-7.26 5.14-14 8.687-20.125l1.608-2.796q4.773-8.274 9.704-16.454l1.1-1.84c1.502-2.51 3.02-4.997 4.627-7.441 3.627-5.755 4.38-10.728 3.336-17.469-3.514-12.153-11.986-19.557-22.727-25.512-6.332-3.26-12-5.571-19.273-4.488-7.057 2.429-11.782 5.935-16 12l-2.129 3.047c-7.945 11.593-15.42 23.593-22.492 35.737l-1.586 2.716-1.413 2.457c-2.04 3.02-3.881 4.115-7.38 5.043-3.477.124-5.748-.078-8.602-2.18-11.343-11.692-12.96-32.147-12.835-47.445l.02-3.955C2.762 400.565 4.061 390.44 7 380l.551-1.998c6.661-23.41 19.261-50.531 41.012-63.377 14.895-6.273 34.096-6.47 49.983-8.648q4.874-.672 9.747-1.356l2.992-.404 2.806-.395 2.442-.336c7.01-1.381 10.507-3.957 15.39-8.955l2.013-2.01c2.184-2.188 4.355-4.39 6.525-6.591q2.272-2.285 4.548-4.565c3.984-4 7.956-8.01 11.925-12.025 4.055-4.096 8.122-8.18 12.187-12.266Q181.075 245.053 193 233c-3.566-4.22-7.192-8.339-11.02-12.324l-1.403-1.462a1723 1723 0 0 0-12.718-13.059 901 901 0 0 1-8.5-8.755 663 663 0 0 0-8.287-8.505 226 226 0 0 1-3.123-3.246c-5.397-6.146-5.397-6.146-12.705-8.845-2.551.515-4.821 1.26-7.244 2.196-17.717 1.792-32.47-1.436-46.492-12.73-3.612-3.151-5.932-6.588-8.32-10.708q-1.299-2.154-2.602-4.304l-1.31-2.175c-1.903-3.106-3.924-6.127-5.963-9.145a1518 1518 0 0 1-12.376-18.75l-1.91-2.933-3.964-6.087q-4.28-6.573-8.57-13.142-2.17-3.322-4.331-6.646c-3.226-4.95-6.477-9.87-9.869-14.708l-1.699-2.448a249 249 0 0 0-3.104-4.356C14.34 66.33 12.138 61.64 13 56c3.215-6.024 8.261-10.533 13.07-15.3l2.66-2.658a3526 3526 0 0 1 6.97-6.938c2.372-2.358 4.736-4.725 7.1-7.09l5.395-5.377 2.582-2.579 2.388-2.368 2.103-2.092c3.308-3.052 6.384-3.204 10.758-3.152 6.176 1.15 11.09 5.332 16.099 8.929q1.817 1.264 3.638 2.521 3.56 2.458 7.105 4.938c3.663 2.533 7.39 4.917 11.195 7.229 9.77 6.002 19.319 12.347 28.903 18.64q5.758 3.774 11.538 7.516l3.125 2.026q2.903 1.883 5.81 3.758c14.591 9.47 26.04 19.03 30.193 36.846.654 3.82.656 7.597.618 11.463l.023 2.358c-.021 6.635-.021 6.635-1.153 9.759-1.067 3.12-1.43 5.271-1.12 8.571 3.215 5.091 7.477 8.993 11.836 13.105q1.858 1.822 3.708 3.653a929 929 0 0 0 9.815 9.493c3.354 3.221 6.672 6.48 9.993 9.735A2615 2615 0 0 0 237 188l2.698-2.325a699 699 0 0 1 8.595-7.246c8.237-6.872 16.236-13.989 24.082-21.304l2-1.865c26.122-24.57 34.245-45.913 35.367-81.287q.001-3.434-.004-6.867c.169-12.546 5.6-21.39 14.075-30.293C328.177 32.64 332.929 29.257 338 26c.859-.565 1.717-1.13 2.602-1.71 31.712-19.743 85.425-32.494 118.648-9.602M333.629 57.496c-4.244 6.524-4.42 15.482-5.416 23.019q-.416 3.142-.847 6.283a5120 5120 0 0 0-2.404 17.845 2388 2388 0 0 1-1.486 10.96 718 718 0 0 0-.553 4.155 758 758 0 0 1-.788 5.813l-.446 3.332c-1.532 6.885-5.122 10.959-9.996 15.745l-1.923 1.924a1719 1719 0 0 1-6.282 6.233l-4.359 4.346a5649 5649 0 0 1-11.467 11.393c-3.906 3.875-7.804 7.76-11.703 11.643A15901 15901 0 0 1 253 203c1.443 3.014 2.866 5.105 5.258 7.453l1.894 1.875 1.973 1.922 1.996 1.969q2.434 2.396 4.879 4.781a163 163 0 0 0 13.144-12.189l3.54-3.639 1.862-1.918c3.29-3.383 6.6-6.745 9.91-10.11 4.193-4.266 8.38-8.538 12.54-12.839 3.377-3.491 6.778-6.957 10.197-10.408a397 397 0 0 0 3.852-3.969c9.935-10.367 9.935-10.367 14.932-11.755 3.712-.058 6.515.658 10.023 1.827 1.516 4.547 2.115 8.274 1 13-2.887 4.27-6.53 7.673-10.254 11.195q-1.592 1.56-3.178 3.128a887 887 0 0 1-8.411 8.148c-3.4 3.27-6.766 6.575-10.137 9.874-2.628 2.571-5.26 5.137-7.909 7.687-4.772 4.605-9.407 9.245-13.693 14.312-2.16 2.521-4.492 4.825-6.856 7.156l-2.62 2.594L285 235c1.659 4.325 4.871 7.094 8.125 10.25l1.707 1.68q2.079 2.04 4.168 4.07c10.273-4.321 19.201-16.073 26.992-23.948q2.576-2.601 5.16-5.195 7.326-7.363 14.637-14.742 4.508-4.548 9.028-9.083 1.712-1.72 3.417-3.447a1431 1431 0 0 1 4.75-4.78l2.724-2.747c3.93-3.529 8.066-3.32 13.097-3.558l2.373-.12q2.53-.127 5.061-.25c2.65-.13 5.299-.276 7.948-.424 8.146-.44 16.234-.785 24.391-.565 14.313.827 14.313.827 26.466-5.503 2.112-2.439 3.942-4.973 5.684-7.687 1.64-2.516 3.501-4.802 5.397-7.128a236 236 0 0 0 4.059-5.186c3.048-3.964 6.212-7.83 9.378-11.7a4356 4356 0 0 0 4.866-5.999q1.555-1.918 3.12-3.83a594 594 0 0 0 4.264-5.296l2.458-3.042c1.898-3.039 1.891-4.3 1.73-7.77-8.317 3.976-16.134 8.595-23.965 13.447-10.966 6.633-21.825 8.432-34.578 5.83-17.339-5.02-29.193-15.709-38.18-31.257-6.712-12.748-9.89-25.93-5.84-40.145 6.87-17.839 22.8-26.769 38.28-36.348 1.794-1.125 3.543-2.32 5.283-3.527v-2c-34.683-.737-68.65 6.176-93.371 32.496M62.316 34.57a1205 1205 0 0 0-3.539 3.555l-1.879 1.883q-2.983 2.994-5.96 5.992l-4.034 4.047A9843 9843 0 0 0 37 60c1.174 3.117 2.416 5.866 4.293 8.617l1.386 2.052 1.508 2.206q1.64 2.427 3.274 4.855l1.749 2.596c3.075 4.594 6.088 9.228 9.103 13.862l1.904 2.924q3.846 5.908 7.687 11.817a6641 6641 0 0 0 11.224 17.207q1.91 2.921 3.81 5.849 2.834 4.358 5.687 8.702l1.72 2.665c5.492 8.326 11.622 12.538 21.155 15.398l2.5.25 1.914.191c10.083.553 18.088-3.48 25.606-9.921 7.093-6.49 13.77-12.798 18.48-21.27l1.027-1.848c3.582-7.774 3.24-17.666.348-25.59-3.402-8.127-9.853-12.949-17.125-17.437l-5.383-3.414-2.884-1.817c-5.239-3.326-10.42-6.74-15.608-10.144l-6.621-4.332-1.675-1.096q-5.993-3.92-11.99-7.834l-10.056-6.567c-6.676-4.364-13.334-8.755-19.936-13.231-4.028-3.241-4.028-3.241-7.78-.12M166.58 152.193l-1.62 1.65-1.757 1.778-1.828 1.879-1.852 1.879A1357 1357 0 0 0 155 164a199 199 0 0 0 12.416 13.536l1.872 1.875q3.078 3.079 6.163 6.153l4.436 4.437q6.003 6.001 12.01 11.998 6.285 6.276 12.565 12.556 11.886 11.882 23.778 23.757 13.54 13.525 27.076 27.054Q283.154 293.188 311 321q1.682-1.433 3.362-2.868l1.89-1.613c1.98-1.72 3.85-3.52 5.685-5.394l1.778-1.805L325 308c-1.655-4.27-4.852-7.13-8.036-10.29l-1.894-1.903c-2.098-2.107-4.204-4.206-6.31-6.306l-4.513-4.524a9190 9190 0 0 0-12.28-12.278c-4.279-4.274-8.553-8.554-12.829-12.832q-10.769-10.774-21.548-21.537-12.477-12.463-24.938-24.942a30149 30149 0 0 0-21.383-21.389q-6.395-6.39-12.784-12.786-6-6.01-12.016-12.007a2614 2614 0 0 1-4.42-4.421q-3.001-3.008-6.013-6.003l-1.783-1.796c-3.425-4.067-3.425-4.067-7.673-2.793m40.079 96.939-1.563 1.62-1.8 1.847-1.97 2.055-4.272 4.4-2.296 2.374c-4.015 4.143-8.06 8.256-12.102 12.375a2574 2574 0 0 0-15.37 15.782c-4.117 4.269-8.265 8.505-12.437 12.721a450 450 0 0 0-4.7 4.858c-9.92 10.395-16.542 16-31.149 16.836q-3.428.486-6.846 1.027-3.36.46-6.72.91l-7.405 1.024a4684 4684 0 0 1-11.454 1.56c-3.736.505-7.47 1.022-11.204 1.541l-3.45.455C60.155 332.171 53.792 335.845 46 345c-14.792 20.173-23.064 45.732-23.25 70.563l-.029 2.96.013 2.793.007 2.514c.128 2.464.128 2.464 2.259 5.17l2.055-3.227c23.33-36.475 23.33-36.475 40.601-41.554C83.18 380.829 97.88 385.659 111 394c12.619 8.869 22.942 20.433 26 36 2.27 15.05-.959 25.164-8.675 37.818-1.881 3.098-3.702 6.23-5.53 9.361A1922 1922 0 0 1 117 487c1.862.665 1.862.665 4 1a50.5 50.5 0 0 0 5.875-4.25l1.721-1.38a593 593 0 0 0 3.6-2.909c2.278-1.845 4.59-3.642 6.905-5.44 2.98-2.322 5.94-4.67 8.899-7.021l1.983-1.576c8.983-7.16 17.693-14.5 26.017-22.424.532-.41 1.064-.82 1.613-1.241 2.072-2.628 1.841-4.825 1.94-8.139l.142-3.996.056-2.135c.058-2.213.135-4.424.218-6.635.201-5.496.375-10.993.54-16.49q.209-6.96.472-13.92c.076-2.171.131-4.341.185-6.513q.075-2.016.152-4.034l.107-3.532c1.303-7.626 6.143-12.363 11.455-17.585l2.07-2.072c2.244-2.242 4.499-4.473 6.753-6.704l4.691-4.678q6.158-6.136 12.33-12.256c4.202-4.17 8.395-8.35 12.589-12.529A18371 18371 0 0 1 256 296c-1.396-2.906-2.73-4.971-5.04-7.234l-1.757-1.739-1.828-1.777-1.852-1.824Q243.267 281.207 241 279c-4.83 4.015-9.342 8.229-13.726 12.724l-3.925 3.993-2.068 2.11c-3.645 3.714-7.307 7.412-10.967 11.112a3925 3925 0 0 0-13.897 14.117 2130 2130 0 0 1-11.287 11.439 689 689 0 0 0-4.275 4.36 639 639 0 0 1-6 6.068l-1.749 1.83c-4.227 4.165-7.146 5.18-13.106 5.247-3.62-1.574-4.793-2.689-7-6-.562-3.187-.562-3.187 0-7 1.345-1.877 1.345-1.877 3.107-3.803l1.931-2.12a398 398 0 0 1 8.815-9.044l1.954-1.954q3.154-3.152 6.314-6.298l4.41-4.405q5.77-5.763 11.545-11.52 5.904-5.89 11.805-11.786Q214.436 276.531 226 265q-1.415-1.662-2.831-3.32l-1.593-1.868c-2.184-2.51-4.482-4.888-6.826-7.25l-2.578-2.62c-2.677-2.454-2.677-2.454-5.513-.81m157.586 48.374-1.99 2.012-2.099 2.098c-2.299 2.3-4.59 4.608-6.883 6.915l-4.766 4.776q-6.284 6.297-12.557 12.606-6.4 6.428-12.81 12.849Q310.564 351.372 298 364c1.732 3.704 3.828 6.045 6.762 8.922l1.42 1.405q2.248 2.218 4.505 4.423 2.229 2.186 4.452 4.38 2.035 2.007 4.079 4.006a143 143 0 0 1 5.981 6.557c3.65 4.185 7.48 8.148 11.398 12.08l2.196 2.216q3.56 3.59 7.129 7.171l2.48 2.492q6.492 6.523 12.993 13.038a5905 5905 0 0 1 13.337 13.422q5.157 5.193 10.331 10.37 2.462 2.468 4.913 4.948c13.113 13.253 26.682 26.416 46.587 26.82 15.224-.204 26.902-6.748 37.437-17.25l2.418-2.348c10.284-10.594 13.875-21.979 13.899-36.3-.256-16.615-9.579-28.233-20.972-39.493q-1.609-1.612-3.215-3.226a2361 2361 0 0 0-8.683-8.657c-3.039-3.022-6.068-6.054-9.098-9.085a8581 8581 0 0 0-15.262-15.215 8874 8874 0 0 1-17.651-17.611 16862 16862 0 0 0-18.803-18.772l-5.419-5.412a3734 3734 0 0 0-8.5-8.466 1308 1308 0 0 1-3.122-3.116 1188 1188 0 0 0-4.254-4.228l-2.406-2.397c-3.963-3.435-5.528-.313-8.687 2.832"/><path d="M360 342c5.366 2.455 9.237 6.957 13.339 11.08l2.504 2.494q4.09 4.08 8.169 8.172l5.681 5.676q5.95 5.945 11.89 11.9a8135 8135 0 0 0 13.748 13.744q5.913 5.9 11.816 11.812 3.524 3.528 7.053 7.05 3.93 3.925 7.85 7.863l2.362 2.35 2.154 2.171 1.874 1.877c2.89 3.356 3.56 5.252 3.56 9.748-.56 3.484-1.136 4.219-3.625 7.063-3.97 2.353-5.837 2.73-10.375 2-5.564-3.158-9.786-7.51-14.269-12.026l-2.446-2.44a4010 4010 0 0 1-7.957-7.975l-5.542-5.544a9957 9957 0 0 1-11.59-11.613q-6.693-6.716-13.398-13.419a17877 17877 0 0 1-12.91-12.923l-5.489-5.494q-3.827-3.831-7.648-7.67l-2.302-2.3-2.098-2.111-1.825-1.83c-3.552-3.852-3.952-6.414-3.854-11.428.483-3.28 1.956-4.995 4.328-7.227 3.064-1.532 5.617-1.23 9-1"/></svg>