<svg xmlns="http://www.w3.org/2000/svg" width="512" height="512"><path d="M196 24c3.85 2.488 5.159 4.816 6.152 9.152q.413 2.39.786 4.785C205.93 54.17 212.346 68.052 226 78c12.575 8.076 27.518 9.528 41.938 6.875 12.96-3.074 22.828-9.103 30.617-20.062 1.316-2.224 2.402-4.449 3.445-6.813l1.3-2.89c2.838-6.797 4.557-13.358 5.449-20.641.494-3.387 1.322-5.576 3.22-8.438C316.347 23.097 319.847 23.39 325 24c4.78 1.231 9.384 2.898 14.012 4.602q2.01.72 4.02 1.436a1697 1697 0 0 1 10.521 3.81 1754 1754 0 0 0 8.482 3.054q5.146 1.843 10.29 3.7l1.913.69a931 931 0 0 1 20.835 7.795l3.625 1.4C404.302 53.055 408.527 56.823 413 61l3.73 3.445q3.928 3.646 7.825 7.325a289 289 0 0 0 9.558 8.593c2.324 2.016 4.604 4.075 6.887 6.137a683 683 0 0 0 9 8c3.895 3.393 7.728 6.852 11.563 10.313A578 578 0 0 0 468 110.5c3.895 3.393 7.728 6.852 11.563 10.313A578 578 0 0 0 486 126.5c3.888 3.386 7.715 6.838 11.54 10.297a398 398 0 0 0 6.835 5.953c7.788 6.905 7.788 6.905 8.438 12.438-.305 4.198-1.554 6.11-4.408 9.153l-2.486 2.654c-5.288 5.474-10.666 10.86-16.065 16.226q-3.284 3.265-6.56 6.537-6.957 6.936-13.919 13.867-8.086 8.05-16.165 16.11a6114 6114 0 0 1-6.433 6.4l-3.975 3.965-1.78 1.764c-3.677 3.677-7.143 7.49-10.535 11.433A76 76 0 0 1 427 247c-.2 3.045-.272 6-.258 9.046l-.011 2.875c-.01 3.2-.006 6.4-.002 9.6l-.016 6.858q-.017 7.4-.018 14.8a9672 9672 0 0 1-.04 23.394 32725 32725 0 0 0-.072 34.9 52954 52954 0 0 0-.042 33.733 19540 19540 0 0 1-.071 34.626q-.032 11.631-.028 23.262c-.001 4.824-.015 9.648-.033 14.472a1416 1416 0 0 0 0 6.717c.005 3.055-.007 6.109-.024 9.163l.02 2.69c-.05 4.967-.352 8.73-3.405 12.864-6.177 3.972-12.796 3.42-19.943 3.381l-3.963.014c-3.62.013-7.238.006-10.858-.003-3.907-.007-7.814.004-11.722.012-7.65.013-15.3.01-22.95.002q-9.327-.01-18.654-.005l-2.682.002-5.395.003c-16.859.008-33.718-.002-50.578-.018q-21.696-.018-43.393.003a33507 33507 0 0 1-58.443.009q-9.315-.003-18.63.009-11.353.013-22.705-.01-5.793-.013-11.584-.001c-4.186.01-8.371-.002-12.557-.017l-3.697.02C94.17 489.324 94.17 489.324 89 486c-3.6-4.87-3.413-9.704-3.345-15.513l-.003-2.882c0-3.183.021-6.365.043-9.548q.005-3.425.008-6.85.008-7.374.04-14.748c.03-7.773.032-15.547.03-23.321l-.002-10.002q0-11.349.015-22.698l.002-2.094c.014-11.204.047-22.408.085-33.612q.055-17.27.027-34.539c-.01-7.727.014-15.453.064-23.18.023-4.809.012-9.617-.008-14.426q-.004-3.343.035-6.686c.549-11.254.549-11.254-2.59-21.76-2.01-2.015-4.062-3.53-6.401-5.141a93 93 0 0 1-3.562-4.056c-3.322-3.854-6.831-7.465-10.443-11.047l-2.003-1.999a3850 3850 0 0 0-4.264-4.245q-3.376-3.358-6.746-6.722-7.144-7.124-14.294-14.244-8.316-8.278-16.622-16.565a6653 6653 0 0 0-6.651-6.62l-4.057-4.046-1.872-1.856-1.711-1.712-1.486-1.48c-3.331-3.64-3.926-6.272-3.773-11.025C.459 148.743 3.64 146.14 7 143l1.479-1.404a517 517 0 0 1 17.564-15.889A544 544 0 0 0 33 119.5a683 683 0 0 1 9-8c4.717-4.11 9.356-8.307 14-12.5 5.28-4.768 10.573-9.515 15.938-14.187A718 718 0 0 0 79 78.5a778 778 0 0 1 10.938-9.684c2.38-2.097 4.719-4.239 7.062-6.379A2246 2246 0 0 1 102 58l1.781-1.66c4.109-3.502 8.652-5.443 13.656-7.336l2.333-.894c2.74-1.045 5.485-2.078 8.23-3.11l3.269-1.23a2657 2657 0 0 1 20.376-7.558 1608 1608 0 0 0 9.81-3.624c3.83-1.432 7.672-2.837 11.514-4.24l3.517-1.326c6.478-2.338 12.58-4.196 19.514-3.022m-37.372 32.087a1168 1168 0 0 1-10.791 3.76 850 850 0 0 0-10.45 3.656q-1.973.698-3.958 1.365C123.422 68.248 117.351 72.538 110 80a238 238 0 0 1-4 3.5c-3.209 2.788-6.36 5.635-9.5 8.5a633 633 0 0 1-11.406 10.156c-3.522 3.102-6.975 6.28-10.442 9.442a405 405 0 0 1-6.59 5.84c-3.409 2.96-6.74 6.004-10.062 9.062a544 544 0 0 1-12.008 10.758A594 594 0 0 0 39 143.5 917 917 0 0 1 26 155c1.515 3.565 3.598 5.835 6.339 8.55l2.721 2.711 2.952 2.91 3.035 3.02q3.997 3.976 8.006 7.941 6.388 6.325 12.76 12.664 2.213 2.197 4.432 4.387c4.608 4.575 9.025 9.207 13.24 14.146 1.97 2.172 4.148 3.95 6.515 5.671l.011-1.827c.042-6.278.111-12.556.197-18.833q.042-3.514.063-7.028c.021-3.369.068-6.736.12-10.105l.003-3.17c.147-7.282.147-7.282 2.521-11.187 2.784-2.47 4.513-2.752 8.12-2.987 3.008.21 4.695 1.2 6.965 3.137 1.94 3.114 2.253 5.507 2.262 9.146l.022 3.17-.006 3.478.018 3.698q.02 5.083.02 10.166c.004 3.654.02 7.307.033 10.961q.034 9.496.048 18.992c.014 9.154.04 18.307.068 27.46a45824 45824 0 0 1 .113 44.55q.045 21.64.105 43.28l.007 2.721.059 21.072c.097 34.435.172 68.87.251 103.306h297c.21-97.099.21-97.099.388-194.198.05-18.757.05-18.757.077-27.531q.026-9.214.032-18.43.007-10.624.048-21.25.024-5.435.02-10.871c-.004-3.88.015-7.76.036-11.64l-.014-3.428c.054-5.973.433-10.416 3.413-15.652 3.075-2.05 4.859-2.005 8.563-1.875 3.85.98 4.985 1.828 7.437 4.875.519 2.38.519 2.38.546 5.044l.06 3.032.003 3.252.05 3.346c.05 3.525.07 7.05.091 10.576q.042 3.585.09 7.172.11 8.789.16 17.578c3.91-3.303 7.75-6.623 11.375-10.242l2.297-2.293 2.328-2.34 2.328-2.316c3.395-3.401 6.721-6.81 9.832-10.473 5.709-6.631 12.074-12.674 18.277-18.836l3.952-3.937A8880 8880 0 0 1 485 157c-1.338-3.009-2.776-4.984-5.195-7.207l-1.907-1.766-2.023-1.84-2.072-1.907c-3.878-3.56-7.792-7.076-11.783-10.51-2.715-2.379-5.366-4.825-8.02-7.27a549 549 0 0 0-12.016-10.766c-4.038-3.529-8.003-7.14-11.984-10.734l-5-4.5-10-9-2.5-2.246a986 986 0 0 1-5-4.54l-2.5-2.276-2.187-2.004L400 78l-1.781-1.772c-8.479-7.754-19.108-10.672-29.781-14.353q-2.897-1.023-5.792-2.05c-4.656-1.65-9.32-3.278-13.986-4.899a2775 2775 0 0 1-12.562-4.418l-4.168-1.472L329 48l-1.187 3.75C324.423 61.792 320.62 70.65 314 79l-1.992 2.527C299.549 96.337 282.058 104.684 263 107c-21.435 1.424-41.308-4.476-57.615-18.723C193.533 77.347 187.201 63.323 183 48c-7.381 0-17.284 5.584-24.372 8.087"/></svg>