<svg xmlns="http://www.w3.org/2000/svg" width="512" height="512"><path d="m228.398 299.664 6.494-.02q6.785-.017 13.57-.015c5.726 0 11.451-.027 17.177-.061 4.47-.023 8.94-.026 13.41-.025a994 994 0 0 0 6.322-.027c53.87-.364 101.966 21.268 140.192 58.671C437.06 369.698 446.78 382.978 455 397l1.206 2.05c11.513 19.914 18.49 41.428 22.794 63.95l.742 3.566c1.42 7.928 1.52 15.896 1.633 23.934l.08 3.44c.012 6.131-.016 10.394-4.455 15.06-4.15 3.09-7.223 3.376-12.345 3.38l-2.222.014c-2.465.012-4.93.003-7.394-.006q-2.673.006-5.346.016c-4.903.014-9.805.01-14.708.003-5.285-.005-10.57.008-15.855.018-10.356.017-20.712.018-31.068.013q-12.623-.006-25.245.002l-3.626.003-7.292.004c-22.806.014-45.612.009-68.419-.003-20.876-.01-41.752.003-62.628.027q-32.135.037-64.269.027-18.048-.007-36.097.017-15.364.022-30.728-.002c-5.228-.009-10.456-.011-15.684.004q-7.175.02-14.35-.01-2.6-.005-5.199.01c-2.352.013-4.702.001-7.054-.016h-3.962c-5.085-.726-8.259-2.865-11.357-6.92-1.265-2.834-1.552-4.785-1.586-7.878l-.035-3.115c.01-1.102.02-2.203.032-3.338l.027-3.494C31.134 460.039 38.524 432.719 51 408l1.1-2.199c8.706-17.147 20.026-32.637 33.488-46.359a357 357 0 0 0 4.111-4.294c36.352-37.678 87.14-55.447 138.7-55.484m-31.148 32.961-2.777.52c-42.899 8.56-80.513 34.425-104.961 70.492C74.789 425.954 62 454.735 62 482h388c-2.036-16.092-2.036-16.092-5.687-31.687l-.773-2.601c-8.146-26.4-22.6-48.849-41.54-68.712l-2.238-2.398c-22.243-23.178-53.692-38.134-85.012-43.977l-2.5-.471c-17.157-2.913-34.75-2.313-52.088-2.284q-5.199.006-10.397-.004c-26.372-.264-26.372-.264-52.515 2.759M289 3l2.42.668C314.583 10.265 333.513 21.498 351 38l2.234 2.04C370.864 56.73 381.613 78.863 388 102l.582 2.064c5.131 19.218 4.805 44.832-.582 63.936l-.668 2.42c-6.597 23.164-17.83 42.094-34.332 59.58l-2.04 2.234C334.27 249.864 312.137 260.613 289 267l-2.064.582c-19.218 5.131-44.832 4.805-63.936-.582l-2.42-.668c-23.164-6.597-42.094-17.83-59.58-34.332l-2.234-2.04C141.136 213.27 130.387 191.137 124 168l-.582-2.064c-5.131-19.218-4.805-44.832.582-63.936l.668-2.42C131.265 76.417 142.498 57.487 159 40l2.04-2.234C177.73 20.136 199.863 9.387 223 3l2.064-.582C244.282-2.713 269.896-2.387 289 3M179 64c-20.409 21.89-28.125 48.914-27.379 78.266.658 14.758 4.746 27.614 11.379 40.734l1.621 3.207c13.302 24.339 37.072 42.265 63.504 50.106 28.537 6.88 56.284 3.054 81.875-11.313 4.282-2.654 8.167-5.737 12-9l2.598-2.145C343.556 197.593 357.138 173.991 360 149c2.246-29.5-3.5-57.097-23-80l-2.145-2.598c-18.448-21.506-44.255-33.648-72.293-36.277C230.22 28.707 201.56 41.139 179 64"/></svg>