<svg xmlns="http://www.w3.org/2000/svg" width="512" height="512"><path d="m297 129 2.984.668c36.081 8.325 73.72 25.513 99.579 52.86 1.62 1.717 1.62 1.717 4.437 3.91 3.763 3.214 6.817 6.784 10 10.562l2.246 2.55c12.648 14.632 32.908 38.9 32.356 59.02-1.252 7.134-5.032 13.215-8.602 19.43l-1.069 1.92c-7.45 13.364-16.496 25.727-26.927 36.924-1.862 2.003-3.621 4.062-5.379 6.156-8.065 9.212-17.752 16.825-27.625 24l-1.669 1.218C352.856 365.846 325.321 376.67 296 383l-2.363.543c-48.634 10.891-104.868-1.322-146.824-27.356-12.031-7.671-23.224-16.267-33.555-26.105-2.074-2.106-2.074-2.106-4.258-3.082v-2c-.596-.26-1.191-.52-1.805-.79-2.354-1.298-3.599-2.535-5.32-4.585l-1.84-2.187L98 315l-2.254-2.562C84.841 299.834 75.856 285.674 68 271l-1.375-2.441C63.506 262.505 62.729 256.705 64 250c2-5.65 5.024-10.82 8-16l1.069-1.92c7.45-13.364 16.496-25.727 26.927-36.924 1.862-2.003 3.621-4.062 5.379-6.156 27.91-31.879 69.95-51.354 110.625-60l2.354-.54c24.304-5.444 54.415-5.007 78.646.54m-159.793 75.98a147 147 0 0 1-5.894 5.083C127.45 213.368 124.215 217.07 121 221l-2.277 2.77c-5.02 6.304-9.53 12.822-13.785 19.667l-1.447 2.295c-2.44 4.011-4.517 7.446-4.491 12.268 1.255 3.27 1.255 3.27 3.313 6.5l1.1 1.83c6.936 11.337 14.763 21.52 24.02 31.052a487 487 0 0 1 4.692 4.934c21.802 22.827 51.64 38.759 82.125 46.497l2.323.59c13.004 3.109 25.808 3.975 39.114 3.91l2.406-.007c11.865-.052 23.336-.454 34.907-3.306l2.464-.586c29.946-7.305 56.694-21.515 79.329-42.394a147 147 0 0 1 5.894-5.082c3.863-3.306 7.098-7.009 10.313-10.938l2.277-2.77c5.02-6.304 9.53-12.822 13.786-19.668l1.446-2.294c2.44-4.011 4.517-7.446 4.491-12.268-1.255-3.27-1.255-3.27-3.312-6.5l-1.101-1.83c-6.941-11.344-14.773-21.528-24.038-31.066a333 333 0 0 1-4.533-4.815C352.996 181.151 313.156 162.547 274 159l-3.957-.367c-48.852-3.963-96.937 13.232-132.836 46.347"/><path d="M298.153 203.76C310.906 214.25 319.387 228.608 322 245c1.62 20.435-1.791 38.017-14.75 54.375-10.724 12.182-26.272 21.7-42.731 22.79-21.435.914-39.455-3.399-55.539-18.145-11.337-11.07-18.715-26.396-19.28-42.29-.224-21.042 4.319-38.155 19.3-53.73 24.228-23.243 62.788-24.722 89.153-4.24M229 236c-6.049 8.685-6.773 16.524-6 27 1.877 9.053 7.946 16.48 15.445 21.703 8.551 4.91 17.63 5.732 27.344 3.719 9.518-3.324 16.829-10.504 21.371-19.379 3.169-7.709 3.135-17.467.403-25.293-4.195-8.966-11.42-15.991-20.563-19.75-14.87-4.842-28.076.985-38 12"/></svg>