<svg xmlns="http://www.w3.org/2000/svg" width="512" height="512"><path d="M260 21c5.71 3.367 10.467 8.18 15.098 12.867l1.933 1.935q2.006 2.01 4.005 4.029 3.031 3.054 6.075 6.095C293.285 52.116 299.35 58.323 305 65q2.43 2.664 4.875 5.313c4.019 4.41 7.854 8.924 11.598 13.57 1.877 2.33 3.787 4.63 5.71 6.922C349.517 117.478 369.19 146.548 386 177l1.576 2.843C406.9 215.006 420.9 253.096 426 293l.29 2.231c.89 7.697.953 15.403.96 23.144l.002 2.142c-.018 11.716-.734 23.015-3.252 34.483l-.504 2.35c-6.278 28.347-19.55 55.167-39.433 76.431-1.837 1.976-3.541 4.009-5.25 6.094-25.656 29.17-67.944 48.257-106.347 50.996-46.495 2.43-92.504-8.873-127.841-40.558l-2.406-2.25c-1.976-1.837-4.009-3.541-6.094-5.25C105.787 416.13 88.924 374.423 85 335c-.277-5.15-.335-10.28-.312-15.437l.006-2.092C84.894 277.286 96.309 239.29 113 203l2.176-4.844c17.315-38.05 41.806-73.32 68.405-105.437 1.991-2.412 3.952-4.849 5.919-7.281 13.996-17.044 29.036-33.038 44.568-48.682q1.608-1.62 3.212-3.244a1094 1094 0 0 1 4.544-4.567l2.66-2.671c4.714-4.26 9.035-6.757 15.516-5.274m-6.952 28.709-2.372 2.385-2.62 2.625-2.744 2.781-2.685 2.688c-4.524 4.553-8.914 9.169-13.096 14.038-2.237 2.592-4.573 5.081-6.906 7.587-4.297 4.65-8.367 9.438-12.336 14.374a304 304 0 0 1-6.07 7.193C187.432 122.833 172.66 144.262 159 166l-1.126 1.784c-33.807 53.891-61.647 121.422-47.256 185.99C113.471 365.5 117.45 376.303 123 387l1.578 3.246c17.123 33.955 49.124 59.463 84.793 71.676 35.784 11.317 76.169 9.852 110.016-7.016q1.808-.95 3.613-1.906l1.979-1.027c35.638-18.625 61.988-50.6 74.021-88.973 17.126-58.515-3.644-120.768-31.5-172.5-16.525-30.064-36.195-58.355-58.067-84.763-2.062-2.5-4.087-5.027-6.12-7.55-3.844-4.696-7.885-9.186-11.993-13.652a269 269 0 0 1-5.57-6.285c-7.69-8.832-15.782-17.346-24-25.687l-2.64-2.684c-2.746-2.446-3.29-2.597-6.062-.17"/><path d="M143 309c3.528 1.957 5.703 4.109 7 8 .167 1.438.294 2.88.395 4.324 2.574 33.385 14.774 59.321 39.98 81.578 3.83 3.06 7.899 5.687 12.059 8.274 3.33 2.367 5.24 4.154 6.035 8.226.054 4.415-.004 6.886-2.469 10.66-3.708 2.395-6.64 3.415-11 2.938-23.028-6.968-42.362-33.093-53.25-53.25-8.984-17.258-13.851-35.472-14.25-54.937l-.093-2.72c-.001-4.552.097-6.464 3-10.144 4.082-3.068 7.531-3.804 12.593-2.949"/></svg>