<svg xmlns="http://www.w3.org/2000/svg" width="512" height="512"><path d="m29.79 17.497 2.405-.018c2.676-.015 5.35 0 8.026.013q2.897-.006 5.793-.019c5.32-.017 10.638-.008 15.958.004 5.731.01 11.463-.005 17.194-.016 11.233-.018 22.466-.014 33.7-.002a18675 18675 0 0 0 31.31.004l7.904-.004c24.023-.011 48.046 0 72.068.021q32.91.029 65.819-.001a54033 54033 0 0 1 85.703-.012q13.679.003 27.358-.012 16.662-.017 33.324.013c5.67.01 11.342.015 17.013.001q7.78-.017 15.559.016 2.822.007 5.644-.007c2.548-.012 5.094 0 7.642.019l2.24-.029c3.4.05 5.246.305 8.005 2.363 2.204 3.095 2.063 5.406 2.076 9.18l.017 2.065c.009 2.204-.016 4.407-.048 6.611l-.019 2.271C494.265 62.065 489.27 81.358 474 98l-2.012 2.29c-13.054 14.043-31.878 22.753-51.016 23.89-3.294.064-6.584.068-9.879.047h-3.758q-5.048-.001-10.095-.024c-3.53-.013-7.06-.014-10.59-.016a9567 9567 0 0 1-20.006-.043c-7.598-.022-15.197-.033-22.796-.043-15.616-.021-31.232-.058-46.848-.101v44l21.785-.07q6.87-.016 13.74-.028c7.255-.012 14.51-.026 21.764-.053q8.783-.032 17.565-.039 3.336-.005 6.67-.021c24.328-.115 44.52 1.173 63.288 18.586 8.864 9.33 13.352 21.382 15.459 33.831l.617 3.483q.88 5.022 1.73 10.049.601 3.555 1.208 7.108a9436 9436 0 0 1 6.312 37.643q1.36 8.183 2.725 16.366 2.281 13.695 4.558 27.392 2.921 17.565 5.848 35.129a193629 193629 0 0 1 10.126 60.833l1.266 7.614.37 2.217c2.114 12.756 2.114 12.756 2.219 17.71l.078 2.234c-.423 2.6-1.27 3.42-3.328 5.016-3.178 1.06-5.426 1.115-8.762 1.098l-3.388-.01-3.538-.026-3.572-.013q-4.37-.018-8.74-.049l.048 3.349c.054 4.098.088 8.196.117 12.294q.022 2.661.061 5.323c.037 2.549.054 5.098.067 7.647.015.794.03 1.588.047 2.406.002 5.45.002 5.45-1.44 7.691-2.857 1.94-5.203 1.666-8.633 1.668l-2.095.013c-2.334.01-4.668 0-7.002-.01q-2.525.005-5.05.014c-4.64.013-9.278.006-13.918-.003-4.998-.007-9.996.004-14.994.012-9.796.013-19.593.01-29.39.002a18938 18938 0 0 0-27.304-.003l-6.892.003c-21.563.008-43.127-.002-64.69-.018q-27.777-.018-55.554.003a54817 54817 0 0 1-71.32.01l-3.413-.001q-11.93-.003-23.86.009-14.53.013-29.06-.01-7.419-.013-14.839-.001-6.783.013-13.567-.012a762 762 0 0 0-4.924.006c-2.22.009-4.441 0-6.662-.014l-3.748-.002C52 494 52 494 50.1 492.71c-1.956-3.04-1.461-6.6-1.393-10.097l.013-2.476c.017-2.608.054-5.216.092-7.825q.024-2.652.042-5.306.051-6.503.146-13.006l-2.216.048c-3.323.062-6.647.101-9.972.14l-3.486.076-3.369.029-3.094.048c-3.607-.43-6.278-1.756-8.863-4.341-.604-8.972 1.246-17.727 2.735-26.537l.882-5.332c.797-4.819 1.604-9.637 2.412-14.454q1.276-7.633 2.54-15.265 2.14-12.869 4.291-25.734c1.998-11.946 3.986-23.893 5.973-35.84 7.191-43.242 7.191-43.242 10.805-64.7a3441 3441 0 0 0 2.772-16.763 4400 4400 0 0 1 1.863-11.283q.436-2.647.861-5.295c3.19-19.86 8.844-36.918 25.358-49.73 13.912-9.598 28.757-11.245 45.212-11.18l3.049-.001c3.284 0 6.568.008 9.852.016l6.881.005q9.008.006 18.016.024 9.21.014 18.422.02 18.037.016 36.076.049v-44l-11.528.048c-12.605.05-25.21.083-37.814.107-7.638.016-15.276.037-22.914.071q-9.996.046-19.99.056-5.284.004-10.569.035c-3.948.025-7.897.025-11.846.024l-3.474.032c-22.273-.084-41.512-8.353-57.615-23.56-16.191-16.9-22.834-37.686-22.696-60.749.009-2.222-.02-4.443-.052-6.666q-.003-2.14.002-4.28l-.006-3.857c1.115-7.242 5.819-7.846 12.292-7.764M33 33c0 23.489 2.184 41.053 19 58 15.152 13.125 31.513 18.65 51.383 18.508q2.07.007 4.14.019c3.745.016 7.49.008 11.235-.004 4.058-.01 8.115.005 12.172.016 7.93.018 15.86.014 23.79.002a9309 9309 0 0 1 22.138-.004l5.612.004c17.509.011 35.018-.002 52.527-.023q22.498-.025 44.995.003a27102 27102 0 0 0 57.94.014l2.778-.002q9.653-.003 19.307.012 11.777.017 23.554-.013c4-.01 8-.015 12-.001q5.506.017 11.014-.016c1.935-.007 3.871.006 5.807.02C430.96 109.371 447.478 102.834 461 90c16.066-16.716 18-34.123 18-57zm197 91v44h52v-44zM82 196c-8.462 10.101-11.602 20.369-13.666 33.203q-.357 2.132-.717 4.264c-.648 3.855-1.28 7.713-1.91 11.571-.675 4.115-1.364 8.227-2.051 12.34-1.31 7.856-2.608 15.714-3.902 23.573-1.43 8.679-2.871 17.356-4.315 26.032a35172 35172 0 0 0-6.744 40.69 17158 17158 0 0 1-7.776 46.721q-1.667 9.966-3.343 19.93-.51 3.02-1.014 6.042-.61 3.65-1.228 7.3l-.537 3.221-.47 2.792c-.397 2.425-.397 2.425-.327 5.321h444c-2.577-18.058-2.577-18.058-5.434-36.067l-.888-5.334-.962-5.813q-1.29-7.785-2.585-15.568l-1.62-9.753a76624 76624 0 0 0-5.672-34.095 34975 34975 0 0 1-5.26-31.688q-2.265-13.665-4.54-27.327-1.357-8.134-2.702-16.27-1.262-7.638-2.541-15.27-.466-2.793-.925-5.585c-2.936-17.85-6.065-33.204-20.871-45.23-11.453-7.083-22.671-8.152-35.822-8.134l-3.56-.007q-4.868-.007-9.734-.004c-3.506 0-7.011-.006-10.517-.01q-10.293-.012-20.586-.012-8.37 0-16.74-.006a78740 78740 0 0 0-47.503-.012h-5.172q-20.755-.002-41.51-.023-21.333-.023-42.665-.02-11.968.001-23.936-.014a8708 8708 0 0 0-20.38-.005q-5.193.007-10.387-.005a2751 2751 0 0 0-11.285.005l-3.283-.016c-14.533.066-28.207 2.829-38.92 13.263M63 454v25h385v-25z"/><path d="M324.555 233.05C343.483 249.179 356.798 274.164 359 299c1.768 30.015-5.06 58.128-25.285 81.052-18.298 19.929-43.537 33.1-70.805 34.264-27.452.71-52.777-5.94-73.91-24.316l-2.488-2.05c-17.814-15.155-30.128-38.15-33.266-61.38-2.171-31.5 3.82-57.635 23.754-82.57l1.898-2.406c36.85-44.157 103.264-42.574 145.657-8.543M201 242l-2.613 2.156C181.785 258.465 170.789 278.15 168 300v4l17 1c1 8 1 8 0 12l-17 2c2.888 23.369 12.715 44.582 31 60 14.858 11.26 31.156 18.858 50 20l1-17c8-1 8-1 12 0l1 17c22.58-1.075 43.26-12.178 58.777-28.371C333.571 356.679 344 337.737 344 319l-2.45-.184-3.238-.253-3.199-.247A70 70 0 0 1 327 317c-1.125-7.5-1.125-7.5 0-12l17-1c-1.025-21.875-12.148-43.38-27.984-58.328C300.748 233.008 283.003 224.212 263 223l-1 17c-8 1-8 1-11 0-1.521-3.042-1.374-6.28-1.562-9.625l-.131-2.14q-.158-2.618-.307-5.235c-17.154 0-35.035 8.226-48 19"/><path d="M301 262c2.438 1.563 2.438 1.563 4 4 .483 3.26.83 5.783-1.1 8.614-1.615 1.678-3.303 3.209-5.06 4.738a3363 3363 0 0 0-3.842 3.582 521 521 0 0 1-6.11 5.507c-8.256 6.837-8.256 6.837-12.5 16.184.222 3.429.222 3.429 1 6.56.972 4.474-.172 7.902-2.388 11.815-3.563 4.93-7.654 8.01-13.535 9.629-5.951.896-11.368.4-16.777-2.254-5.433-4.8-9.554-8.941-10.688-16.375.022-6.88.903-12.625 5.695-17.848 4.358-4.161 8.207-6.813 14.305-7.152l2.537.66c3.517.844 5.884 1 9.463.34 5.612-3.533 9.937-9.033 14.313-13.937a511 511 0 0 1 5.533-6.012 155 155 0 0 0 3.4-3.756c3.736-4.041 6.02-5.146 11.754-4.295m-48.25 42.5c-2.614 2.24-3.157 4.142-3.75 7.5.902 2.893.902 2.893 3 5 2.349 1.17 2.349 1.17 5 1 2.821-.993 2.821-.993 5-3 1.067-2.774 1.175-4.318.438-7.187-2.506-3.16-5.772-4.183-9.688-3.313M91.75 47.498l2.352-.016c2.561-.013 5.122.004 7.683.022q2.671 0 5.342-.005 5.595 0 11.19.034c4.784.029 9.567.026 14.352.013 3.676-.007 7.352.001 11.028.014q2.646.006 5.292 0c2.464-.002 4.927.014 7.39.036l2.215-.014c2.9.043 4.911.073 7.332 1.76 1.632 2.52 1.892 4.686 2.074 7.658-.625 2.25-.625 2.25-2 4-4.133 2.12-7.678 2.253-12.281 2.259l-2.165.01c-2.352.01-4.703.003-7.054-.003l-4.92.005q-5.15.005-10.299-.01c-4.395-.012-8.79-.005-13.184.007q-5.077.009-10.156 0-2.43-.003-4.86.005a951 951 0 0 1-6.8-.014l-3.904-.005C87.085 63.006 84.893 62.562 82 61c-2.327-3.491-2.503-4.892-2-9 3.21-4.504 6.585-4.57 11.75-4.502M198.397 47.554c2.03.008 4.059-.02 6.09-.052l3.884.002 3.56-.006c3.679.602 4.86 1.549 7.069 4.502.499 3.418.397 5.266-1.25 8.312-4.246 4.095-11.184 2.872-16.688 2.875l-2.998.038-2.904.005-2.636.013C188.56 62.86 185.82 61.82 183 59c-.57-7.185-.57-7.185 1.117-9.596 3.917-2.92 9.576-1.88 14.28-1.85"/></svg>